<?xml version="1.0" standalone="no"?>
<!DOCTYPE svg PUBLIC "-//W3C//DTD SVG 1.1//EN" "http://www.w3.org/Graphics/SVG/1.1/DTD/svg11.dtd" >
<svg xmlns="http://www.w3.org/2000/svg">
<metadata>
<json>
<![CDATA[
{
	"fontFamily": "miraupicon",
	"majorVersion": 1,
	"minorVersion": 3.1,
	"version": "Version 1.3",
	"fontId": "miraupicon",
	"psName": "miraupicon",
	"subFamily": "Regular",
	"fullName": "miraupicon",
	"description": "Font generated by IcoMoon."
}
]]>
</json>
</metadata>
<defs>
<font id="miraupicon" horiz-adv-x="1024">
<font-face units-per-em="1024" ascent="960" descent="-64" />
<missing-glyph horiz-adv-x="1024" />
<glyph unicode="&#x20;" horiz-adv-x="512" d="" />
<glyph unicode="&#xe900;" glyph-name="d" data-tags="d" d="M266.56 514.56v-133.44c0-46.080 24.96-89.28 64.96-112.32l115.52-66.56c20.16-11.52 42.56-17.28 64.96-17.28s44.8 5.76 64.96 17.28l115.52 66.56c40 23.040 64.96 66.24 64.96 112.32v133.44c0 46.080-24.96 89.28-64.96 112.32l-115.52 66.56c-40 23.040-89.92 23.040-129.92 0l-115.52-66.56c-40-23.040-64.96-66.24-64.96-112.32zM363.52 324.16c-20.16 11.84-32.96 33.6-32.96 56.96v126.72l149.44-86.080v-164.8s-0.64 0-0.96 0.32l-115.52 66.56zM660.48 324.16l-115.52-66.56s-0.64 0-0.96-0.32v164.8l149.44 86.080v-126.72c0-23.36-12.48-45.44-32.96-56.96zM479.040 638.4c10.24 5.76 21.44 8.64 32.96 8.64s22.72-2.88 32.96-8.64l115.52-66.56c2.56-1.28 4.16-3.2 6.4-5.12l-154.88-89.28-154.88 89.28c2.24 1.6 4.16 3.52 6.4 5.12l115.52 66.56zM128 629.44c17.6 0 32 14.4 32 32v85.12c0 29.44 24 53.44 53.44 53.44h85.12c17.6 0 32 14.4 32 32s-14.4 32-32 32h-85.12c-64.64 0-117.44-52.8-117.44-117.44v-85.12c0-17.6 14.4-32 32-32zM213.44 32h85.12c17.6 0 32 14.4 32 32s-14.4 32-32 32h-85.12c-29.44 0-53.44 24-53.44 53.44v85.12c0 17.6-14.4 32-32 32s-32-14.4-32-32v-85.12c0-64.64 52.8-117.44 117.44-117.44zM725.12 800h85.12c29.44 0 53.44-24 53.44-53.44v-85.12c0-17.6 14.4-32 32-32s32 14.4 32 32v85.12c0 64.64-52.8 117.44-117.44 117.44h-85.12c-17.6 0-32-14.4-32-32s14.4-32 32-32zM928 149.44v85.12c0 17.6-14.4 32-32 32s-32-14.4-32-32v-85.12c0-29.44-24-53.44-53.44-53.44h-85.12c-17.6 0-32-14.4-32-32s14.4-32 32-32h85.12c64.64 0 117.44 52.8 117.44 117.44z" />
<glyph unicode="&#xe901;" glyph-name="ae" data-tags="ae" d="M335.040 40.96c58.56-6.080 117.76-8.96 176.96-8.96s118.080 2.88 176.96 8.96c0 0 0.32 0 0.64 0 109.44 13.12 216.64 120.32 229.44 230.080 11.84 117.44 11.84 236.48 0 354.24-13.12 109.44-120.32 216.64-230.080 229.44-117.44 11.84-236.48 11.84-354.24 0-109.44-13.12-216.64-120.32-229.44-230.080-11.84-117.44-11.84-236.48 0-354.24 13.12-109.44 120.32-216.64 230.080-229.44zM168.64 617.92c9.6 79.68 93.76 164.16 173.12 173.44 56.64 5.76 113.6 8.64 170.56 8.64s113.6-2.88 169.6-8.64c79.68-9.6 164.16-93.76 173.44-173.12 11.52-112.96 11.52-227.84 0-340.16-9.6-79.68-93.76-163.84-173.44-173.44-112.96-11.52-227.52-11.52-339.84 0-79.68 9.6-164.16 93.76-173.44 173.12-11.52 112.96-11.52 227.84 0 340.16zM334.080 350.4c3.52 10.56 7.36 20.8 10.88 31.36h111.68c3.52-10.24 7.36-20.8 10.88-31.36s7.040-20.8 10.24-30.72h68.8c-10.88 30.72-21.12 59.2-30.72 85.44s-19.2 50.56-28.48 73.92c-9.28 23.040-18.56 45.12-27.52 65.92-9.28 20.8-18.24 40.96-27.84 60.8h-61.12c-9.6-19.84-18.88-40-27.84-60.8s-17.92-42.56-27.2-65.92c-9.28-23.040-18.56-47.68-28.48-73.92-9.6-26.24-19.84-54.72-30.72-85.44h66.88c3.2 9.92 6.4 20.16 10.24 30.4zM373.12 468.48c4.48 11.2 8.32 21.44 11.84 31.040 3.52 9.28 6.72 17.6 9.28 24.64 2.88 7.040 4.8 12.8 6.4 16.96 1.6-4.16 3.84-9.6 6.72-16.64s6.080-15.36 9.6-24.64c3.84-9.28 7.68-19.84 11.52-31.040 4.16-11.2 8.32-23.040 12.8-35.52h-81.6c4.48 12.48 8.96 24 13.44 35.52zM592.32 346.56c9.6-9.92 21.44-17.92 35.84-23.68s31.36-8.64 50.88-8.64c7.68 0 15.36 0.32 23.040 1.28s15.040 1.92 21.76 3.2 12.8 2.56 18.24 4.48c5.44 1.6 9.92 3.2 13.12 4.8l-8.32 49.92c-6.72-2.88-15.68-5.44-26.56-7.68-10.88-1.92-22.080-3.2-33.28-3.2-17.6 0-31.68 3.84-41.92 11.2s-16.32 17.6-17.6 30.080h139.52c0 3.2 0.64 7.040 0.96 11.2 0 4.16 0.32 8.32 0.32 11.84 0 36.48-8.96 64.32-26.88 83.2s-42.24 28.16-72.96 28.16c-13.12 0-25.92-2.56-38.72-7.36-12.48-4.8-23.68-12.16-33.28-21.76s-17.28-21.76-23.36-36.16-8.96-31.36-8.96-50.56c0-16 2.24-30.72 6.72-44.48s11.52-25.6 21.12-35.52zM631.68 465.92c1.92 5.12 4.48 9.6 7.68 13.44s7.36 7.040 12.48 9.28c4.8 2.24 10.88 3.52 17.6 3.52s13.12-1.28 17.92-3.84c4.8-2.56 8.64-5.76 11.84-9.6s5.44-8.32 7.040-13.12c1.6-4.8 2.56-9.92 2.56-15.36h-81.28c0.96 5.12 2.24 10.24 3.84 15.36z" />
<glyph unicode="&#xe902;" glyph-name="ai" data-tags="ai" d="M392.96 350.4c3.52 10.56 7.36 20.8 10.88 31.36h111.68c3.52-10.24 7.36-20.8 10.88-31.36s7.040-20.8 10.24-30.72h68.8c-10.88 30.72-21.12 59.2-30.72 85.44s-19.2 50.56-28.48 73.92c-9.28 23.040-18.56 45.12-27.52 65.92-9.28 20.8-18.24 40.96-27.84 60.8h-61.12c-9.6-19.84-18.88-40-27.84-60.8s-17.92-42.56-27.2-65.92c-9.28-23.040-18.56-47.68-28.48-73.92-9.6-26.24-19.84-54.72-30.72-85.44h66.88c3.2 9.92 6.4 20.16 10.24 30.4zM431.68 468.48c4.48 11.2 8.32 21.44 11.84 31.040 3.52 9.28 6.72 17.6 9.28 24.64 2.88 7.040 4.8 12.8 6.4 16.96 1.6-4.16 3.84-9.6 6.72-16.64s6.080-15.36 9.6-24.64c3.84-9.28 7.68-19.84 11.84-31.040s8.32-23.040 12.8-35.52h-81.6c4.48 12.48 8.96 24 13.44 35.52zM668.48 563.2c9.92 0 18.56 3.2 25.92 9.6s10.88 15.36 10.88 26.56-3.52 20.16-10.88 26.56c-7.36 6.4-16 9.6-25.92 9.6s-18.56-3.2-25.92-9.6c-7.36-6.4-10.88-15.36-10.88-26.56s3.52-20.16 10.88-26.56c7.36-6.4 16-9.6 25.92-9.6zM638.080 536.96h61.44v-216.96h-61.44v216.96zM335.040 40.96c58.56-6.080 117.76-8.96 176.96-8.96s118.080 2.88 176.96 8.96c0 0 0.32 0 0.64 0 109.44 13.12 216.64 120.32 229.44 230.080 11.84 117.44 11.84 236.48 0 354.24-13.12 109.44-120.32 216.64-230.080 229.44-117.44 11.84-236.48 11.84-354.24 0-109.44-13.12-216.64-120.32-229.44-230.080-11.84-117.44-11.84-236.48 0-354.24 13.12-109.44 120.32-216.64 230.080-229.44zM168.64 617.92c9.6 79.68 93.76 164.16 173.12 173.44 56.64 5.76 113.6 8.64 170.56 8.64s113.6-2.88 169.6-8.64c79.68-9.6 164.16-93.76 173.44-173.12 11.52-112.96 11.52-227.84 0-340.16-9.6-79.68-93.76-163.84-173.44-173.44-112.96-11.52-227.52-11.52-339.84 0-79.68 9.6-164.16 93.76-173.44 173.12-11.52 112.96-11.52 227.84 0 340.16z" />
<glyph unicode="&#xe903;" glyph-name="airplay" data-tags="airplay" d="M211.52 160.96h44.8c17.6 0 32 14.4 32 32s-14.4 32-32 32h-44.8c-28.48 0-51.52 23.040-51.52 51.52v430.4c0 28.48 23.040 51.52 51.52 51.52h600.64c28.48 0 51.52-23.040 51.52-51.52v-430.080c0-28.48-23.040-51.52-51.52-51.52h-44.48c-17.6 0-32-14.4-32-32s14.4-32 32-32h44.48c63.68 0 115.52 51.84 115.52 115.52v430.080c0 63.68-51.84 115.52-115.52 115.52h-600.64c-63.68 0-115.52-51.84-115.52-115.52v-430.080c0-63.68 51.84-115.52 115.52-115.52zM390.72 74.56h242.56c11.84 0 23.040 6.72 28.48 17.28s4.48 23.36-2.24 33.28l-121.28 170.88c-12.16 16.96-40.32 16.96-52.16 0l-121.28-170.88c-7.040-9.6-7.68-22.72-2.24-33.28s16.32-17.28 28.48-17.28z" />
<glyph unicode="&#xe904;" glyph-name="anchor" data-tags="anchor" d="M896 480h-85.44c-17.6 0-32-14.4-32-32s14.4-32 32-32h51.84c-15.36-168.64-149.76-303.040-318.4-318.4v536.64c48.96 14.080 85.44 58.88 85.44 112.32 0 64.64-52.8 117.44-117.44 117.44s-117.44-52.48-117.44-117.44c0-53.44 36.16-98.24 85.44-112.32v-536.96c-168.64 15.36-303.040 149.76-318.4 318.4h51.84c17.6 0 32 14.4 32 32s-14.4 32-32 32h-85.44c-17.6 0-32-14.4-32-32 0-229.44 186.56-416 416-416s416 186.56 416 416c0 17.6-14.4 32-32 32zM458.56 746.56c0 29.44 24 53.44 53.44 53.44s53.44-24 53.44-53.44-24-53.44-53.44-53.44-53.44 24-53.44 53.44z" />
<glyph unicode="&#xe905;" glyph-name="android" data-tags="android" d="M266.56 532.48v-255.68c0-53.44 36.16-98.24 85.44-112v-100.8c0-17.6 14.4-32 32-32s32 14.4 32 32v96h192v-96c0-17.6 14.4-32 32-32s32 14.4 32 32v100.8c48.96 13.76 85.44 58.56 85.44 112v300.16c0 70.080-29.76 133.44-77.12 178.24l31.040 61.76c8 15.68 1.6 34.88-14.080 42.88s-34.88 1.6-42.88-14.080l-26.56-52.48c-34.56 18.56-73.92 29.12-115.52 29.12s-81.28-10.56-115.84-29.12l-26.24 52.48c-8 15.68-27.2 22.080-42.88 14.4-15.68-8-22.080-27.2-14.4-42.88l31.040-62.080c-47.36-44.8-77.12-107.84-77.12-178.24v-42.88s0-0.64 0-0.96 0-0.64 0-0.96zM640.32 224h-256.64c-29.12 0-53.12 23.68-53.12 53.12v224.32h362.56v-224.32c0-29.12-23.68-53.12-53.12-53.12zM512 758.4c42.24 0 80.96-14.72 111.68-38.72 0.64-0.32 1.28-0.96 1.92-1.6 0 0 0 0 0 0 41.28-33.28 67.52-84.16 67.52-141.12v-11.84h-362.56v11.84c0 99.84 81.28 181.44 181.44 181.44zM896 331.2c17.6 0 32 14.4 32 32v170.24c0 17.6-14.4 32-32 32s-32-14.4-32-32v-170.24c0-17.6 14.4-32 32-32zM128 331.2c17.6 0 32 14.4 32 32v170.24c0 17.6-14.4 32-32 32s-32-14.4-32-32v-170.24c0-17.6 14.4-32 32-32z" />
<glyph unicode="&#xe906;" glyph-name="apple" data-tags="apple" d="M511.68 682.56c3.2 0 6.72 0.64 9.92 1.6 33.6 10.88 62.4 28.48 85.76 51.84s40.96 52.48 51.84 85.76c3.84 11.52 0.64 24-7.68 32.64-8.64 8.64-21.12 11.52-32.64 7.68-33.28-10.88-62.4-28.48-85.76-51.84-23.68-23.68-40.96-52.48-51.84-85.76-3.84-11.52-0.64-24 7.68-32.64 6.080-6.080 14.4-9.28 22.72-9.28zM459.84 52.8c32.32 17.6 72.64 17.6 104.96 0 25.92-14.080 54.72-20.8 82.88-20.8 46.080 0 91.2 17.6 123.2 51.2 62.4 65.6 102.72 153.92 113.92 248.64 1.28 10.56-2.88 21.44-11.2 28.16-8.32 7.040-19.52 9.28-29.76 6.080-11.2-3.2-21.44-5.12-31.040-5.12-53.44 0-96.96 37.44-96.96 83.84s43.52 83.52 96.32 83.52v0s4.48-0.32 5.44-0.64c11.84 0 22.080 5.12 28.48 14.72 6.080 9.6 6.72 21.76 1.6 32-46.72 90.88-171.84 125.12-272.96 74.56-40.32-20.16-89.6-19.2-128.96 1.92-50.24 27.2-110.4 31.68-165.12 12.48-50.56-17.92-90.56-54.72-110.080-101.12-23.36-55.36-34.88-114.56-34.88-176.32 0-115.84 41.92-223.68 117.44-303.68 51.52-54.4 138.24-67.2 206.080-30.72zM230.080 538.24c12.48 29.76 38.72 53.44 72.32 65.28 37.44 13.12 78.72 10.24 113.28-8.32 57.28-31.040 129.6-32 188.16-2.88 52.48 26.24 113.6 21.12 154.24-8.32-61.44-20.8-105.6-75.2-105.6-138.56 0-81.28 72.32-147.84 160.96-147.84h1.28c-15.040-64.96-46.080-124.16-89.6-170.24-31.68-33.28-87.36-41.28-129.28-18.24-25.6 13.76-54.080 20.8-82.88 20.8s-57.28-7.040-82.88-20.8c-42.24-22.72-97.92-15.040-129.28 18.24-64.32 67.84-99.84 160-99.84 259.52 0 53.12 10.24 104 30.080 151.36z" />
<glyph unicode="&#xe907;" glyph-name="apple-fruit" data-tags="apple-fruit" d="M505.28 65.92l6.4 3.52 2.56-1.6c41.28-24.64 87.040-36.8 132.16-36.8 72.96 0 144 31.36 191.040 90.24 59.2 74.24 90.56 163.84 90.56 258.88 0 29.44-3.2 58.88-9.28 87.36-16 75.2-62.4 137.92-130.56 176.64-6.72 3.84-13.44 7.040-20.48 10.24 44.8 28.48 74.56 78.080 74.56 134.72v42.56c0 17.6-14.4 32-32 32h-170.56c-57.6 0-107.84-31.040-136-76.8-37.12 46.72-94.4 76.8-158.4 76.8-17.6 0-32-14.4-32-32s14.4-32 32-32c65.28 0 119.68-45.44 134.4-106.24v-30.72l-12.48 4.16c-77.12 25.6-161.6 17.28-232-23.040-68.16-38.72-114.24-101.76-130.56-176.64-6.080-28.48-9.28-57.92-9.28-87.36 0-89.28 27.84-174.080 80.64-245.76 75.84-103.040 217.28-132.48 328.96-68.48zM544 704c0 52.8 43.2 96 96 96h138.56v-10.56c0-52.8-43.2-96-96-96h-137.28c-0.64 2.88-0.96 6.080-1.28 8.96v1.6zM167.68 454.080c12.16 56.96 47.68 104.96 99.52 134.4 54.72 31.36 120.32 37.76 179.84 17.92l54.72-18.24c6.72-2.24 13.76-2.24 20.16 0l54.72 18.24c59.52 19.84 125.12 13.44 179.84-17.92 51.84-29.76 87.36-77.44 99.52-134.4 5.12-24 7.68-48.96 7.68-73.92 0-80.64-26.56-156.16-76.8-218.88-56.32-70.4-159.36-87.040-240-38.4l-18.88 11.2c-9.92 6.080-22.4 6.080-32.32 0.32l-22.72-12.8c-83.52-47.68-189.12-25.92-245.44 50.88-44.48 60.48-68.16 132.48-68.16 208 0 24.96 2.56 49.92 7.68 73.92zM398.080 305.6c5.76-11.2 16.96-17.6 28.8-17.6 4.8 0 9.6 0.96 14.4 3.52 15.68 8 22.080 27.2 14.4 42.88l-42.56 85.44c-8 15.68-27.2 22.080-42.88 14.4s-22.080-27.2-14.4-42.88l42.56-85.44zM583.040 291.2c4.48-2.24 9.6-3.52 14.4-3.52 11.84 0 23.040 6.4 28.8 17.6l42.56 85.44c8 15.68 1.6 34.88-14.4 42.88-15.68 8-34.88 1.6-42.88-14.4l-42.56-85.44c-8-15.68-1.6-34.88 14.4-42.88z" />
<glyph unicode="&#xe908;" glyph-name="archive" data-tags="archive" d="M810.56 864h-597.12c-64.64 0-117.44-52.8-117.44-117.44v-85.12c0-36.16 16.96-68.16 42.56-89.92v-379.52c0-88.64 72.32-160.96 160.96-160.96h424.64c88.64 0 160.96 72.32 160.96 160.96v379.52c25.92 21.44 42.56 53.76 42.56 89.92v85.12c0 64.64-52.8 117.44-117.44 117.44zM160 746.56c0 29.44 24 53.44 53.44 53.44h597.12c29.44 0 53.44-24 53.44-53.44v-85.12c0-29.44-23.68-53.12-53.12-53.44h-597.76c-29.44 0-53.12 24-53.12 53.44v85.12zM821.44 544v-351.68c0-53.44-43.52-96.96-96.96-96.96h-424.64c-53.44 0-96.96 43.52-96.96 96.96v351.68h10.56s0 0 0 0h597.12s0 0 0 0h10.56zM597.44 437.44h-170.56c-17.6 0-32-14.4-32-32s14.4-32 32-32h170.56c17.6 0 32 14.4 32 32s-14.4 32-32 32z" />
<glyph unicode="&#xe909;" glyph-name="arrow-circling-two" data-tags="arrow-circling-two" d="M150.4 365.76l43.2 43.2c13.44-162.88 149.76-291.52 316.16-291.52 84.8 0 164.48 32.96 224.64 93.12 12.48 12.48 12.48 32.64 0 45.12s-32.64 12.48-45.12 0c-48-48-111.68-74.24-179.2-74.24-129.92 0-237.12 98.24-251.84 224.32l40-40c6.4-6.4 14.4-9.28 22.72-9.28s16.32 3.2 22.72 9.28c12.48 12.48 12.48 32.64 0 45.12l-96.64 96.64c-12.48 12.48-32.64 12.48-45.12 0l-96.64-96.64c-12.48-12.48-12.48-32.64 0-45.12s32.64-12.48 45.12 0zM334.4 640.32c48 48 111.68 74.24 179.2 74.24 129.92 0 237.12-98.24 251.84-224.32l-40.32 40.32c-12.48 12.48-32.64 12.48-45.12 0s-12.48-32.64 0-45.12l96.64-96.64c6.4-6.4 14.4-9.28 22.72-9.28s16.32 3.2 22.72 9.28l96.64 96.64c12.48 12.48 12.48 32.64 0 45.12s-32.64 12.48-45.12 0l-43.2-43.2c-13.44 162.88-149.76 291.52-316.16 291.52-84.8 0-164.48-32.96-224.64-93.12-12.48-12.48-12.48-32.64 0-45.12s32.64-12.48 45.12 0z" />
<glyph unicode="&#xe90a;" glyph-name="arrow-down" data-tags="arrow-down" d="M489.28 212.16c6.080-6.080 14.080-9.28 22.72-9.28s16.64 3.52 22.72 9.28l127.68 127.68c12.48 12.48 12.48 32.64 0 45.12s-32.64 12.48-45.12 0l-73.28-73.28v349.44c0 17.6-14.4 32-32 32s-32-14.4-32-32v-349.44l-73.28 73.28c-12.48 12.48-32.64 12.48-45.12 0s-12.48-32.64 0-45.12l128-127.68z" />
<glyph unicode="&#xe90b;" glyph-name="arrow-down-simple" data-tags="arrow-down-simple" d="M489.28 350.080c6.080-6.080 14.080-9.28 22.72-9.28s16.64 3.52 22.72 9.28l127.68 127.68c12.48 12.48 12.48 32.64 0 45.12s-32.64 12.48-45.12 0l-105.28-105.28-105.28 105.28c-12.48 12.48-32.64 12.48-45.12 0s-12.48-32.64 0-45.12l127.68-127.68z" />
<glyph unicode="&#xe90c;" glyph-name="arrow-down-square" data-tags="arrow-down-square" d="M335.040 40.96c58.56-6.080 117.76-8.96 176.96-8.96s118.080 2.88 176.96 8.96c0 0 0.32 0 0.64 0 109.44 13.12 216.64 120.32 229.44 230.080 11.84 117.44 11.84 236.48 0 354.24-13.12 109.44-120.32 216.64-230.080 229.44-117.44 12.16-236.48 11.84-354.24 0-109.44-13.12-216.64-120.32-229.44-230.080-11.84-117.44-11.84-236.48 0-354.24 13.12-109.44 120.32-216.64 230.080-229.44zM168.64 617.92c9.6 79.68 93.76 164.16 173.12 173.44 56.64 5.76 113.6 8.64 170.56 8.64s113.6-2.88 169.6-8.64c79.68-9.6 164.16-93.76 173.44-173.12 11.52-112.96 11.52-227.84 0-340.16-9.6-79.68-93.76-163.84-173.44-173.44-112.96-11.52-227.52-11.52-339.84 0-79.68 9.6-164.16 93.76-173.44 173.12-11.52 112.96-11.52 227.84 0 340.16zM489.28 350.080c6.080-6.080 14.080-9.28 22.72-9.28s16.64 3.52 22.72 9.28l127.68 127.68c12.48 12.48 12.48 32.64 0 45.12s-32.64 12.48-45.12 0l-105.28-105.28-105.28 105.28c-12.48 12.48-32.64 12.48-45.12 0s-12.48-32.64 0-45.12l127.68-127.68z" />
<glyph unicode="&#xe90d;" glyph-name="arrow-fullscreen" data-tags="arrow-fullscreen" d="M256 160h180.8c17.6 0 32 14.4 32 32s-14.4 32-32 32h-103.68l402.56 402.56v-103.68c0-17.6 14.4-32 32-32s32 14.4 32 32v180.8c0 17.6-14.4 32-32 32h-180.8c-17.6 0-32-14.4-32-32s14.4-32 32-32h103.68l-155.84-155.84s0 0 0 0l-91.52-91.52s0 0 0 0l-155.52-155.84v103.68c0 17.6-14.4 32-32 32s-32-14.4-32-32v-180.8c0-17.6 14.4-32 32-32z" />
<glyph unicode="&#xe90e;" glyph-name="arrow-left" data-tags="arrow-left" d="M403.84 297.6c6.4-6.4 14.4-9.28 22.72-9.28s16.32 3.2 22.72 9.28c12.48 12.48 12.48 32.64 0 45.12l-73.28 73.28h349.44c17.6 0 32 14.4 32 32s-14.4 32-32 32h-349.44l73.28 73.28c12.48 12.48 12.48 32.64 0 45.12s-32.64 12.48-45.12 0l-127.68-127.68c-12.48-12.48-12.48-32.64 0-45.12l127.68-127.68z" />
<glyph unicode="&#xe90f;" glyph-name="arrow-left-simple" data-tags="arrow-left-simple" d="M531.84 297.6c6.4-6.4 14.4-9.28 22.72-9.28s16.32 3.2 22.72 9.28c12.48 12.48 12.48 32.64 0 45.12l-105.28 105.28 105.28 105.28c12.48 12.48 12.48 32.64 0 45.12s-32.64 12.48-45.12 0l-127.68-127.68c-12.48-12.48-12.48-32.64 0-45.12l127.68-127.68z" />
<glyph unicode="&#xe910;" glyph-name="arrow-left-square" data-tags="arrow-left-square" d="M335.040 40.96c58.56-6.080 117.76-8.96 176.96-8.96s118.080 2.88 176.96 8.96c0 0 0.32 0 0.64 0 109.44 13.12 216.64 120.32 229.44 230.080 11.84 117.44 11.84 236.48 0 354.24-13.12 109.44-120.32 216.64-230.080 229.44-117.44 12.16-236.48 11.84-354.24 0-109.44-13.12-216.64-120.32-229.44-230.080-11.84-117.44-11.84-236.48 0-354.24 13.12-109.44 120.32-216.64 230.080-229.44zM168.64 617.92c9.6 79.68 93.76 164.16 173.12 173.44 56.64 5.76 113.6 8.64 170.56 8.64s113.6-2.88 169.6-8.64c79.68-9.6 164.16-93.76 173.44-173.12 11.52-112.96 11.52-227.84 0-340.16-9.6-79.68-93.76-163.84-173.44-173.44-112.96-11.52-227.52-11.52-339.84 0-79.68 9.6-164.16 93.76-173.44 173.12-11.52 112.96-11.52 227.84 0 340.16zM531.84 297.6c6.4-6.4 14.4-9.28 22.72-9.28s16.32 3.2 22.72 9.28c12.48 12.48 12.48 32.64 0 45.12l-105.28 105.28 105.28 105.28c12.48 12.48 12.48 32.64 0 45.12s-32.64 12.48-45.12 0l-127.68-127.68c-12.48-12.48-12.48-32.64 0-45.12l127.68-127.68z" />
<glyph unicode="&#xe911;" glyph-name="arrow-response" data-tags="arrow-response" d="M170.56 288h180.8c17.6 0 32 14.4 32 32s-14.4 32-32 32h-103.68l329.28 329.28c12.48 12.48 12.48 32.64 0 45.12s-32.64 12.48-45.12 0l-329.28-329.28v103.68c0 17.6-14.4 32-32 32s-32-14.4-32-32v-180.8c0-17.6 14.4-32 32-32zM672.64 501.44h103.68l-286.72-286.72c-12.48-12.48-12.48-32.64 0-45.12 6.4-6.4 14.4-9.28 22.72-9.28s16.32 3.2 22.72 9.28l286.72 286.72v-103.68c0-17.6 14.4-32 32-32s32 14.4 32 32v180.8c0 17.6-14.4 32-32 32h-180.8c-17.6 0-32-14.4-32-32s14.4-32 32-32z" />
<glyph unicode="&#xe912;" glyph-name="arrow-right" data-tags="arrow-right" d="M266.56 448c0-17.6 14.4-32 32-32h349.44l-73.28-73.28c-12.48-12.48-12.48-32.64 0-45.12 6.4-6.4 14.4-9.28 22.72-9.28s16.32 3.2 22.72 9.28l127.68 127.68c12.48 12.48 12.48 32.64 0 45.12l-127.68 127.68c-12.48 12.48-32.64 12.48-45.12 0s-12.48-32.64 0-45.12l73.28-73.28h-349.44c-17.6 0-32-14.4-32-32z" />
<glyph unicode="&#xe913;" glyph-name="arrow-right-simple" data-tags="arrow-right-simple" d="M446.72 297.6c6.4-6.4 14.4-9.28 22.72-9.28s16.32 3.2 22.72 9.28l127.68 127.68c12.48 12.48 12.48 32.64 0 45.12l-127.68 127.68c-12.48 12.48-32.64 12.48-45.12 0s-12.48-32.64 0-45.12l105.28-105.28-105.28-105.28c-12.48-12.48-12.48-32.64 0-45.12z" />
<glyph unicode="&#xe914;" glyph-name="arrow-right-square" data-tags="arrow-right-square" d="M335.040 40.96c58.56-6.080 117.76-8.96 176.96-8.96s118.080 2.88 176.96 8.96h0.64c109.44 13.12 216.64 120.32 229.76 230.080 11.84 117.44 11.84 236.48 0 354.24-13.12 109.44-120.32 216.64-230.080 229.44-117.44 11.84-236.48 11.84-354.24 0-109.44-13.12-216.64-120.32-229.44-230.080-11.84-117.44-11.84-236.48 0-354.24 13.12-109.44 120.32-216.64 230.080-229.44zM168.64 617.92c9.6 79.68 93.76 164.16 173.12 173.44 56.64 5.76 113.6 8.64 170.56 8.64s113.6-2.88 169.6-8.64c79.68-9.6 164.16-93.76 173.44-173.12 11.52-112.96 11.52-227.84 0-340.16-9.6-79.68-93.76-163.84-173.44-173.44-112.96-11.52-227.52-11.52-339.84 0-79.68 9.6-164.16 93.76-173.44 173.12-11.52 112.96-11.52 227.84 0 340.16zM446.72 297.6c6.4-6.4 14.4-9.28 22.72-9.28s16.32 3.2 22.72 9.28l127.68 127.68c12.48 12.48 12.48 32.64 0 45.12l-127.68 127.68c-12.48 12.48-32.64 12.48-45.12 0s-12.48-32.64 0-45.12l105.28-105.28-105.28-105.28c-12.48-12.48-12.48-32.64 0-45.12z" />
<glyph unicode="&#xe915;" glyph-name="arrow-rotate-ccw" data-tags="arrow-rotate-ccw" d="M149.12 425.28s2.88-1.92 4.48-2.88c2.24-1.6 4.48-3.2 7.040-4.16 3.52-1.6 7.36-2.24 11.52-2.24 0 0 0 0 0 0s0 0 0 0 0.32 0 0.64 0c8.32 0 16 3.2 22.080 9.28 5.12 5.12 8 12.16 8.64 19.2 0 1.28 0.64 2.24 0.64 3.52 0 170.56 138.88 309.44 309.44 309.44 68.16 0 134.080-22.72 187.84-63.68h-102.4c-17.6 0-32-14.4-32-32s14.4-32 32-32h170.56c17.6 0 32 14.4 32 32v170.56c0 17.6-14.4 32-32 32s-32-14.4-32-32v-85.76c-64.32 48.32-142.72 74.88-224 74.88-205.76 0-373.12-167.36-373.44-373.12 0 0 0 0 0 0 0-4.48 0.96-8.64 2.56-12.48 0-0.64 0.64-0.96 0.96-1.6 1.6-3.2 3.2-6.4 5.76-8.96zM827.84 311.36c-15.68 8.32-35.2 2.88-43.52-12.48-8.64-15.68-2.88-35.2 12.48-43.52 4.8-2.88 10.24-4.16 15.36-4.16 11.2 0 22.4 6.080 28.16 16.64 8.32 15.36 2.88 34.88-12.48 43.52zM608.64 153.6c-16.64-5.44-25.92-23.36-20.48-40.32 4.48-13.44 16.96-22.080 30.4-22.080 3.2 0 6.72 0.64 9.92 1.6 16.64 5.44 25.92 23.36 20.48 40.32-5.44 16.64-23.36 25.92-40.32 20.48zM242.56 237.76c-13.12-12.16-13.76-32.32-1.6-45.44 6.4-6.72 15.040-9.92 23.36-9.92s15.68 2.88 22.080 8.64c12.8 12.16 13.44 32.32 1.28 45.12-12.16 13.12-32.32 13.76-45.12 1.6zM338.88 152.64c-7.68-16-0.64-34.88 15.36-42.56 4.16-1.92 8.96-2.88 13.44-2.88 12.16 0 23.68 6.72 29.12 18.24 7.36 16 0.64 35.2-15.36 42.56-16 7.68-35.2 0.64-42.56-15.36zM755.2 205.12c-11.2 13.76-31.36 15.68-45.12 4.48-13.44-11.52-15.36-31.68-4.16-45.12 6.4-7.68 15.68-11.52 24.64-11.52 7.36 0 14.4 2.24 20.48 7.36v0c13.76 11.2 15.68 31.36 4.16 44.8zM459.84 109.44c-1.28-17.6 12.16-32.96 29.76-34.24h2.24c16.64 0 30.72 13.12 31.68 30.080 1.28 17.6-12.16 32.96-29.76 33.92-17.92 1.28-32.96-12.16-33.92-29.76zM207.68 292.48c16.32 6.4 24.32 25.28 17.92 41.6-6.72 16.32-25.28 24.32-41.6 17.92s-24.64-24.96-17.92-41.6c4.8-12.48 16.96-20.16 29.76-20.16 3.84 0 8 0.64 11.84 2.24zM874.56 427.84c-8.64 8.96-23.040 11.84-34.88 7.040-3.84-1.6-7.36-3.84-10.24-7.040-3.2-2.88-5.44-6.4-7.040-10.24s-2.56-8-2.56-12.16c0-4.48 0.96-8.64 2.56-12.48s3.84-7.36 7.040-10.24c6.080-6.080 14.080-9.28 22.72-9.28s16.32 3.2 22.4 9.28c3.2 2.88 5.44 6.4 7.040 10.24s2.56 8 2.56 12.48c0 4.16-0.96 8.32-2.56 12.16s-4.16 7.36-7.040 10.24z" />
<glyph unicode="&#xe916;" glyph-name="arrow-rotate-cw" data-tags="arrow-rotate-cw" d="M294.4 152.64c9.28 0 18.56 4.16 24.64 11.84 11.52 13.44 9.6 33.6-4.16 45.12-13.76 11.2-33.92 9.28-45.12-4.48-11.2-13.44-9.28-33.92 4.48-45.12 5.76-4.8 13.12-7.36 20.16-7.36zM184.96 267.84c5.76-10.56 16.64-16.64 27.84-16.64 5.44 0 10.56 1.28 15.68 4.16 15.36 8.32 20.8 27.84 12.48 43.52-8.64 15.36-28.16 20.8-43.52 12.48-15.36-8.64-21.12-28.16-12.48-43.52zM657.6 107.2c4.48 0 8.96 0.96 13.44 2.88 16 7.68 22.72 26.56 15.36 42.56-7.68 16-26.88 23.040-42.56 15.36-16-7.36-23.040-26.56-15.36-42.56 5.44-11.52 16.96-18.24 29.12-18.24zM406.72 91.2c13.44 0 25.92 8.64 30.4 22.080 5.44 16.96-3.84 34.88-20.48 40.32-16.96 5.44-34.88-3.84-40.32-20.48-5.44-16.96 3.52-34.88 20.48-40.32 3.2-0.96 6.4-1.6 9.92-1.6zM829.44 290.24c12.8 0 24.64 7.68 29.76 20.16 6.4 16.64-1.6 35.2-17.92 41.6-16.64 6.4-35.2-1.6-41.6-17.92s1.6-35.2 17.92-41.6c3.84-1.6 8-2.24 11.84-2.24zM760.64 182.4c8.64 0 17.28 3.2 23.36 9.92 12.16 13.12 11.52 33.28-1.28 45.44s-33.28 11.52-45.12-1.6c-12.16-12.8-11.52-32.96 1.28-45.12 6.080-5.76 14.080-8.64 21.76-8.64zM535.36 75.52c17.92 0.96 31.36 16 30.080 33.92-0.96 17.6-16.32 31.040-33.92 29.76-17.6-0.96-31.040-16.32-30.080-33.92 1.28-16.96 15.36-30.080 32-30.080 0.64 0 1.28 0 1.92 0zM195.84 427.84c-11.84 12.16-33.28 12.16-45.12 0-3.2-2.88-5.44-6.4-7.040-10.24s-2.56-8-2.56-12.16c0-8.64 3.52-16.64 9.6-22.72 2.88-2.88 6.4-5.44 10.24-7.040s8-2.24 12.16-2.24c4.48 0 8.32 0.64 12.48 2.24 3.84 1.6 7.36 4.16 10.24 7.040 6.080 6.080 9.28 14.080 9.28 22.72 0 4.16-0.64 8.32-2.24 12.16s-4.16 7.36-7.040 10.24zM512 821.44c-81.28 0-159.68-26.56-224-74.88v85.76c0 17.6-14.4 32-32 32s-32-14.4-32-32v-170.56c0-17.6 14.4-32 32-32h170.56c17.6 0 32 14.4 32 32s-14.4 32-32 32h-102.4c53.76 41.28 119.68 63.68 187.84 63.68 170.56 0 309.44-138.88 309.44-309.44 0-8.32 3.2-15.68 8.32-21.12 0.32-0.32 0.64-0.96 0.96-1.6 0.96-0.96 2.56-1.6 3.52-2.56 5.44-4.16 11.84-6.72 18.88-6.72 0 0 0 0 0 0s0 0 0 0c8.32 0 16.64 3.2 22.4 9.28 0 0 0 0 0 0 2.24 2.24 3.84 4.8 5.12 7.68 2.56 4.48 4.48 9.6 4.48 15.040 0 0 0 0.64 0 0.64-0.32 205.44-167.68 372.48-373.44 372.48z" />
<glyph unicode="&#xe917;" glyph-name="arrow-sync" data-tags="arrow-sync" d="M232.96 126.72c6.4-6.4 14.4-9.28 22.72-9.28s16.32 3.2 22.72 9.28l127.68 127.68c12.48 12.48 12.48 32.64 0 45.12s-32.64 12.48-45.12 0l-73.28-73.28v392.96c0 52.48 42.88 95.36 95.36 95.36h43.2c17.6 0 32 14.4 32 32s-14.4 32-32 32h-43.2c-88 0-159.36-71.36-159.36-159.36v-392.96l-73.28 73.28c-12.48 12.48-32.64 12.48-45.12 0s-12.48-32.64 0-45.12l127.68-127.68zM640.64 181.44h-43.2c-17.6 0-32-14.4-32-32s14.4-32 32-32h43.2c88 0 159.36 71.36 159.36 159.36v392.64l73.28-73.28c6.4-6.4 14.4-9.28 22.72-9.28s16.32 3.2 22.72 9.28c12.48 12.48 12.48 32.64 0 45.12l-127.68 127.68c-12.48 12.48-32.64 12.48-45.12 0l-127.68-127.68c-12.48-12.48-12.48-32.64 0-45.12s32.64-12.48 45.12 0l73.28 73.28v-392.64c0-52.48-42.88-95.36-95.36-95.36z" />
<glyph unicode="&#xe918;" glyph-name="arrow-up" data-tags="arrow-up" d="M512 202.56c17.6 0 32 14.4 32 32v349.44l73.28-73.28c6.4-6.4 14.4-9.28 22.72-9.28s16.32 3.2 22.72 9.28c12.48 12.48 12.48 32.64 0 45.12l-127.68 127.68c-12.48 12.48-32.64 12.48-45.12 0l-127.68-127.68c-12.48-12.48-12.48-32.64 0-45.12s32.64-12.48 45.12 0l73.28 73.28v-349.44c0-17.6 14.4-32 32-32z" />
<glyph unicode="&#xe919;" glyph-name="arrow-up-down-simple" data-tags="arrow-up-down-simple" d="M406.72 511.040l105.28 105.28 105.28-105.28c6.4-6.4 14.4-9.28 22.72-9.28s16.32 3.2 22.72 9.28c12.48 12.48 12.48 32.64 0 45.12l-127.68 127.68c-12.48 12.48-32.64 12.48-45.12 0l-127.68-127.68c-12.48-12.48-12.48-32.64 0-45.12s32.64-12.48 45.12 0zM361.6 339.84l127.68-127.68c6.4-6.4 14.4-9.28 22.72-9.28s16.32 3.2 22.72 9.28l127.68 127.68c12.48 12.48 12.48 32.64 0 45.12s-32.64 12.48-45.12 0l-105.28-105.28-105.28 105.28c-12.48 12.48-32.64 12.48-45.12 0s-12.48-32.64 0-45.12z" />
<glyph unicode="&#xe91a;" glyph-name="arrow-up-simple" data-tags="arrow-up-simple" d="M361.6 383.040c12.48-12.48 32.64-12.48 45.12 0l105.28 105.28 105.28-105.28c6.4-6.4 14.4-9.28 22.72-9.28s16.32 3.2 22.72 9.28c12.48 12.48 12.48 32.64 0 45.12l-127.68 127.68c-12.48 12.48-32.64 12.48-45.12 0l-127.68-127.68c-12.48-12.48-12.48-32.64 0-45.12z" />
<glyph unicode="&#xe91b;" glyph-name="arrow-up-square" data-tags="arrow-up-square" d="M104.96 270.72c13.12-109.44 120.32-216.64 230.080-229.44 58.56-6.080 117.76-8.96 176.96-8.96s118.080 2.88 176.96 8.96h0.64c109.44 13.12 216.64 120.32 229.76 230.080 11.84 117.44 11.84 236.48 0 354.24-13.12 109.44-120.32 216.64-230.080 229.44-117.44 11.84-236.48 11.84-354.24 0-109.44-13.12-216.64-120.32-229.44-230.080-11.84-117.44-11.84-236.48 0-354.24zM168.64 617.92c9.6 79.68 93.76 164.16 173.12 173.44 56.64 5.76 113.6 8.64 170.56 8.64s113.6-2.88 169.6-8.64c79.68-9.6 164.16-93.76 173.44-173.12 11.52-112.96 11.52-227.84 0-340.16-9.6-79.68-93.76-163.84-173.44-173.44-112.96-11.52-227.52-11.52-339.84 0-79.68 9.6-164.16 93.76-173.44 173.12-11.52 112.96-11.52 227.84 0 340.16zM406.72 383.040l105.28 105.28 105.28-105.28c6.4-6.4 14.4-9.28 22.72-9.28s16.32 3.2 22.72 9.28c12.48 12.48 12.48 32.64 0 45.12l-127.68 127.68c-12.48 12.48-32.64 12.48-45.12 0l-127.68-127.68c-12.48-12.48-12.48-32.64 0-45.12s32.64-12.48 45.12 0z" />
<glyph unicode="&#xe91c;" glyph-name="at" data-tags="at" d="M512 32c64.96 0 127.040 14.72 184.96 43.2 15.68 8 22.4 27.2 14.4 42.88s-27.2 22.4-42.88 14.4c-48.96-24.32-101.44-36.48-156.48-36.48-194.24 0-352 158.080-352 352s157.76 352 352 352 352-158.080 352-352v-64c0-41.28-33.6-74.56-74.56-74.56s-74.56 33.6-74.56 74.56v234.56c0 17.6-14.4 32-32 32s-32-14.4-32-32v-23.36c-36.16 34.24-85.12 55.36-138.56 55.36-111.68 0-202.56-90.88-202.56-202.56s90.88-202.56 202.56-202.56c62.72 0 118.72 28.48 155.84 73.28 23.36-43.52 68.8-73.28 121.6-73.28 76.48 0 138.56 62.080 138.56 138.56v64c0 229.44-186.56 416-416 416s-416.32-186.56-416.32-416 186.56-416 416-416zM512 309.44c-76.48 0-138.56 62.080-138.56 138.56s62.080 138.56 138.56 138.56 138.56-62.080 138.56-138.56-62.080-138.56-138.56-138.56z" />
<glyph unicode="&#xe91d;" glyph-name="atm" data-tags="atm" d="M811.2 821.44h-598.4c-64.32 0-116.8-52.48-116.8-116.8v-214.4c0-64.32 52.48-116.8 116.8-116.8h11.2v-180.8c0-65.28 53.12-118.080 118.080-118.080h339.84c65.28 0 118.080 53.12 118.080 118.080v180.8h11.2c64.32 0 116.8 52.48 116.8 116.8v214.4c0 64.32-52.48 116.8-116.8 116.8zM288 192.32v308.8h234.56v-363.2h-180.48c-29.76 0-54.080 24.32-54.080 54.080zM736 192.32c0-29.76-24.32-54.080-54.080-54.080h-95.040v363.2h149.44v-308.8zM864 489.92c0-29.12-23.68-52.8-52.8-52.8h-11.2v96c0 17.6-14.4 32-32 32h-512c-17.6 0-32-14.4-32-32v-96h-11.2c-29.12 0-52.8 23.68-52.8 52.8v214.4c0 29.12 23.68 52.8 52.8 52.8h598.72c29.12 0 52.8-23.68 52.8-52.8v-214.4z" />
<glyph unicode="&#xe91e;" glyph-name="avocado" data-tags="avocado" d="M393.6 33.92c10.56-0.96 21.12-1.6 31.68-1.6 86.72 0 169.92 34.24 232 96.32 43.52 43.52 73.92 98.56 87.68 158.4 8.32 36.48 24.64 72.64 48.96 107.52l96.96 140.16c57.6 83.2 47.36 195.84-24 267.52-71.68 71.68-184 81.92-267.52 24l-136-94.080c-38.72-26.88-74.88-43.52-110.72-51.84-83.84-18.88-156.16-69.44-204.16-142.72-70.4-107.84-69.44-252.16 2.88-359.040 56-82.88 144.32-135.68 242.24-144.96zM201.92 502.72c38.72 59.2 96.96 100.16 164.48 115.2 44.16 9.92 87.68 30.080 133.44 61.44l136 94.080c25.28 17.28 54.080 25.92 82.88 25.92 37.44 0 74.88-14.4 103.040-42.56 49.6-49.92 56.64-128 16.64-185.6l-96.96-140.16c-28.8-41.6-48.64-85.44-58.88-129.92-10.88-48.32-35.2-92.48-70.4-127.36-56-56-133.44-83.52-212.16-76.16s-150.080 50.24-195.52 117.12c-57.92 85.76-58.88 201.28-2.24 288zM426.56 202.56c40.96 0 81.92 15.68 113.28 46.72 62.4 62.4 62.4 163.84 0 226.24s-163.84 62.4-226.24 0c-30.080-30.080-46.72-70.4-46.72-113.28s16.64-82.88 46.72-113.28c31.040-31.36 72.32-46.72 113.28-46.72zM358.72 430.4c18.56 18.56 43.2 28.16 67.84 28.16s49.28-9.28 67.84-28.16c37.44-37.44 37.44-98.24 0-135.68s-98.24-37.44-135.68 0c-18.24 18.24-28.16 42.24-28.16 67.84s9.92 49.6 28.16 67.84z" />
<glyph unicode="&#xe91f;" glyph-name="backward" data-tags="backward" d="M928.64 635.84c0 33.6-18.56 64-48.32 79.68-29.76 15.36-65.28 13.12-92.8-6.080l-242.88-169.92v96.32c0 33.6-18.56 64-48.32 79.68-29.76 15.36-65.28 13.12-92.8-6.080l-268.8-187.84c-24-16.64-38.4-44.16-38.4-73.6s14.4-56.64 38.4-73.6v0s268.8-187.84 268.8-187.84c15.36-10.88 33.28-16.32 51.52-16.32 14.080 0 28.48 3.52 41.6 10.24 29.76 15.36 48.32 46.080 48.32 79.68v96.32l242.88-169.92c15.36-10.88 33.28-16.32 51.2-16.32 14.080 0 28.48 3.52 41.6 10.24 29.76 15.36 48.32 46.080 48.32 79.68v376zM466.56 237.12c-4.16-2.24-15.040-6.4-26.56 1.6l-268.8 187.84c-7.040 4.8-10.88 12.48-10.88 21.12s3.84 16.32 10.88 21.12l268.8 187.84c11.52 8 22.4 3.84 26.56 1.6s13.76-8.64 13.76-22.72v-186.24s0-1.28 0-1.92 0-1.28 0-1.92v-186.24c0-14.080-9.6-20.8-13.76-22.72zM864.64 260.16c0-14.080-9.6-20.8-13.76-22.72s-15.040-6.4-26.56 1.6l-268.8 187.84c-6.72 4.8-10.56 12.16-10.88 20.16v1.92c0 8 4.16 15.36 10.88 20.16l268.8 187.84c11.52 8 22.4 3.84 26.56 1.6s13.76-8.64 13.76-22.72v-376z" />
<glyph unicode="&#xe920;" glyph-name="backward-5-sec" data-tags="backward-5-sec" d="M554.56 778.56h-349.44l30.72 30.72c12.48 12.48 12.48 32.64 0 45.12s-32.64 12.48-45.12 0l-85.44-85.44c-12.48-12.48-12.48-32.64 0-45.12l85.44-85.44c6.4-6.4 14.4-9.28 22.72-9.28s16.32 3.2 22.72 9.28c12.48 12.48 12.48 32.64 0 45.12l-30.72 30.72h349.44c170.56 0 309.44-138.88 309.44-309.44s-138.88-309.44-309.44-309.44-309.44 138.88-309.44 309.44c0 17.6-14.4 32-32 32s-32-14.4-32-32c0-205.76 167.36-373.44 373.44-373.44s373.44 167.36 373.44 373.44-167.36 373.44-373.44 373.44zM554.56 309.44h-63.68c-17.6 0-32-14.4-32-32s14.4-32 32-32h63.68c52.8 0 96 43.2 96 96s-43.2 96-96 96h-31.68v65.28h95.68c17.6 0 32 14.4 32 32s-14.4 32-32 32h-127.68c-17.6 0-32-14.4-32-32v-129.28c0-17.6 14.4-32 32-32h63.68c17.6 0 32-14.4 32-32s-14.4-32-32-32z" />
<glyph unicode="&#xe921;" glyph-name="backward-10-sec" data-tags="backward-10-sec" d="M554.56 778.56h-349.44l30.72 30.72c12.48 12.48 12.48 32.64 0 45.12s-32.64 12.48-45.12 0l-85.44-85.44c-12.48-12.48-12.48-32.64 0-45.12l85.44-85.44c6.4-6.4 14.4-9.28 22.72-9.28s16.32 3.2 22.72 9.28c12.48 12.48 12.48 32.64 0 45.12l-30.72 30.72h349.44c170.56 0 309.44-138.88 309.44-309.44s-138.88-309.44-309.44-309.44-309.44 138.88-309.44 309.44c0 17.6-14.4 32-32 32s-32-14.4-32-32c0-205.76 167.36-373.44 373.44-373.44s373.44 167.36 373.44 373.44-167.36 373.44-373.44 373.44zM460.16 279.68v256c0 17.6-14.4 32-32 32s-32-14.4-32-32v-256c0-17.6 14.4-32 32-32s32 14.4 32 32zM682.24 245.44c17.6 0 32 14.4 32 32v257.28c0 17.6-14.4 32-32 32h-127.68c-17.6 0-32-14.4-32-32v-257.28c0-17.6 14.4-32 32-32h127.68zM586.56 502.4h63.68v-193.28h-63.68v193.28z" />
<glyph unicode="&#xe922;" glyph-name="backward-15-sec" data-tags="backward-15-sec" d="M190.72 638.72c6.4-6.4 14.4-9.28 22.72-9.28s16.32 3.2 22.72 9.28c12.48 12.48 12.48 32.64 0 45.12l-30.72 30.72h349.44c170.56 0 309.44-138.88 309.44-309.44s-138.88-309.44-309.44-309.44-309.44 138.88-309.44 309.44c0 17.6-14.4 32-32 32s-32-14.4-32-32c0-205.76 167.36-373.44 373.44-373.44s373.44 167.36 373.44 373.44-167.36 373.44-373.44 373.44h-349.76l30.72 30.72c12.48 12.48 12.48 32.64 0 45.12s-32.64 12.48-45.12 0l-85.44-85.44c-12.48-12.48-12.48-32.64 0-45.12l85.44-85.44zM460.16 279.68v255.68c0 17.6-14.4 32-32 32s-32-14.4-32-32v-255.68c0-17.6 14.4-32 32-32s32 14.4 32 32zM618.24 309.44h-63.68c-17.6 0-32-14.4-32-32s14.4-32 32-32h63.68c52.8 0 96 43.2 96 96s-43.2 96-96 96h-31.68v65.28h95.68c17.6 0 32 14.4 32 32s-14.4 32-32 32h-127.68c-17.6 0-32-14.4-32-32v-129.28c0-17.6 14.4-32 32-32h63.68c17.6 0 32-14.4 32-32s-14.4-32-32-32z" />
<glyph unicode="&#xe923;" glyph-name="badge-discount" data-tags="badge-discount" d="M116.8 395.52c-19.2-35.2-21.44-76.8-6.080-113.92s46.4-64.96 84.8-76.16l27.84-8c18.56-5.44 32.96-19.84 38.4-38.4l8-27.84c11.2-38.4 39.040-69.44 76.16-84.8 16.32-6.72 33.6-10.24 50.56-10.24 21.76 0 43.52 5.44 63.040 16.32l25.28 13.76c16.96 9.28 37.12 9.28 54.080 0l25.28-13.76c35.2-19.2 76.8-21.44 113.92-6.080s64.96 46.4 76.16 84.8l8.32 27.84c5.44 18.56 19.84 32.96 38.4 38.4l27.84 8c38.4 11.2 69.44 39.040 84.8 76.16s13.12 78.72-6.080 113.92l-13.76 25.28c-9.28 16.96-9.28 37.12 0 54.080l13.76 25.28c19.2 35.2 21.44 76.8 6.080 113.92s-46.4 64.96-84.8 76.16l-27.84 8c-18.56 5.44-32.96 19.84-38.4 38.4l-8 27.84c-11.2 38.4-39.040 69.44-76.16 84.8s-78.72 13.12-113.92-6.080l-25.28-13.76c-16.96-9.28-37.12-9.28-54.080 0l-25.28 13.76c-35.2 19.2-76.8 21.44-113.92 6.080s-64.96-46.4-76.16-84.8l-8.32-27.84c-5.44-18.56-19.84-32.96-38.4-38.4l-27.84-8c-38.4-11.2-69.44-39.040-84.8-76.16s-13.12-78.72 6.080-113.92l13.76-25.28c9.28-16.96 9.28-37.12 0-54.080l-13.76-25.28zM186.88 505.92l-13.76 25.28c-9.92 18.24-11.2 39.36-3.2 58.56s23.68 33.28 43.52 39.36l27.84 8c39.68 11.52 70.080 42.24 81.6 81.6l8.32 27.84c5.76 19.84 20.16 35.84 39.040 43.52 8.32 3.52 17.28 5.12 25.92 5.12 11.2 0 22.4-2.88 32.64-8.32l25.28-13.76c36.16-19.84 79.36-19.84 115.52 0l25.28 13.76c18.24 9.92 39.36 11.2 58.56 3.2s33.28-23.68 39.36-43.84l8-27.84c11.52-39.68 42.24-70.080 81.6-81.6l27.84-8c19.84-5.76 35.84-20.16 43.52-39.36 8-19.2 6.72-40.32-3.2-58.56l-13.76-25.28c-19.84-36.16-19.84-79.36 0-115.52l13.76-25.28c9.92-18.24 11.2-39.36 3.2-58.56s-23.68-33.28-43.52-39.36l-27.84-8c-39.68-11.52-70.080-42.24-81.6-81.6l-8.32-27.84c-5.76-19.84-20.16-35.84-39.040-43.52-19.2-8-40.32-6.72-58.56 3.2l-25.28 13.76c-36.16 19.84-79.36 19.84-115.52 0l-25.28-13.76c-18.24-9.92-39.36-11.2-58.56-3.2s-33.28 23.68-39.36 43.84l-8 27.84c-11.52 39.68-42.24 70.080-81.6 81.6l-27.84 8c-19.84 5.76-35.84 20.16-43.52 39.36-8 19.2-6.72 40.32 3.2 58.56l13.76 25.28c19.84 36.16 19.84 79.36 0 115.52zM405.12 341.12c6.4-6.4 14.4-9.28 22.72-9.28s16.32 3.2 22.72 9.28l168.64 168.64c12.48 12.48 12.48 32.64 0 45.12s-32.64 12.48-45.12 0l-168.64-168.64c-12.48-12.48-12.48-32.64 0-45.12zM404.16 510.72s2.88-2.88 4.8-3.84c1.6-1.28 3.52-2.24 5.44-3.2 1.92-0.64 3.84-1.28 6.080-1.6 1.92-0.64 4.16-0.64 6.080-0.64 2.24 0 4.16 0 6.4 0.64 1.92 0.32 3.84 0.96 5.76 1.6 1.92 0.96 3.84 1.92 5.76 3.2 1.6 0.96 3.2 2.24 4.8 3.84 2.88 2.88 5.12 6.4 6.72 10.24 1.92 4.16 2.56 8.32 2.56 12.48 0 8.32-3.52 16.64-9.28 22.4-11.84 12.16-33.6 12.16-45.12 0-1.6-1.28-2.88-2.88-4.16-4.8-1.28-1.6-2.24-3.52-2.88-5.44-0.96-1.92-1.6-3.84-1.92-6.080 0-1.92-0.64-4.16-0.64-6.080 0-4.16 0.96-8.32 2.56-12.48 1.6-3.84 3.84-7.36 7.040-10.24zM619.84 385.28c-1.6 1.6-3.2 2.88-4.8 3.84-1.92 1.28-3.52 2.24-5.44 3.2-1.92 0.64-4.16 1.28-6.080 1.6-10.24 2.24-21.44-1.28-28.8-8.64-3.2-2.88-5.44-6.4-7.040-10.24-1.6-4.16-2.24-8-2.24-12.48 0-4.16 0.64-8.32 2.24-12.16s3.84-7.36 7.040-10.24c5.76-6.080 14.080-9.6 22.72-9.6 1.92 0 4.16 0.32 6.080 0.64 1.92 0.64 4.16 0.96 6.080 1.92 1.92 0.64 3.52 1.92 5.44 2.88 1.6 1.28 3.2 2.56 4.8 4.16 2.88 2.88 5.44 6.4 7.040 10.24s2.56 8 2.56 12.16-0.96 8.32-2.56 12.48c-1.6 3.84-4.16 7.36-7.040 10.24z" />
<glyph unicode="&#xe924;" glyph-name="balance" data-tags="balance" d="M96 448.32s0 0 0 0c0 0 0 0 0 0 0-88.32 72-160 160-160 42.88 0 82.88 16.64 113.28 46.72 30.080 30.080 46.72 70.4 46.72 113.28 0 0 0 0 0 0s0 0 0 0c0 7.68-1.6 15.36-6.72 22.4l-104.32 244.16h175.040v-490.88h-265.6c-41.92 0-75.84-33.92-75.84-75.84v-40.64c0-41.92 33.92-75.84 75.84-75.84h595.2c41.92 0 75.84 33.92 75.84 75.84v40.64c0 41.92-33.92 75.84-75.84 75.84h-265.6v490.56h176l-104.96-244.16c-5.12-7.040-6.72-14.4-6.72-22.080 0 0 0 0 0 0s0 0 0 0c0-88.32 72-160 160-160 42.88 0 82.88 16.64 113.28 46.72 30.080 30.080 46.72 70.4 46.72 113.28 0 0 0 0 0 0s0 0 0 0c0 7.68-1.6 15.36-6.72 22.4l-104.32 244.16h79.040c17.6 0 32 14.4 32 32s-14.4 32-32 32h-352v53.44c0 17.6-14.4 32-32 32s-32-14.4-32-32v-53.44h-352.32c-17.6 0-32-14.4-32-32s14.4-32 32-32h80l-104.96-244.16c-5.12-7.040-6.72-14.4-6.72-22.080zM821.44 148.16v-40.64c0-6.4-5.44-11.84-11.84-11.84h-595.2c-6.4 0-11.84 5.44-11.84 11.84v40.64c0 6.4 5.44 11.84 11.84 11.84h595.2c6.4 0 11.84-5.44 11.84-11.84zM768.32 665.6l71.040-166.080c-19.52 1.92-42.88 3.2-71.36 3.2s-51.84-0.96-71.040-3.2l71.36 166.080zM835.84 380.16c-18.24-18.24-42.24-28.16-67.84-28.16-47.36 0-86.72 34.24-94.72 79.36 40.32 9.28 148.8 8.96 189.12 0-3.2-19.2-12.48-37.12-26.56-51.2zM323.84 380.16c-18.24-18.24-42.24-28.16-67.84-28.16-47.36 0-86.72 34.24-94.72 79.36 40.32 9.28 148.8 8.96 189.12 0-3.2-19.2-12.48-37.12-26.56-51.2zM184.64 499.2l71.36 166.080 71.040-166.080c-19.52 1.92-42.88 3.2-71.36 3.2s-51.84-0.96-71.040-3.2z" />
<glyph unicode="&#xe925;" glyph-name="bank" data-tags="bank" d="M128 650.56h10.56v-10.88c0-53.44 36.16-98.24 85.44-112.32v-282.24h-9.6c-41.92 0-75.84-33.92-75.84-75.84v-40.32c0-41.92 33.92-75.84 75.84-75.84h595.2c41.92 0 75.84 33.92 75.84 75.84v40.32c0 41.92-33.92 75.84-75.84 75.84h-9.6v282.24c48.96 14.080 85.44 58.56 85.44 112.32v10.88h10.56c15.68 0 29.12 11.52 31.68 26.88s-6.72 30.4-21.44 35.52l-384 128c-6.72 2.24-13.76 2.24-20.16 0l-384.32-128c-14.72-5.12-24-19.84-21.44-35.52 2.56-15.36 16-26.88 31.68-26.88zM288 522.56h106.56v-277.44h-106.56v277.44zM565.44 522.56v-277.44h-106.56v277.44h106.56zM821.44 169.6v-40.32c0-6.4-5.44-11.84-11.84-11.84h-595.2c-6.4 0-11.84 5.44-11.84 11.84v40.32c0 6.4 5.44 11.84 11.84 11.84h595.2c6.4 0 11.84-5.44 11.84-11.84zM629.44 245.44v277.44h106.56v-277.44h-106.56zM202.56 673.92l309.44 103.040 309.12-103.040v-33.92c0-29.44-24-53.12-53.12-53.12h-512.32c-29.44 0-53.12 24-53.12 53.12v33.92z" />
<glyph unicode="&#xe926;" glyph-name="bank-note" data-tags="bank-note" d="M256 160h511.68c88.32 0 160 72 160 160v255.68c0 88.32-72 160-160 160h-511.68c-88.32 0-160-72-160-160v-255.68c0-88.32 72-160 160-160zM328.32 672h367.040c-1.28-3.52-2.24-7.040-2.24-10.56 0-88.32 71.68-160 160-160 3.84 0 7.36 0.96 10.56 2.24v-111.040c-3.52 1.28-6.72 2.24-10.56 2.24-88.32 0-160-71.68-160-160 0-3.84 0.96-7.36 2.24-10.56h-367.040c1.28 3.52 2.24 7.040 2.24 10.56 0 88.32-71.68 160-160 160-3.84 0-7.36-0.96-10.56-2.24v111.040c3.52-1.28 7.040-2.24 10.56-2.24 88.32 0 160 71.68 160 160 0 3.84-0.96 7.36-2.24 10.56zM160 320v12.8c3.52-1.28 7.040-2.24 10.56-2.24 52.8 0 96-43.2 96-96 0-3.84 0.96-7.36 2.24-10.56h-12.8c-53.12 0-96 43.2-96 96zM767.68 224h-12.8c1.28 3.52 2.24 7.040 2.24 10.56 0 52.8 43.2 96 96 96 3.84 0 7.36 0.96 10.56 2.24v-12.8c0-53.12-43.2-96-96-96zM864 576v-12.8c-3.52 1.28-6.72 2.24-10.56 2.24-52.8 0-96 43.2-96 96 0 3.84-0.96 7.36-2.24 10.56h12.8c53.12 0 96-43.2 96-96zM256 672h12.8c-1.28-3.52-2.24-7.040-2.24-10.56 0-52.8-43.2-96-96-96-3.84 0-7.36-0.96-10.56-2.24v12.8c0 53.12 43.2 96 96 96zM512 314.24c73.6 0 133.76 59.84 133.76 133.76s-59.84 133.76-133.76 133.76-133.76-59.84-133.76-133.76 59.84-133.76 133.76-133.76zM512 517.76c38.4 0 69.76-31.36 69.76-69.76s-31.36-69.76-69.76-69.76-69.76 31.36-69.76 69.76 31.36 69.76 69.76 69.76z" />
<glyph unicode="&#xe927;" glyph-name="bar-01-average" data-tags="bar-01-average" d="M245.12 64v768c0 17.6-14.4 32-32 32s-32-14.4-32-32v-768c0-17.6 14.4-32 32-32s32 14.4 32 32zM554.56 693.44h-213.44c-17.6 0-32-14.4-32-32s14.4-32 32-32h213.44c64.64 0 117.44 52.8 117.44 117.44s-52.48 117.44-117.44 117.44h-213.44c-17.6 0-32-14.4-32-32s14.4-32 32-32h213.44c29.44 0 53.44-24 53.44-53.44s-24-53.44-53.44-53.44zM725.44 96h-384c-17.6 0-32-14.4-32-32s14.4-32 32-32h384c64.64 0 117.44 52.8 117.44 117.44s-52.48 117.44-117.44 117.44h-384c-17.6 0-32-14.4-32-32s14.4-32 32-32h384c29.44 0 53.44-24 53.44-53.44s-24-53.44-53.44-53.44zM384 394.56h-42.56c-17.6 0-32-14.4-32-32s14.4-32 32-32h42.56c64.64 0 117.44 52.8 117.44 117.44s-52.48 117.44-117.44 117.44h-42.56c-17.6 0-32-14.4-32-32s14.4-32 32-32h42.56c29.44 0 53.44-24 53.44-53.44s-24-53.44-53.44-53.44z" />
<glyph unicode="&#xe928;" glyph-name="bar-01-down" data-tags="bar-01-down" d="M213.12 32c17.6 0 32 14.4 32 32v768c0 17.6-14.4 32-32 32s-32-14.4-32-32v-768c0-17.6 14.4-32 32-32zM554.56 394.56h-213.44c-17.6 0-32-14.4-32-32s14.4-32 32-32h213.44c64.64 0 117.44 52.8 117.44 117.44s-52.48 117.44-117.44 117.44h-213.44c-17.6 0-32-14.4-32-32s14.4-32 32-32h213.44c29.44 0 53.44-24 53.44-53.44s-24-53.44-53.44-53.44zM341.12 266.56c-17.6 0-32-14.4-32-32s14.4-32 32-32h384c29.44 0 53.44-24 53.44-53.44s-24-53.44-53.44-53.44h-384c-17.6 0-32-14.4-32-32s14.4-32 32-32h384c64.64 0 117.44 52.8 117.44 117.44s-52.48 117.44-117.44 117.44h-384zM384 693.44h-42.56c-17.6 0-32-14.4-32-32s14.4-32 32-32h42.56c64.64 0 117.44 52.8 117.44 117.44s-52.48 117.44-117.44 117.44h-42.56c-17.6 0-32-14.4-32-32s14.4-32 32-32h42.56c29.44 0 53.44-24 53.44-53.44s-24-53.44-53.44-53.44z" />
<glyph unicode="&#xe929;" glyph-name="bar-01-up" data-tags="bar-01-up" d="M181.12 832v-768c0-17.6 14.4-32 32-32s32 14.4 32 32v768c0 17.6-14.4 32-32 32s-32-14.4-32-32zM672 448c0 64.64-52.48 117.44-117.44 117.44h-213.44c-17.6 0-32-14.4-32-32s14.4-32 32-32h213.44c29.44 0 53.44-24 53.44-53.44s-24-53.44-53.44-53.44h-213.44c-17.6 0-32-14.4-32-32s14.4-32 32-32h213.44c64.64 0 117.44 52.8 117.44 117.44zM842.56 746.56c0 64.64-52.48 117.44-117.44 117.44h-384c-17.6 0-32-14.4-32-32s14.4-32 32-32h384c29.44 0 53.44-24 53.44-53.44s-24-53.44-53.44-53.44h-384c-17.6 0-32-14.4-32-32s14.4-32 32-32h384c64.64 0 117.44 52.8 117.44 117.44zM384 96h-42.56c-17.6 0-32-14.4-32-32s14.4-32 32-32h42.56c64.64 0 117.44 52.8 117.44 117.44s-52.48 117.44-117.44 117.44h-42.56c-17.6 0-32-14.4-32-32s14.4-32 32-32h42.56c29.44 0 53.44-24 53.44-53.44s-24-53.44-53.44-53.44z" />
<glyph unicode="&#xe92a;" glyph-name="bar-02-average" data-tags="bar-02-average" d="M170.56 32c17.6 0 32 14.4 32 32v768c0 17.6-14.4 32-32 32s-32-14.4-32-32v-768c0-17.6 14.4-32 32-32zM309.12 704c0-17.6 14.4-32 32-32h384c17.6 0 32 14.4 32 32s-14.4 32-32 32h-384c-17.6 0-32-14.4-32-32zM341.12 501.44h213.44c17.6 0 32 14.4 32 32s-14.4 32-32 32h-213.44c-17.6 0-32-14.4-32-32s14.4-32 32-32zM885.12 362.56c0 17.6-14.4 32-32 32h-512c-17.6 0-32-14.4-32-32s14.4-32 32-32h512c17.6 0 32 14.4 32 32zM341.12 224c-17.6 0-32-14.4-32-32s14.4-32 32-32h384c17.6 0 32 14.4 32 32s-14.4 32-32 32h-384z" />
<glyph unicode="&#xe92b;" glyph-name="bar-02-down" data-tags="bar-02-down" d="M138.56 832v-768c0-17.6 14.4-32 32-32s32 14.4 32 32v768c0 17.6-14.4 32-32 32s-32-14.4-32-32zM341.12 224c-17.6 0-32-14.4-32-32s14.4-32 32-32h170.56c17.6 0 32 14.4 32 32s-14.4 32-32 32h-170.56zM799.68 362.56c0 17.6-14.4 32-32 32h-426.56c-17.6 0-32-14.4-32-32s14.4-32 32-32h426.56c17.6 0 32 14.4 32 32zM341.12 501.44h298.56c17.6 0 32 14.4 32 32s-14.4 32-32 32h-298.56c-17.6 0-32-14.4-32-32s14.4-32 32-32zM885.12 704c0 17.6-14.4 32-32 32h-512c-17.6 0-32-14.4-32-32s14.4-32 32-32h512c17.6 0 32 14.4 32 32z" />
<glyph unicode="&#xe92c;" glyph-name="bar-02-up" data-tags="bar-02-up" d="M170.56 32c17.6 0 32 14.4 32 32v768c0 17.6-14.4 32-32 32s-32-14.4-32-32v-768c0-17.6 14.4-32 32-32zM853.44 224h-512.32c-17.6 0-32-14.4-32-32s14.4-32 32-32h512.32c17.6 0 32 14.4 32 32s-14.4 32-32 32zM341.12 394.56c-17.6 0-32-14.4-32-32s14.4-32 32-32h384c17.6 0 32 14.4 32 32s-14.4 32-32 32h-384zM842.56 533.44c0 17.6-14.4 32-32 32h-469.44c-17.6 0-32-14.4-32-32s14.4-32 32-32h469.44c17.6 0 32 14.4 32 32zM341.12 672h213.44c17.6 0 32 14.4 32 32s-14.4 32-32 32h-213.44c-17.6 0-32-14.4-32-32s14.4-32 32-32z" />
<glyph unicode="&#xe92d;" glyph-name="barcode" data-tags="barcode" d="M298.56 736h-85.12c-64.64 0-117.44-52.8-117.44-117.44v-85.12c0-17.6 14.4-32 32-32s32 14.4 32 32v85.12c0 29.44 24 53.44 53.44 53.44h85.12c17.6 0 32 14.4 32 32s-14.4 32-32 32zM96 277.44c0-64.64 52.8-117.44 117.44-117.44h85.12c17.6 0 32 14.4 32 32s-14.4 32-32 32h-85.12c-29.44 0-53.44 24-53.44 53.44v85.12c0 17.6-14.4 32-32 32s-32-14.4-32-32v-85.12zM928 618.56c0 64.64-52.8 117.44-117.44 117.44h-85.12c-17.6 0-32-14.4-32-32s14.4-32 32-32h85.12c29.44 0 53.44-24 53.44-53.44v-85.12c0-17.6 14.4-32 32-32s32 14.4 32 32v85.12zM928 362.88c0 17.6-14.4 32-32 32s-32-14.4-32-32v-85.12c0-29.44-24-53.44-53.44-53.44h-85.12c-17.6 0-32-14.4-32-32s14.4-32 32-32h85.12c64.64 0 117.44 52.8 117.44 117.44v85.12zM298.56 565.44c-17.6 0-32-14.4-32-32v-170.56c0-17.6 14.4-32 32-32s32 14.4 32 32v170.56c0 17.6-14.4 32-32 32zM565.44 362.88c0-17.6 14.4-32 32-32s32 14.4 32 32v170.56c0 17.6-14.4 32-32 32s-32-14.4-32-32v-170.56zM725.44 330.88c17.6 0 32 14.4 32 32v170.56c0 17.6-14.4 32-32 32s-32-14.4-32-32v-170.56c0-17.6 14.4-32 32-32zM426.56 565.44h42.56c17.673 0 32-14.327 32-32v-170.56c0-17.673-14.327-32-32-32h-42.56c-17.673 0-32 14.327-32 32v170.56c0 17.673 14.327 32 32 32z" />
<glyph unicode="&#xe92e;" glyph-name="baseball-ball" data-tags="baseball-ball" d="M291.52 694.080c-70.080-62.72-110.4-152.64-110.4-246.080s40.32-183.36 110.4-246.080c60.8-54.72 139.2-84.8 220.48-84.8s159.68 30.080 220.48 84.8c70.080 62.72 110.080 152.64 110.080 246.080s-40.32 183.36-110.080 246.080c-60.8 54.72-139.2 84.8-220.48 84.8s-159.68-30.080-220.48-84.8c0 0 0 0 0 0zM245.12 448c0 65.28 24.32 128.32 67.52 176.96 5.76-6.4 10.88-12.8 16-19.52 1.28-1.6 2.24-3.2 3.2-5.12 3.84-5.44 7.68-11.2 11.2-16.96 1.6-2.56 2.88-5.44 4.48-8 2.56-5.12 5.44-9.92 7.68-15.040 1.28-3.2 2.88-6.080 4.16-9.28 2.24-5.12 4.16-9.92 5.76-15.040 1.28-3.2 2.24-6.4 3.2-9.6 1.6-5.12 2.88-10.56 4.16-15.68 0.64-3.2 1.6-6.4 2.24-9.6 1.28-5.76 1.92-11.84 2.88-17.6 0.32-2.88 0.96-5.44 1.28-8.32 0.96-8.64 1.28-17.6 1.28-26.56s-0.64-17.6-1.28-26.56c0-2.88-0.64-5.44-1.28-8.32-0.64-5.76-1.6-11.84-2.88-17.6-0.64-3.2-1.6-6.4-2.24-9.6-1.28-5.44-2.56-10.56-4.16-15.68-0.96-3.2-2.24-6.4-3.2-9.6-1.92-5.12-3.84-10.24-5.76-15.040-1.28-3.2-2.56-6.080-4.16-9.28-2.56-5.12-5.12-10.24-7.68-15.040-1.6-2.56-2.88-5.44-4.48-8-3.52-5.76-7.36-11.52-11.2-17.28-0.96-1.6-2.24-3.2-3.2-4.8-5.12-6.72-10.24-13.44-16-19.52-43.2 48.64-67.52 111.68-67.52 176.96zM778.56 448c0-65.28-24.32-128.32-67.52-176.96-5.44 6.4-10.88 12.8-16 19.52-1.28 1.92-2.56 3.84-3.84 5.76-3.52 5.12-7.36 10.56-10.56 16-1.6 2.88-3.2 5.76-4.8 8.64-2.56 4.8-5.12 9.6-7.36 14.4-1.6 3.2-2.88 6.4-4.16 9.6-1.92 4.8-3.84 9.6-5.76 14.72-1.28 3.2-2.24 6.72-3.2 9.92-1.6 5.12-2.88 10.24-4.16 15.68-0.64 3.2-1.6 6.4-2.24 9.92-1.28 5.76-1.92 11.52-2.88 17.28-0.32 2.88-0.96 5.76-1.28 8.64-0.96 8.64-1.28 17.6-1.28 26.24s0.64 17.6 1.28 26.24c0 2.88 0.96 5.76 1.28 8.64 0.64 5.76 1.6 11.84 2.88 17.6 0.64 3.2 1.6 6.4 2.24 9.92 1.28 5.12 2.56 10.56 4.16 15.68 0.96 3.2 2.24 6.72 3.2 9.92 1.6 5.12 3.52 9.92 5.76 14.72 1.28 3.2 2.56 6.4 4.16 9.6 2.24 5.12 4.8 9.92 7.36 14.72 1.6 2.88 2.88 5.76 4.8 8.64 3.2 5.44 6.72 10.88 10.56 16.32 1.28 1.92 2.56 3.84 3.84 5.76 4.8 6.72 10.24 13.12 16 19.52 43.2-48.64 67.52-111.68 67.52-176.96zM663.040 667.2c-7.040-7.68-13.44-16-19.52-24.32-1.28-1.92-2.56-3.84-3.84-5.76-4.8-7.040-9.6-14.080-13.76-21.44-1.92-3.2-3.52-6.72-5.44-9.92-3.52-6.080-6.72-12.48-9.6-18.88-1.92-3.84-3.52-7.68-5.12-11.52-2.56-6.080-5.12-12.48-7.36-18.88-1.28-4.16-2.88-8-4.16-12.16-1.92-6.4-3.84-13.12-5.44-19.52-0.96-3.84-1.92-8-2.88-11.84-1.6-7.36-2.56-14.4-3.52-21.76-0.32-3.52-0.96-7.040-1.6-10.56-0.96-10.88-1.6-21.76-1.6-32.64s0.64-21.76 1.6-32.64c0.32-3.52 0.96-7.040 1.6-10.56 0.96-7.36 1.92-14.72 3.52-21.76 0.96-4.16 1.92-8 2.88-12.16 1.6-6.72 3.2-13.12 5.44-19.52 1.28-4.16 2.56-8 4.16-12.16 2.24-6.4 4.8-12.48 7.36-18.88 1.6-3.84 3.2-7.68 5.12-11.52 2.88-6.4 6.080-12.48 9.6-18.88 1.92-3.2 3.52-6.72 5.44-9.92 4.16-7.36 8.96-14.4 13.76-21.12 1.28-1.92 2.56-4.16 4.16-6.080 6.080-8.32 12.8-16.64 19.52-24.32-88.64-61.44-213.76-61.44-302.4 0 7.040 7.68 13.44 16 19.52 24.32 1.6 2.24 2.88 4.48 4.48 6.72 4.8 6.72 9.28 13.44 13.44 20.48 1.92 3.52 3.84 7.040 5.76 10.56 3.2 6.080 6.4 12.16 9.28 18.24 1.92 3.84 3.52 7.68 5.12 11.84 2.56 6.080 4.8 12.16 7.040 18.56 1.28 4.16 2.88 8.32 4.16 12.48 1.92 6.4 3.52 12.8 5.12 19.52 0.96 4.16 1.92 8 2.88 12.16 1.6 7.040 2.56 14.4 3.52 21.76 0.32 3.52 0.96 7.040 1.6 10.56 0.96 10.88 1.6 21.76 1.6 32.64s-0.64 21.76-1.6 32.64c-0.32 3.52-0.96 7.040-1.6 10.56-0.96 7.36-1.92 14.4-3.52 21.76-0.96 4.16-1.92 8-2.88 12.16-1.6 6.4-3.2 13.12-5.12 19.52-1.28 4.16-2.56 8.32-4.16 12.16-2.24 6.4-4.48 12.48-7.040 18.56-1.6 3.84-3.2 7.68-5.12 11.84-2.88 6.4-6.080 12.48-9.6 18.56-1.92 3.52-3.52 7.040-5.76 10.24-4.16 7.040-8.96 14.080-13.76 21.12-1.28 1.92-2.56 4.16-4.16 6.080-6.080 8.32-12.8 16.64-19.52 24.32 88.64 61.44 213.76 61.44 302.4 0z" />
<glyph unicode="&#xe92f;" glyph-name="basketball-ball" data-tags="basketball-ball" d="M512 32c126.080 0 244.16 56.32 323.52 154.88 59.52 73.6 92.48 166.4 92.48 261.12s-32.96 187.52-92.48 261.12c-79.36 98.24-197.44 154.88-323.52 154.88s-241.28-55.040-320.96-151.040c-61.44-74.24-95.36-168.32-95.36-264.96s33.92-190.72 95.36-264.96c79.36-96 196.48-151.040 320.96-151.040zM215.68 638.080c2.24-3.52 4.48-7.040 6.72-10.56 1.6-2.56 3.2-5.12 4.48-7.68 4.16-7.36 7.68-14.72 11.2-22.080 0.32-0.96 0.96-1.92 1.28-2.88 3.84-8.64 7.36-17.28 10.56-25.92 0.96-2.56 1.6-5.12 2.56-7.68 2.24-6.4 4.16-12.48 6.080-19.2 0.96-3.2 1.6-6.4 2.56-9.6 1.6-6.080 2.88-11.84 3.84-17.92 0.64-3.2 1.28-6.72 1.92-10.24 0.96-6.4 1.92-12.8 2.56-19.2 0-1.6 0.32-3.52 0.64-5.12h-108.48c5.12 56.32 23.68 110.72 54.080 158.080zM270.080 416c0-1.6-0.32-3.52-0.64-5.12-0.64-6.4-1.6-12.8-2.56-19.2-0.64-3.52-1.28-6.72-1.92-10.24-1.28-6.080-2.56-12.16-3.84-17.92-0.96-3.2-1.6-6.4-2.56-9.6-1.92-6.4-3.84-12.8-6.080-19.2-0.96-2.56-1.6-5.12-2.56-7.68-3.2-8.64-6.72-17.6-10.56-25.92-0.32-0.96-0.96-1.92-1.28-2.88-3.52-7.36-7.36-15.040-11.52-22.080-1.6-2.56-3.2-5.12-4.48-7.68-2.24-3.52-4.48-7.040-6.72-10.56-30.4 47.36-48.96 101.76-54.080 158.080h108.48zM259.84 208.64c2.56 3.84 5.12 7.68 7.68 11.52 3.84 5.76 7.36 11.52 10.88 17.28 2.56 4.16 4.8 8.32 7.040 12.8 3.2 5.76 6.080 11.84 8.96 17.6 2.24 4.48 4.16 8.96 6.080 13.44 2.56 6.080 5.12 12.16 7.36 18.24 1.6 4.48 3.52 8.96 5.12 13.76 2.24 6.4 4.16 12.8 6.080 19.2 1.28 4.48 2.56 8.96 3.84 13.76 1.6 6.72 3.2 13.44 4.48 20.48 0.96 4.48 1.92 8.64 2.56 13.12 1.28 7.68 2.24 15.040 2.88 22.72 0.32 3.84 0.96 7.36 1.28 11.2 0 0.96 0 1.6 0 2.56h145.6v-318.4c-84.8 7.68-163.84 45.44-222.72 107.2 0.96 1.28 1.6 2.56 2.56 3.84zM544 97.6v318.4h150.72s0-1.28 0-1.92c0-3.84 0.96-7.36 1.28-11.2 0.96-7.36 1.6-15.040 2.88-22.4 0.64-4.48 1.6-8.96 2.56-13.12 1.28-6.72 2.56-13.12 4.16-19.84 1.28-4.48 2.56-9.28 3.84-13.76 1.92-6.080 3.52-12.48 5.76-18.56 1.6-4.8 3.2-9.28 5.12-13.76 2.24-6.080 4.48-11.84 7.040-17.6 1.92-4.48 3.84-8.96 6.080-13.44 2.88-5.76 5.76-11.52 8.64-16.96 2.24-4.16 4.48-8.64 7.040-12.8 3.2-5.76 6.72-11.2 10.24-16.96 2.56-3.84 5.12-8 7.68-11.84 0.96-1.28 1.6-2.56 2.56-3.84-59.2-63.68-139.2-102.72-225.6-110.72zM761.28 500.8c2.24 14.080 5.12 27.84 8.64 41.6 0.64 2.56 1.6 5.12 2.24 7.36 4.16 13.44 8.64 26.56 14.4 39.040 0.32 0.96 0.64 1.6 0.96 2.56 6.080 13.12 12.8 25.92 20.48 38.4 0.96 1.28 1.6 2.56 2.56 3.84 29.12-46.72 46.080-98.88 50.88-153.92h-102.4c0.32 4.16 0.32 8.32 0.96 12.48 0.32 2.88 0.64 5.76 0.96 8.32zM810.88 262.080s-1.6 2.56-2.56 3.84c-7.68 12.48-14.72 25.28-20.48 38.4-0.32 0.96-0.64 1.6-0.96 2.56-5.76 12.8-10.24 25.92-14.4 39.040-0.64 2.56-1.6 5.12-2.24 7.36-3.84 13.44-6.72 27.52-8.64 41.6-0.32 2.88-0.64 5.76-0.96 8.32-0.64 4.16-0.64 8.32-0.96 12.48h102.4c-4.8-55.040-21.76-107.2-50.88-153.92zM767.040 683.84c-2.56-3.84-5.12-7.68-7.68-11.84-3.52-5.44-7.040-11.2-10.24-16.96-2.56-4.16-4.8-8.64-7.040-12.8-2.88-5.76-5.76-11.2-8.64-16.96-2.24-4.48-4.16-8.96-6.080-13.44-2.56-5.76-4.8-11.84-7.040-17.6-1.6-4.48-3.52-9.28-5.12-13.76-1.92-6.080-3.84-12.16-5.76-18.56-1.28-4.48-2.56-9.28-3.84-13.76-1.6-6.4-2.88-13.12-4.16-19.84-0.96-4.48-1.92-8.64-2.56-13.12-1.28-7.36-1.92-14.72-2.88-22.4-0.32-3.84-0.96-7.36-1.28-11.2 0-0.64 0-1.28 0-1.92h-150.72v318.72c86.4-7.68 166.4-46.72 225.6-110.72-0.96-1.28-1.6-2.56-2.56-3.84zM480 798.4v-318.4h-145.6s0 1.6 0 2.56c0 3.84-0.96 7.36-1.28 11.2-0.96 7.68-1.6 15.36-2.88 22.72-0.64 4.48-1.6 8.64-2.56 13.12-1.28 6.72-2.88 13.76-4.48 20.48-1.28 4.48-2.56 9.28-3.84 13.76-1.92 6.4-3.84 12.8-6.080 19.2-1.6 4.48-3.2 9.28-5.12 13.76-2.24 6.080-4.8 12.16-7.36 18.24-1.92 4.48-3.84 8.96-6.080 13.44-2.88 6.080-5.76 11.84-8.96 17.6-2.24 4.16-4.48 8.64-7.040 12.8-3.52 5.76-7.040 11.52-10.88 17.28-2.56 3.84-5.12 8-7.68 11.52-0.96 1.28-1.6 2.56-2.56 3.84 58.88 61.76 137.92 99.52 222.72 107.2z" />
<glyph unicode="&#xe930;" glyph-name="basketball-hoop" data-tags="basketball-hoop" d="M214.080 288h95.040v-106.56h-10.56c-17.6 0-32-14.4-32-32s14.4-32 32-32h10.56v-53.44c0-17.6 14.4-32 32-32s32 14.4 32 32v53.44h106.56v-53.44c0-17.6 14.4-32 32-32s32 14.4 32 32v53.44h106.56v-53.44c0-17.6 14.4-32 32-32s32 14.4 32 32v53.76c16.32 1.6 29.12 14.72 29.12 31.36s-12.8 30.080-29.12 31.36v107.2h95.040c65.28 0 118.080 53.12 118.080 118.080v340.16c0 65.28-53.12 118.080-118.080 118.080h-595.2c-65.28 0-118.080-53.12-118.080-118.080v-339.84c0-65.28 53.12-118.080 118.080-118.080zM373.12 181.44v106.56h106.56v-106.56h-106.56zM480 458.56v-106.56h-106.56v106.56h106.56zM650.56 458.56v-106.56h-106.56v106.56h106.56zM650.56 181.44h-106.56v106.56h106.56v-106.56zM160 745.92c0 29.76 24.32 54.080 54.080 54.080h595.84c29.76 0 54.080-24.32 54.080-54.080v-339.84c0-29.76-24.32-54.080-54.080-54.080h-95.040v107.2c16.32 1.6 29.12 14.72 29.12 31.36 0 17.6-14.4 32-32 32h-413.44c-17.6 0-32-14.4-32-32s14.4-32 32-32h10.56v-106.56h-95.040c-29.76 0-54.080 24.32-54.080 54.080v339.84z" />
<glyph unicode="&#xe931;" glyph-name="battery-0" data-tags="battery-0" d="M866.56 584l-24 11.84v22.72c0 64.96-52.8 117.44-117.44 117.44h-512.96c-64 0-116.16-52.16-116.16-116.16v-343.36c0-64 52.16-116.16 116.16-116.16h512.96c64.96 0 117.44 52.8 117.44 117.44v22.72l24 11.84c37.76 18.88 61.44 56.96 61.44 99.52v72.96c0 42.24-23.68 80.64-61.44 99.52zM864 411.52c0-17.92-9.92-34.24-25.92-42.24l-41.6-20.8c-10.88-5.44-17.6-16.64-17.6-28.48v-42.56c0-29.44-24-53.44-53.44-53.44h-513.28c-28.8 0-52.16 23.36-52.16 52.16v343.36c0 28.8 23.36 52.16 52.16 52.16h512.96c29.44 0 53.44-24 53.44-53.44v-42.56c0-12.16 6.72-23.36 17.6-28.48l41.6-20.8c16-8 25.92-24.32 25.92-42.24v-72.96z" />
<glyph unicode="&#xe932;" glyph-name="battery-30" data-tags="battery-30" d="M866.56 584l-24 11.84v22.72c0 64.96-52.8 117.44-117.44 117.44h-512.96c-64 0-116.16-52.16-116.16-116.16v-343.36c0-64 52.16-116.16 116.16-116.16h512.96c64.96 0 117.44 52.8 117.44 117.44v22.72l24 11.84c37.76 18.88 61.44 56.96 61.44 99.52v72.96c0 42.24-23.68 80.64-61.44 99.52zM864 411.52c0-17.92-9.92-34.24-25.92-42.24l-41.6-20.8c-10.88-5.44-17.6-16.64-17.6-28.48v-42.56c0-29.44-24-53.44-53.44-53.44h-513.28c-28.8 0-52.16 23.36-52.16 52.16v343.36c0 28.8 23.36 52.16 52.16 52.16h512.96c29.44 0 53.44-24 53.44-53.44v-42.56c0-12.16 6.72-23.36 17.6-28.48l41.6-20.8c16-8 25.92-24.32 25.92-42.24v-72.96zM298.56 565.44c-17.6 0-32-14.4-32-32v-170.56c0-17.6 14.4-32 32-32s32 14.4 32 32v170.56c0 17.6-14.4 32-32 32z" />
<glyph unicode="&#xe933;" glyph-name="battery-60" data-tags="battery-60" d="M866.56 584l-24 11.84v22.72c0 64.96-52.8 117.44-117.44 117.44h-512.96c-64 0-116.16-52.16-116.16-116.16v-343.36c0-64 52.16-116.16 116.16-116.16h512.96c64.96 0 117.44 52.8 117.44 117.44v22.72l24 11.84c37.76 18.88 61.44 56.96 61.44 99.52v72.96c0 42.24-23.68 80.64-61.44 99.52zM864 411.52c0-17.92-9.92-34.24-25.92-42.24l-41.6-20.8c-10.88-5.44-17.6-16.64-17.6-28.48v-42.56c0-29.44-24-53.44-53.44-53.44h-513.28c-28.8 0-52.16 23.36-52.16 52.16v343.36c0 28.8 23.36 52.16 52.16 52.16h512.96c29.44 0 53.44-24 53.44-53.44v-42.56c0-12.16 6.72-23.36 17.6-28.48l41.6-20.8c16-8 25.92-24.32 25.92-42.24v-72.96zM298.56 565.44c-17.6 0-32-14.4-32-32v-170.56c0-17.6 14.4-32 32-32s32 14.4 32 32v170.56c0 17.6-14.4 32-32 32zM469.12 565.44c-17.6 0-32-14.4-32-32v-170.56c0-17.6 14.4-32 32-32s32 14.4 32 32v170.56c0 17.6-14.4 32-32 32z" />
<glyph unicode="&#xe934;" glyph-name="battery-100" data-tags="battery-100" d="M212.16 160h512.96c64.96 0 117.44 52.8 117.44 117.44v22.72l24 11.84c37.76 18.88 61.44 56.96 61.44 99.52v72.96c0 42.24-23.68 80.64-61.44 99.52l-24 11.84v22.72c0 64.96-52.8 117.44-117.44 117.44h-512.96c-64 0-116.16-52.16-116.16-116.16v-343.36c0-64 52.16-116.16 116.16-116.16zM160 619.84c0 28.8 23.36 52.16 52.16 52.16h512.96c29.44 0 53.44-24 53.44-53.44v-42.56c0-12.16 6.72-23.36 17.6-28.48l41.6-20.8c16-8 25.92-24.32 25.92-42.24v-72.96c0-17.92-9.92-34.24-25.92-42.24l-41.6-20.8c-10.88-5.44-17.6-16.64-17.6-28.48v-42.56c0-29.44-24-53.44-53.44-53.44h-512.96c-28.8 0-52.16 23.36-52.16 52.16v343.36zM298.56 330.56c17.6 0 32 14.4 32 32v170.56c0 17.6-14.4 32-32 32s-32-14.4-32-32v-170.56c0-17.6 14.4-32 32-32zM469.12 330.56c17.6 0 32 14.4 32 32v170.56c0 17.6-14.4 32-32 32s-32-14.4-32-32v-170.56c0-17.6 14.4-32 32-32zM640 330.56c17.6 0 32 14.4 32 32v170.56c0 17.6-14.4 32-32 32s-32-14.4-32-32v-170.56c0-17.6 14.4-32 32-32z" />
<glyph unicode="&#xe935;" glyph-name="beaker" data-tags="beaker" d="M158.72 218.56c-24.64-36.8-26.88-84.16-6.080-123.2s61.44-63.36 105.92-63.36h506.56c44.48 0 84.8 24.32 105.6 63.36s18.56 86.4-6.080 123.2l-181.76 272.64v138.24h42.24c17.6 0 32 14.4 32 32s-14.4 32-32 32h-55.36s1.28 2.88 1.6 4.48c0 1.92 0.64 4.16 0.64 6.080 0 2.24-0.32 4.16-0.64 6.4-0.32 1.92-0.96 3.84-1.92 5.76-0.64 1.92-1.92 3.84-2.88 5.76-1.28 1.6-2.56 3.2-4.16 4.8-1.28 1.28-2.88 2.88-4.8 3.84-1.6 1.28-3.52 2.24-5.44 2.88-1.92 0.96-3.84 1.6-6.080 1.92-4.16 0.96-8.32 0.96-12.48 0-1.92 0-4.16-0.96-6.080-1.92-1.92-0.64-3.52-1.6-5.44-2.88-1.6-0.96-3.2-2.56-4.8-3.84-1.6-1.6-2.88-3.2-3.84-4.8-1.28-1.92-2.24-3.84-3.2-5.76-0.64-1.92-1.28-3.84-1.6-5.76-0.64-2.24-0.64-4.16-0.64-6.4 0-1.92 0-4.16 0.64-6.080 0-1.6 0.64-3.2 1.28-4.48h-311.36c-17.6 0-32-14.4-32-32s14.4-32 32-32h42.24v-138.24l-181.76-272.64zM814.4 125.44c-9.92-18.56-28.48-29.44-49.28-29.44h-506.56c-21.12 0-39.36 11.2-49.28 29.44-9.92 18.56-8.96 40 2.88 57.28l70.080 104.96h459.52l70.080-104.96c11.52-17.6 12.8-39.040 2.88-57.28zM619.2 629.44v-147.84c0-6.4 1.92-12.48 5.44-17.6l74.56-111.68h-374.080l74.56 111.68c3.52 5.12 5.44 11.52 5.44 17.6v147.84h214.4zM371.84 759.68c3.84-1.6 8-2.24 12.16-2.24 8.32 0 16.64 3.2 22.72 9.28 2.88 2.88 5.12 6.4 6.72 10.56 1.6 3.84 2.56 8 2.56 12.16 0 1.92-0.32 4.16-0.64 6.080-0.32 2.24-0.96 4.16-1.92 6.080-0.64 1.92-1.6 3.84-2.88 5.44-1.28 1.92-2.56 3.52-3.84 5.12-9.28 8.96-23.36 11.52-34.88 6.72-4.16-1.6-7.68-3.84-10.56-6.72-1.6-1.6-2.88-3.2-3.84-5.12-1.28-1.6-2.24-3.52-3.2-5.44-0.64-1.92-1.28-3.84-1.6-6.080-0.64-1.92-0.64-4.16-0.64-6.080 0-4.16 0.64-8.32 2.24-12.16 1.92-4.16 4.16-7.68 7.040-10.56s6.4-5.44 10.56-7.040zM542.4 802.56c3.84-1.6 8-2.56 12.16-2.56s8.32 0.96 12.16 2.56c4.16 1.6 7.68 3.84 10.56 6.72 2.88 3.2 5.12 6.72 6.72 10.56 1.92 3.84 2.56 8 2.56 12.16 0 2.24 0 4.16-0.64 6.4-0.32 1.92-0.96 3.84-1.92 5.76-0.64 1.92-1.6 3.84-2.88 5.76-0.96 1.6-2.24 3.2-3.84 4.8-8.96 8.96-23.040 11.52-34.88 6.72-3.84-1.6-7.36-3.84-10.24-6.72-1.6-1.6-2.88-3.2-4.16-4.8-1.28-1.92-2.24-3.84-2.88-5.76-0.96-1.92-1.6-3.84-1.92-5.76 0-2.24-0.64-4.16-0.64-6.4 0-4.16 0.96-8.32 2.56-12.16s3.84-7.36 7.040-10.56c2.88-2.88 6.4-5.12 10.24-6.72z" />
<glyph unicode="&#xe936;" glyph-name="behance" data-tags="behance" d="M96 192c0-17.6 14.4-32 32-32h234.56c99.84 0 181.44 81.28 181.44 181.44 0 77.12-48.32 143.040-116.48 169.28 19.2 23.68 30.4 54.080 30.4 86.72 0 76.48-62.080 138.56-138.56 138.56h-191.36c-17.6 0-32-14.4-32-32v-211.84s0-0.96 0-1.28 0-0.96 0-1.28v-297.28zM160 672h159.68c41.28 0 74.56-33.6 74.56-74.56s-33.6-74.56-74.56-74.56h-159.68v149.44zM160 458.56h202.56c64.64 0 117.44-52.8 117.44-117.44s-52.8-117.44-117.44-117.44h-202.56v234.56zM768 565.44c-88.32 0-160-71.68-160-160v-85.44c0-88.32 71.68-160 160-160 42.88 0 82.88 16.64 113.28 46.72 12.48 12.48 12.48 32.64 0 45.12s-32.64 12.48-45.12 0c-18.24-18.24-42.24-28.16-67.84-28.16-52.8 0-96 43.2-96 96v10.56h224c17.6 0 32 14.4 32 32v42.56c0 88.32-71.68 160-160 160zM864 394.56h-192v10.56c0 52.8 43.2 96 96 96s96-43.2 96-96v-10.56zM682.56 672h170.56c17.6 0 32 14.4 32 32s-14.4 32-32 32h-170.56c-17.6 0-32-14.4-32-32s14.4-32 32-32z" />
<glyph unicode="&#xe937;" glyph-name="bell" data-tags="bell" d="M119.040 217.28c99.84-28.48 200-45.76 300.48-52.48 30.72-2.56 61.76-4.48 92.48-4.48s61.76 1.6 92.48 4.48c100.48 6.72 200.64 24 300.48 52.48 16.96 4.8 26.88 22.72 22.080 39.68s-22.72 26.88-39.68 22.080c-16.32-4.8-32.96-8.32-49.28-12.48l-45.76 275.2c-21.12 126.72-122.88 221.44-248 235.2v55.36c0 17.6-14.4 32-32 32s-32-14.4-32-32v-55.36c-125.12-14.080-226.88-108.48-248-235.2l-45.76-275.2c-16.64 4.16-32.96 7.68-49.28 12.48-16.96 4.8-34.56-5.12-39.68-22.080-4.8-16.96 5.12-34.56 22.080-39.68zM249.6 257.92l45.44 273.28c17.6 106.56 108.8 183.68 216.96 183.68 0 0 0 0 0 0s0 0 0 0c107.84 0 199.040-77.12 216.64-183.68l45.44-272.96c-43.52-11.2-87.040-19.52-130.88-25.28 0 0-0.32 0-0.64 0-14.4-1.92-28.48-2.88-42.88-4.16-58.56-3.84-117.12-3.84-175.68 0-14.4 1.28-28.8 2.24-43.2 4.16 0 0 0 0 0 0-43.84 5.76-87.36 14.080-130.88 25.28zM428.48 99.52c-17.6 1.28-32.96-12.16-33.92-29.76-1.28-17.6 12.16-32.96 29.76-33.92 29.12-1.92 58.24-2.88 87.36-2.88s58.56 0.96 87.36 2.88c17.6 1.28 31.040 16.32 29.76 33.92s-16.64 31.36-33.92 29.76c-55.36-3.52-111.36-3.52-166.72 0z" />
<glyph unicode="&#xe938;" glyph-name="bell-off" data-tags="bell-off" d="M261.12 518.080c-17.6 2.88-33.92-8.96-36.8-26.24l-37.76-226.24c-16.32 4.16-32.96 8.32-49.28 13.12-16.96 4.8-34.56-5.12-39.68-22.080s5.12-34.56 22.080-39.68c130.56-37.12 262.72-56 393.6-56 14.080 0 28.16 0 42.56 0.64 17.6 0.64 31.68 15.36 31.040 32.96s-15.040 31.68-32.96 31.040c-101.12-3.2-202.88 5.44-304.32 25.92l38.4 229.76c2.88 17.28-8.96 33.92-26.24 36.8zM888 278.72c-16.32-4.8-32.96-8.64-49.28-12.8l-45.76 275.52c-21.12 126.72-122.88 221.12-248 235.2v55.36c0 17.6-14.4 32-32 32s-32-14.4-32-32v-55.040c-64-7.36-124.16-36.8-169.6-82.56l-117.76 117.76c-12.48 12.48-32.64 12.48-45.12 0s-12.48-32.64 0-45.12l682.88-682.88c6.4-6.4 14.4-9.28 22.72-9.28s16.32 3.2 22.72 9.28c12.48 12.48 12.48 32.64 0 45.12l-64.64 64.64c31.36 6.72 62.72 14.4 94.080 23.36 16.96 4.8 26.88 22.72 22.080 39.68s-22.4 26.56-39.68 22.080zM512.64 714.56c107.84 0 199.040-77.44 216.96-183.68l46.4-279.040c-6.4-1.28-12.48-2.56-18.88-3.84l-400.96 400.96c41.28 41.92 96.64 65.6 156.48 65.6zM429.12 99.52c-17.6 0.96-32.96-12.16-33.92-29.76s12.16-32.96 29.76-33.92c29.12-1.92 58.24-2.88 87.36-2.88s58.56 0.96 87.36 2.88c17.6 1.28 31.040 16.32 29.76 33.92s-16.64 31.040-33.92 29.76c-55.36-3.52-111.36-3.52-166.72 0z" />
<glyph unicode="&#xe939;" glyph-name="bin" data-tags="bin" d="M597.44 202.56c17.6 0 32 14.4 32 32v213.44c0 17.6-14.4 32-32 32s-32-14.4-32-32v-213.44c0-17.6 14.4-32 32-32zM426.56 202.56c17.6 0 32 14.4 32 32v213.44c0 17.6-14.4 32-32 32s-32-14.4-32-32v-213.44c0-17.6 14.4-32 32-32zM128 586.56h57.92l68.48-444.48c9.92-63.68 63.68-110.080 128.32-110.080h258.88c64.64 0 118.72 46.4 128.32 110.080l68.48 444.48h57.92c17.6 0 32 14.4 32 32s-14.4 32-32 32h-65.6l-36.8 73.28c-30.080 60.16-90.24 97.28-157.44 97.28h-92.16v10.56c0 17.6-14.4 32-32 32s-32-14.4-32-32v-10.56h-92.16c-67.2 0-127.36-37.44-157.44-97.28l-36.8-73.28h-65.6c-17.6 0-32-14.4-32-32s14.4-32 32-32zM706.56 151.68c-5.12-32.32-32.32-56-65.28-56h-258.88c-32.64 0-60.16 23.36-65.28 56l-66.88 434.88h522.88l-66.88-434.88zM287.36 695.36c19.2 38.080 57.6 62.080 100.16 62.080h248.64c42.56 0 81.28-23.68 100.16-62.080l22.4-44.8h-493.76l22.4 44.8z" />
<glyph unicode="&#xe93a;" glyph-name="blank" data-tags="blank" d="M885.44 529.28c0 28.16-13.76 54.72-36.8 70.72v0s-212.8 148.8-212.8 148.8c-26.56 18.56-60.8 20.8-89.28 5.76s-46.4-44.16-46.4-76.48v-42.24c-208-34.56-361.28-213.76-361.28-427.84 0-21.44 14.080-38.72 35.2-43.52 3.52-0.64 7.36-1.28 10.88-1.28 20.16 0 39.68 12.16 48.64 31.68 48.64 111.36 148.8 191.36 266.56 214.72v-29.44c0-32.32 17.92-61.76 46.4-76.48s62.72-12.8 89.28 5.76l212.8 148.8c23.040 16 36.8 42.56 36.8 70.72zM811.84 511.040l-212.8-148.8c-9.92-7.040-19.52-3.52-23.040-1.6s-12.16 7.68-12.16 19.84v66.56c0 8.96-3.84 17.6-10.56 23.68s-15.68 8.96-24.64 8c-130.24-12.8-246.4-84.16-317.44-191.040 33.28 153.6 161.6 272 323.84 288 16.32 1.6 28.8 15.36 28.8 32v70.080c0 12.16 8.32 17.92 12.16 19.84 1.92 0.96 5.76 2.56 10.56 2.56 3.84 0 8-0.96 12.48-4.16l212.8-148.8c8.64-6.080 9.6-14.72 9.6-18.24s-0.96-12.16-9.6-18.24z" />
<glyph unicode="&#xe93b;" glyph-name="blender" data-tags="blender" d="M597.44 528.96c-90.88 0-164.8-65.28-164.8-145.92s73.92-145.92 164.8-145.92 164.8 65.28 164.8 145.92-73.92 145.92-164.8 145.92zM597.44 301.44c-55.68 0-100.8 36.8-100.8 81.92s45.12 81.92 100.8 81.92 100.8-36.8 100.8-81.92-45.12-81.92-100.8-81.92zM844.8 553.28s-2.56 2.88-3.84 3.84l-289.92 258.88c-26.88 23.68-67.84 22.4-93.12-2.88-13.44-13.44-20.48-31.68-19.84-50.56s9.28-36.8 23.36-48.96l23.36-20.48h-271.68c-41.28 0-74.56-33.6-74.56-74.56s33.6-74.56 74.56-74.56h69.44l-165.12-165.12c-27.52-27.52-27.52-72.32 0-99.84s72.32-27.52 99.84 0l51.2 51.2c18.56-143.68 158.72-255.68 328.64-255.68 182.4 0 330.56 129.28 330.56 288 0 70.4-29.44 137.92-83.2 190.72zM597.44 138.56c-147.2 0-266.56 100.48-266.56 224 0 13.12 1.6 27.2 4.8 41.28 3.2 13.76-3.52 28.16-16 34.88-4.8 2.56-10.24 3.84-15.36 3.84-8.32 0-16.32-3.2-22.72-9.28l-109.12-109.12c-2.56-2.56-6.72-2.56-9.28 0s-2.56 6.72 0 9.28l219.84 219.84c9.28 9.28 11.84 23.040 7.040 34.88s-16.64 19.84-29.44 19.84h-146.56c-5.76 0-10.56 4.8-10.56 10.56s4.8 10.56 10.56 10.56h357.44c13.44 0 25.28 8.32 30.080 20.8s1.28 26.56-8.96 35.2l-88 76.8s-1.28 1.6 0 5.76c1.6 1.6 3.84 1.6 5.44 0l286.72-256s1.28-1.28 1.92-2.24c42.88-40.96 66.56-93.44 66.56-147.52 0-123.52-119.68-224-266.56-224z" />
<glyph unicode="&#xe93c;" glyph-name="bluetooth" data-tags="bluetooth" d="M756.48 624.64c-0.32 1.92-1.28 3.52-1.92 5.44-0.96 1.92-1.6 4.16-2.88 6.080-0.32 0.64-0.32 1.28-0.96 1.92-0.96 1.28-2.24 1.92-3.2 2.88s-1.6 2.24-2.88 3.2l-225.92 170.56s-2.24 0.96-3.2 1.6c-1.92 0.96-3.84 2.24-5.76 2.88-2.24 0.64-4.16 0.96-6.4 1.28-1.28 0-2.24 0.64-3.52 0.64-0.64 0-1.28-0.32-2.24-0.32-2.24 0-4.48-0.64-6.72-1.28-1.92-0.64-3.84-0.96-5.44-1.92-1.92-0.96-3.2-2.24-5.12-3.52-1.6-1.28-3.52-2.56-4.8-4.16-0.64-0.64-1.28-0.96-1.6-1.6-0.64-0.96-0.96-2.24-1.6-3.52-0.96-1.92-2.24-3.84-2.88-5.76-0.64-2.24-0.96-4.16-1.28-6.4 0-1.28-0.64-2.24-0.64-3.52v-277.12l-149.44 112.96c-14.080 10.56-34.24 8-44.8-6.080s-8-34.24 6.4-44.8l167.040-126.080-164.48-124.16c-14.080-10.56-16.96-30.72-6.4-44.8 6.4-8.32 16-12.8 25.6-12.8 6.72 0 13.44 2.24 19.2 6.4l146.88 111.040v-277.12s0.64-2.24 0.64-3.52c0-2.24 0.64-4.16 1.28-6.4s1.6-3.84 2.88-5.76c0.64-0.96 0.96-2.24 1.6-3.52 0.32-0.64 0.96-0.64 1.6-1.28 2.24-2.56 4.8-4.48 7.68-6.4 0.96-0.64 1.92-1.6 3.2-1.92 4.16-1.92 8.64-3.2 13.12-3.2 0 0 0 0 0 0s0 0 0 0c3.84 0 7.68 0.96 11.2 2.24 1.28 0.64 2.56 1.28 3.52 1.92 1.6 0.64 2.88 1.28 4.48 2.24l225.92 170.56s2.24 2.56 3.52 4.16c0.96 0.96 1.92 1.28 2.56 2.24 0.32 0.64 0.64 1.28 0.96 1.92 1.28 1.92 1.92 3.84 2.88 6.080 0.64 1.92 1.6 3.52 1.92 5.44s0.32 3.84 0.32 6.080c0 1.92 0 4.16-0.32 6.080s-1.28 3.52-1.92 5.44c-0.96 1.92-1.6 4.16-2.88 6.080-0.32 0.64-0.32 1.28-0.96 1.92-0.96 1.28-2.24 1.92-3.2 2.88s-1.6 2.24-2.88 3.2l-192 145.28 192 145.28s2.24 2.56 3.52 4.16c0.96 0.96 1.92 1.28 2.56 2.24 0.32 0.64 0.64 1.28 0.96 1.92 1.28 1.92 1.92 3.84 2.88 6.080 0.64 1.92 1.6 3.52 1.92 5.44s0.32 3.84 0.32 6.080c0 1.92 0 4.16-0.32 6.080zM672.32 618.56l-140.8-106.56v212.8l140.8-106.56zM531.52 383.68l140.8-106.56-140.8-106.56v212.8z" />
<glyph unicode="&#xe93d;" glyph-name="bold" data-tags="bold" d="M213.12 138.56c-17.6 0-32-14.4-32-32s14.4-32 32-32h84.16s0 0 0 0h299.84c135.36 0 245.44 110.080 245.44 245.44 0 97.92-57.92 182.4-141.12 221.76 33.28 29.44 54.72 71.68 54.72 119.68 0 88.32-71.68 160-160 160h-383.040c-17.6 0-32-14.4-32-32s14.4-32 32-32h53.44v-618.88h-53.44zM416 138.56v362.56h95.040c99.84 0 181.44-81.28 181.44-181.44s-81.28-181.44-181.44-181.44h-95.040zM606.72 661.44c0-52.8-43.2-96-96-96h-95.040v192h95.040c52.8 0 96-43.2 96-96z" />
<glyph unicode="&#xe93e;" glyph-name="book" data-tags="book" d="M682.56 864h-170.56c-17.6 0-32-14.4-32-32v-10.56h-182.72c-64 0-116.16-52.16-116.16-116.16v-557.12c0-64 52.16-116.16 116.16-116.16h429.12c64 0 116.16 52.16 116.16 116.16v43.84s0 0 0 0 0 0 0 0v511.36c0 65.28-53.12 118.080-118.080 118.080h-9.92v10.56c0 17.6-14.4 32-32 32zM544 800h106.56v-170.24l-41.28 16.64c-3.84 1.6-8 2.24-11.84 2.24s-8-0.64-11.84-2.24l-41.28-16.64v170.24zM724.48 757.44c29.76 0 54.080-24.32 54.080-54.080v-479.36s-352 0-352 0c-17.6 0-32-14.4-32-32s14.4-32 32-32h352v-11.84c0-28.8-23.36-52.16-52.16-52.16h-429.12c-28.8 0-52.16 23.36-52.16 52.16v557.12c0 28.8 23.36 52.16 52.16 52.16h182.72v-175.040c0-10.56 5.44-20.48 14.080-26.56 8.96-6.080 19.84-7.040 29.76-3.2l73.28 29.44 73.28-29.44c3.84-1.6 8-2.24 11.84-2.24 6.4 0 12.48 1.92 17.92 5.44 8.64 6.080 14.080 16 14.080 26.56v175.040h9.92z" />
<glyph unicode="&#xe93f;" glyph-name="bookmark" data-tags="bookmark" d="M700.8 848c-125.12 21.12-252.16 21.12-377.92 0-61.44-11.2-118.080-71.36-126.080-134.4-24.32-206.080-20.16-414.72 12.48-620.8 1.6-9.92 7.68-18.24 16.32-23.040s19.2-5.12 28.16-1.28c74.88 32.96 158.080 83.52 258.24 149.12 100.16-65.6 183.36-116.16 258.24-149.12 4.16-1.92 8.64-2.56 12.8-2.56 5.44 0 10.56 1.28 15.36 3.84 8.64 4.8 14.72 13.44 16.32 23.040 32.64 206.080 36.8 414.72 12.48 621.12-8 62.72-64.64 122.88-126.4 134.080zM757.76 145.28c-65.92 32.96-140.16 79.68-228.16 137.6-5.44 3.52-11.52 5.12-17.6 5.12s-12.16-1.6-17.6-5.12c-88-57.92-162.24-104.32-228.16-137.6-25.92 186.24-27.84 374.72-5.76 560.64 4.48 34.56 40.32 72.96 73.6 79.040 118.080 20.16 238.080 20.16 355.84 0 33.6-6.080 69.44-44.48 73.92-79.040 22.080-185.92 20.16-374.4-5.76-560.96z" />
<glyph unicode="&#xe940;" glyph-name="bookmark-filled" data-tags="bookmark-filled" d="M700.8 848c-125.44 21.12-252.16 21.12-377.92 0-61.44-11.2-118.080-71.36-126.080-134.4-24.32-206.080-20.16-414.72 12.48-620.8 1.6-9.92 7.68-18.24 16.32-23.040 4.8-2.56 9.92-3.84 15.36-3.84 4.48 0 8.64 0.96 12.8 2.56 74.88 32.96 158.080 83.52 258.24 149.12 100.16-65.6 183.36-116.16 258.24-149.12 8.96-3.84 19.52-3.52 28.16 1.28s14.72 13.44 16.32 23.040c32.64 206.080 36.8 414.72 12.48 621.12-8 62.72-64.64 122.88-126.4 134.080z" />
<glyph unicode="&#xe941;" glyph-name="bookmark-less" data-tags="bookmark-less" d="M814.72 92.8c32.64 206.080 36.8 414.72 12.48 621.12-8 62.72-64.64 122.88-126.4 134.080-125.12 21.12-252.16 21.12-377.92 0-61.44-11.2-118.080-71.36-126.080-134.4-24.32-206.080-20.16-414.72 12.48-620.8 1.6-9.92 7.68-18.24 16.32-23.040s19.2-5.12 28.16-1.28c74.88 32.96 158.080 83.52 258.24 149.12 100.16-65.6 183.36-116.16 258.24-149.12 4.16-1.92 8.64-2.56 12.8-2.56 5.44 0 10.56 1.28 15.36 3.84 8.64 4.8 14.72 13.44 16.32 23.040zM757.76 145.28c-65.92 32.96-140.16 79.68-228.16 137.6-5.44 3.52-11.52 5.12-17.6 5.12s-12.16-1.6-17.6-5.12c-88-57.92-162.24-104.32-228.16-137.6-25.92 186.24-27.84 374.72-5.76 560.64 4.48 34.56 40.32 72.96 73.6 79.040 118.080 20.16 238.080 20.16 355.84 0 33.6-6.080 69.44-44.48 73.92-79.040 22.080-185.92 20.16-374.4-5.76-560.96zM597.44 565.44h-170.56c-17.6 0-32-14.4-32-32s14.4-32 32-32h170.56c17.6 0 32 14.4 32 32s-14.4 32-32 32z" />
<glyph unicode="&#xe942;" glyph-name="bookmark-plus" data-tags="bookmark-plus" d="M225.6 69.76c8.64-4.8 19.2-5.12 28.16-1.28 74.88 32.96 158.080 83.52 258.24 149.12 100.16-65.6 183.36-116.16 258.24-149.12 4.16-1.92 8.64-2.56 12.8-2.56 5.44 0 10.56 1.28 15.36 3.84 8.64 4.8 14.72 13.44 16.32 23.040 32.64 206.080 36.8 414.72 12.48 621.12-8 62.72-64.64 122.88-126.4 134.080-125.12 21.12-252.16 21.12-377.92 0-61.44-11.2-118.080-71.36-126.080-134.4-24.32-206.080-20.16-414.72 12.48-620.8 1.6-9.92 7.68-18.24 16.32-23.040zM260.16 705.92c4.48 34.56 40.32 72.96 73.6 79.040 118.080 20.16 238.080 20.16 355.84 0 33.6-6.080 69.44-44.48 73.92-79.040 22.080-185.92 20.16-374.4-5.76-560.96-65.92 32.96-140.16 79.68-228.16 137.6-5.44 3.52-11.52 5.12-17.6 5.12s-12.16-1.6-17.6-5.12c-88-57.92-162.24-104.32-228.16-137.6-25.92 186.24-27.84 374.72-5.76 560.64zM426.56 501.44h53.44v-53.44c0-17.6 14.4-32 32-32s32 14.4 32 32v53.44h53.44c17.6 0 32 14.4 32 32s-14.4 32-32 32h-53.44v53.44c0 17.6-14.4 32-32 32s-32-14.4-32-32v-53.44h-53.44c-17.6 0-32-14.4-32-32s14.4-32 32-32z" />
<glyph unicode="&#xe943;" glyph-name="bot" data-tags="bot" d="M138.56 252.8v-146.24c0-17.6 14.4-32 32-32h682.88c17.6 0 32 14.4 32 32v146.24c25.28 12.16 42.56 37.44 42.56 67.2v170.56c0 29.76-17.6 55.040-42.56 67.2v103.36c0 17.6-14.4 32-32 32h-52.8v10.24c0 64.96-52.8 117.76-117.76 117.76h-341.76c-64.96 0-117.76-52.8-117.76-117.76v-10.24h-52.8c-17.6 0-32-14.4-32-32v-103.36c-25.28-12.16-42.56-37.44-42.56-67.2v-170.56c0-29.76 17.6-55.040 42.56-67.2zM287.36 703.68c0 29.76 24 53.76 53.76 53.76h341.76c29.44 0 53.76-24 53.76-53.76v-10.24h-449.28v10.24zM255.36 629.44h566.080v-352s0 0 0 0v-138.56h-618.88v394.56s0 0 0 0v96h52.8zM362.56 352c52.8 0 96 43.2 96 96s-43.2 96-96 96-96-43.2-96-96 43.2-96 96-96zM362.56 480c17.6 0 32-14.4 32-32s-14.4-32-32-32-32 14.4-32 32 14.4 32 32 32zM661.44 352c52.8 0 96 43.2 96 96s-43.2 96-96 96-96-43.2-96-96 43.2-96 96-96zM661.44 480c17.6 0 32-14.4 32-32s-14.4-32-32-32-32 14.4-32 32 14.4 32 32 32zM682.56 266.56h-341.44c-17.6 0-32-14.4-32-32s14.4-32 32-32h341.44c17.6 0 32 14.4 32 32s-14.4 32-32 32z" />
<glyph unicode="&#xe944;" glyph-name="bowling-ball" data-tags="bowling-ball" d="M512 32c229.44 0 416 186.56 416 416s-186.56 416-416 416-416-186.56-416-416 186.56-416 416-416zM512 800c194.24 0 352-158.080 352-352s-158.080-352-352-352-352 158.080-352 352 157.76 352 352 352zM627.84 631.68c3.84-1.6 8-2.24 12.16-2.24 8.32 0 16.64 3.2 22.72 9.28 1.28 1.6 2.56 3.2 3.84 4.8 1.28 1.92 2.24 3.52 2.88 5.44 0.96 2.24 1.6 4.16 1.92 6.080 0 2.24 0.64 4.16 0.64 6.4 0 4.16-0.96 8.32-2.56 12.16s-3.84 7.36-6.72 10.24c-8.96 8.96-23.36 11.84-34.88 7.040-4.16-1.6-7.68-3.84-10.56-7.040-2.88-2.88-5.12-6.4-6.72-10.24-1.92-3.84-2.56-8-2.56-12.16 0-8.64 3.52-16.96 9.28-22.72 2.88-2.88 6.4-5.44 10.56-7.040zM489.28 596.16c2.88-3.2 6.4-5.44 10.56-7.040 3.84-1.6 8-2.56 12.16-2.56 1.92 0 4.16 0.32 6.080 0.64 2.24 0.64 4.16 1.28 6.080 1.92 1.92 0.96 3.84 1.92 5.44 2.88 1.92 1.28 3.52 2.56 4.8 4.16 3.2 2.88 5.44 6.4 7.040 10.24s2.56 8 2.56 12.16c0 4.48-0.96 8.32-2.56 12.48-1.6 3.84-3.84 7.36-7.040 10.24-1.28 1.6-2.88 2.88-4.8 4.16-1.6 0.96-3.52 1.92-5.44 2.88-1.92 0.64-3.84 1.28-6.080 1.6-6.080 1.28-12.48 0.64-18.24-1.6-4.16-1.6-7.68-4.16-10.56-7.040s-5.12-6.4-7.040-10.24c-1.6-4.16-2.24-8-2.24-12.48 0-4.16 0.64-8.32 2.24-12.16 1.92-3.84 4.16-7.36 7.040-10.24zM354.24 648.96c0.96-1.92 1.92-3.52 3.2-5.44 0.96-1.6 2.24-3.2 3.84-4.8 2.88-2.88 6.4-5.44 10.56-7.040 3.84-1.6 8-2.24 12.16-2.24 1.92 0 4.16 0 6.080 0.64 2.24 0.32 4.16 0.96 6.080 1.6 1.92 0.96 3.84 1.92 5.44 3.2 1.92 0.96 3.52 2.56 4.8 3.84 1.6 1.6 2.88 3.2 4.16 4.8 0.96 1.92 2.24 3.52 2.88 5.44 0.96 2.24 1.28 4.16 1.92 6.080 0 2.24 0.64 4.16 0.64 6.4 0 4.16-0.96 8.32-2.56 12.16s-3.84 7.36-7.040 10.24c-1.28 1.6-2.88 2.88-4.8 4.16-1.6 1.28-3.52 2.24-5.44 2.88-1.92 0.96-3.84 1.6-6.080 1.92-6.080 1.28-12.48 0.64-18.24-1.92-4.16-1.6-7.68-3.84-10.56-7.040-2.88-2.88-5.44-6.4-7.040-10.24s-2.24-8-2.24-12.16c0-2.24 0-4.16 0.64-6.4 0-1.92 0.96-3.84 1.6-6.080z" />
<glyph unicode="&#xe945;" glyph-name="boxes" data-tags="boxes" d="M128 32h384s0 0 0 0 0 0 0 0h384c17.6 0 32 14.4 32 32v384c0 17.6-14.4 32-32 32h-160v352c0 17.6-14.4 32-32 32h-384c-17.6 0-32-14.4-32-32v-352h-160c-17.6 0-32-14.4-32-32v-384c0-17.6 14.4-32 32-32zM864 96h-320v320h128v-53.44c0-17.6 14.4-32 32-32s32 14.4 32 32v53.44h128v-320zM352 800h128v-53.44c0-17.6 14.4-32 32-32s32 14.4 32 32v53.44h128v-320h-160s0 0 0 0 0 0 0 0h-160v320zM160 416h128v-53.44c0-17.6 14.4-32 32-32s32 14.4 32 32v53.44h128v-320h-320v320z" />
<glyph unicode="&#xe946;" glyph-name="briefcase" data-tags="briefcase" d="M255.040 74.56h513.92c64.32 0 116.48 52.16 116.48 116.48v343.36c0 64.32-52.16 116.48-116.48 116.48h-11.52v52.48c0 65.28-53.12 118.080-118.080 118.080h-254.4c-65.28 0-118.080-53.12-118.080-118.080v-52.48h-11.52c-64.32 0-116.48-52.16-116.48-116.48v-343.36c0-64.32 52.16-116.48 116.48-116.48zM330.56 703.040c0 29.76 24.32 54.080 54.080 54.080h254.4c29.76 0 54.080-24.32 54.080-54.080v-52.48h-362.56v52.48zM458.56 586.56h106.56v-64h-106.56v64zM202.56 534.4c0 28.8 23.36 52.48 52.48 52.48h139.52v-96c0-17.6 14.4-32 32-32h170.56c17.6 0 32 14.4 32 32v96h139.52c28.8 0 52.48-23.36 52.48-52.48v-343.36c0-28.8-23.36-52.48-52.48-52.48h-513.6c-28.8 0-52.48 23.36-52.48 52.48v343.36z" />
<glyph unicode="&#xe947;" glyph-name="brightness-down" data-tags="brightness-down" d="M494.080 860.16c-1.6-1.28-3.2-2.56-4.8-4.16-6.080-5.76-9.28-14.080-9.28-22.4s3.2-16.96 9.28-22.72c1.6-1.6 3.2-2.88 4.8-4.16 1.92-0.96 3.84-1.92 5.76-2.88l5.76-1.92c2.24 0 4.16-0.64 6.4-0.64 4.16 0 8.32 0.96 12.16 2.56s7.36 4.16 10.56 7.040c5.76 5.76 9.28 14.080 9.28 22.72 0 1.92-0.32 4.16-0.64 6.080-0.32 2.24-0.96 4.16-1.92 6.080-0.64 1.92-1.6 3.84-2.88 5.44-1.28 1.92-2.56 3.52-3.84 4.8-3.2 3.2-6.72 5.44-10.56 7.040-5.76 2.56-12.16 3.2-18.56 1.92l-5.76-1.92c-1.92-0.96-3.84-1.92-5.76-2.88zM285.44 728c1.92 0 4.16 0 6.080 0.32 2.24 0.64 4.16 1.28 6.080 1.92 1.92 0.96 3.84 1.92 5.44 2.88 1.92 1.28 3.52 2.56 4.8 4.16 6.080 5.76 9.6 14.080 9.6 22.72 0 4.16-0.96 8.32-2.56 12.16s-3.84 7.36-7.040 10.24c-1.28 1.6-2.88 2.88-4.8 4.16-1.6 0.96-3.52 1.92-5.44 2.88-1.92 0.64-3.84 1.28-6.080 1.92-10.24 1.92-21.44-1.6-28.8-8.96-2.88-2.88-5.44-6.4-7.040-10.24s-2.24-8-2.24-12.16c0-8.64 3.2-16.96 9.28-22.72 6.080-6.080 14.080-9.28 22.72-9.28zM145.28 535.040c4.16 0 8.32 0.96 12.16 2.56 4.16 1.6 7.68 3.84 10.56 6.72 1.28 1.6 2.88 3.2 3.84 5.12 1.28 1.6 2.24 3.52 3.2 5.44 0.64 1.92 1.28 3.84 1.6 6.080 0.64 1.92 0.64 4.16 0.64 6.080 0 8.32-3.2 16.64-9.28 22.72-2.88 2.88-6.4 5.44-10.56 7.040-11.52 4.8-25.92 1.92-34.88-7.040-5.76-6.080-9.28-14.080-9.28-22.72s3.52-16.64 9.28-22.72c6.080-5.76 14.4-9.28 22.72-9.28zM122.56 306.24c6.080-6.080 14.4-9.28 22.72-9.28 4.16 0 8.32 0.64 12.16 2.24 4.16 1.6 7.68 4.16 10.56 7.040 1.28 1.6 2.88 3.2 3.84 4.8 1.28 1.92 2.24 3.52 3.2 5.76 0.64 1.92 1.28 3.84 1.6 5.76 0.64 2.24 0.64 4.16 0.64 6.4 0 4.16-0.64 8.32-2.24 12.16-1.92 3.84-4.16 7.36-7.040 10.24-2.88 3.2-6.4 5.44-10.56 7.040-11.84 5.12-25.92 1.92-34.88-7.040-2.88-2.88-5.12-6.4-6.72-10.24s-2.56-8-2.56-12.16c0-8.64 3.52-16.64 9.28-22.72zM254.080 129.92c0-1.92 0.96-4.16 1.6-6.080 0.96-1.92 1.92-3.84 3.2-5.44 0.96-1.92 2.56-3.52 3.84-4.8 6.080-6.080 14.080-9.6 22.72-9.6s16.64 3.52 22.4 9.6c1.6 1.28 2.88 2.88 4.16 4.8 0.96 1.6 2.24 3.52 2.88 5.44 0.96 1.92 1.6 4.16 1.92 6.080 0 1.92 0.64 4.16 0.64 6.080 0 8.64-3.52 16.96-9.6 22.72-11.84 12.16-33.28 11.84-45.12 0-6.080-5.76-9.28-14.080-9.28-22.72 0-1.92 0-4.16 0.64-6.080zM524.16 92.16c-5.76 2.24-12.16 2.88-18.56 1.6-1.92 0-3.84-0.96-5.76-1.6-1.92-0.96-3.84-1.92-5.76-2.88-1.6-1.28-3.2-2.56-4.8-4.16-2.88-2.88-5.12-6.4-7.040-10.24-1.6-4.16-2.24-8-2.24-12.48 0-4.16 0.64-8.32 2.24-12.16 1.92-3.84 4.16-7.36 7.040-10.24 1.6-1.6 3.2-2.88 4.8-4.16 1.92-0.96 3.84-1.92 5.76-2.88l5.76-1.92c2.24-0.32 4.16-0.64 6.4-0.64 4.16 0 8.32 0.96 12.16 2.56s7.36 3.84 10.56 7.040c2.88 2.88 5.12 6.4 6.72 10.24s2.56 8 2.56 12.16c0 4.48-0.96 8.32-2.56 12.48-1.6 3.84-3.84 7.36-6.72 10.24-3.2 2.88-6.72 5.44-10.56 7.040zM709.12 123.84c1.6-3.84 3.84-7.36 6.72-10.24 2.88-3.2 6.4-5.44 10.56-7.040 3.84-1.6 8-2.56 12.16-2.56 1.92 0 4.16 0.32 6.080 0.64 2.24 0.64 4.16 1.28 6.080 1.92 1.92 0.96 3.84 1.92 5.44 2.88 1.92 1.28 3.52 2.56 5.12 4.16 2.88 2.88 5.12 6.4 6.72 10.24s2.56 8 2.56 12.16c0 8.64-3.52 16.96-9.28 22.72-1.6 1.6-3.2 2.88-5.12 4.16-1.6 0.96-3.52 1.92-5.44 2.88-1.92 0.64-3.84 1.28-6.080 1.6-6.080 1.28-12.48 0.64-18.24-1.6-4.16-1.6-7.68-4.16-10.56-7.040-5.76-5.76-9.28-14.080-9.28-22.72 0-4.16 0.64-8.32 2.56-12.16zM856 306.24c5.76-6.080 14.080-9.28 22.4-9.28s16.96 3.2 22.72 9.28c6.080 6.080 9.28 14.080 9.28 22.72s-3.2 16.64-9.28 22.72c-11.84 11.84-33.28 11.84-45.12 0-6.080-6.080-9.28-14.4-9.28-22.72s3.2-16.64 9.28-22.72zM878.4 535.040c8.64 0 16.96 3.52 22.72 9.28 6.080 6.080 9.28 14.4 9.28 22.72s-3.2 16.64-9.28 22.72c-11.84 11.84-33.28 11.84-45.12 0-6.080-6.080-9.28-14.080-9.28-22.72s3.2-16.64 9.28-22.72c5.76-5.76 14.080-9.28 22.4-9.28zM712 742.080s2.24-3.52 3.84-4.8c2.88-2.88 6.4-5.44 10.56-7.040 3.84-1.6 8-2.56 12.16-2.56 1.92 0 4.16 0 6.080 0.64 2.24 0.64 4.16 1.28 6.080 1.92 1.92 0.96 3.84 1.92 5.44 2.88 1.92 1.28 3.52 2.56 5.12 4.16 1.28 1.28 2.56 3.2 3.84 4.8s2.24 3.52 2.88 5.44c0.96 1.92 1.6 4.16 1.92 6.080 0 1.92 0.64 4.16 0.64 6.4 0 8.32-3.52 16.64-9.28 22.4-8.96 8.96-23.36 11.84-34.88 7.040-4.16-1.6-7.68-4.16-10.56-7.040-5.76-5.76-9.28-14.080-9.28-22.4 0-2.24 0-4.48 0.64-6.4 0.32-1.92 0.96-4.16 1.92-6.080 0.64-1.92 1.6-3.84 2.88-5.44zM512 288c88.32 0 160 71.68 160 160s-71.68 160-160 160-160-71.68-160-160 71.68-160 160-160zM512 544c52.8 0 96-43.2 96-96s-43.2-96-96-96-96 43.2-96 96 43.2 96 96 96z" />
<glyph unicode="&#xe948;" glyph-name="brightness-up" data-tags="brightness-up" d="M480 833.6v-84.48c0-17.6 14.4-32 32-32s32 14.4 32 32v84.48c0 17.6-14.4 32-32 32s-32-14.4-32-32zM266.56 785.6c-14.4-10.56-17.28-30.4-7.040-44.8l49.92-68.48c6.4-8.64 16-13.12 25.92-13.12 6.4 0 13.12 1.92 18.88 6.080 14.4 10.56 17.28 30.4 7.040 44.8l-49.92 68.48c-10.24 14.4-30.4 17.28-44.8 7.040zM114.88 576.96c-5.44-16.64 3.84-34.88 20.48-40.32l80.32-26.24c3.2-0.96 6.72-1.6 9.92-1.6 13.44 0 25.92 8.64 30.4 22.080 5.44 16.64-3.84 34.88-20.48 40.32l-80.32 26.24c-16.96 5.44-34.88-3.84-40.32-20.48zM114.88 319.040c4.48-13.44 16.96-22.080 30.4-22.080 3.2 0 6.72 0.64 9.92 1.6l80.32 26.24c16.64 5.44 25.92 23.68 20.48 40.32s-23.36 25.92-40.32 20.48l-80.32-26.24c-16.64-5.44-25.92-23.68-20.48-40.32zM285.44 104c9.92 0 19.84 4.48 25.92 13.12l49.28 68.16c10.24 14.4 7.040 34.24-7.040 44.8-14.4 10.24-34.24 7.040-44.8-7.040l-49.28-68.16c-10.24-14.4-7.040-34.24 7.040-44.8 5.76-4.16 12.16-6.080 18.88-6.080zM480 146.88v-84.48c0-17.6 14.4-32 32-32s32 14.4 32 32v84.48c0 17.6-14.4 32-32 32s-32-14.4-32-32zM712.64 117.44c6.4-8.64 16-13.12 25.92-13.12 6.4 0 13.12 1.92 18.88 6.080 14.4 10.56 17.28 30.4 7.040 44.8l-49.6 68.16c-10.56 14.4-30.4 17.28-44.8 7.040-14.4-10.56-17.28-30.4-7.040-44.8l49.6-68.16zM788.48 324.48l80.32-25.92c3.2-0.96 6.72-1.6 9.92-1.6 13.44 0 25.92 8.64 30.4 22.080 5.44 16.96-3.84 34.88-20.48 40.32l-80.32 25.92c-16.96 5.44-34.88-3.84-40.32-20.48-5.44-16.96 3.84-34.88 20.48-40.32zM909.12 576.96c-5.44 16.64-23.36 25.92-40.32 20.48l-80.32-26.24c-16.64-5.44-25.92-23.68-20.48-40.32 4.48-13.44 16.96-22.080 30.4-22.080 3.2 0 6.72 0.64 9.92 1.6l80.32 26.24c16.64 5.44 25.92 23.68 20.48 40.32zM712.64 778.56l-49.6-68.48c-10.24-14.4-7.040-34.24 7.040-44.8 5.76-4.16 12.16-6.080 18.88-6.080 9.92 0 19.84 4.48 25.92 13.12l49.6 68.48c10.24 14.4 7.040 34.24-7.040 44.8-14.4 10.24-34.24 7.040-44.8-7.040zM708.16 448c0 108.16-88 196.16-196.16 196.16s-196.16-88-196.16-196.16 88-196.16 196.16-196.16 196.16 88 196.16 196.16zM512 315.84c-72.96 0-132.16 59.2-132.16 132.16s59.2 132.16 132.16 132.16 132.16-59.2 132.16-132.16-59.2-132.16-132.16-132.16z" />
<glyph unicode="&#xe949;" glyph-name="brush" data-tags="brush" d="M263.040 370.88l-80-50.88c-34.56-22.080-56.96-58.24-61.44-98.88s9.6-80.96 38.72-110.080c25.6-25.6 59.52-39.36 95.040-39.36 4.8 0 9.92 0 15.040 0.96 40.96 4.48 76.8 26.88 98.88 61.44l50.88 80c8.64 13.44 22.72 21.44 38.4 21.76 16.64 0.64 30.4-6.72 40.32-20.48 17.92-25.28 46.080-40.96 76.8-43.52 31.040-2.56 61.12 8.64 82.88 30.4l59.84 59.84s1.6 2.24 2.24 3.52l148.8 148.8c21.76 21.76 33.92 50.88 33.92 81.92s-12.16 60.16-33.92 81.92l-56.64 56.64c-25.92 25.92-57.92 45.44-92.48 57.28l-37.44 12.48-85.44 85.44c-45.12 45.12-118.72 45.12-163.84 0l-121.6-121.6s0 0 0 0l-59.52-59.52c-21.76-21.76-32.96-52.16-30.4-82.88s18.56-58.88 43.52-76.8c13.12-9.28 20.16-23.68 19.84-39.68s-8.32-30.080-21.76-38.72zM478.4 745.28c20.16 20.16 53.12 20.16 73.6 0l90.88-90.88c3.52-3.52 7.68-6.080 12.48-7.68l44.8-15.040c25.28-8.32 48.64-22.72 67.52-41.6l56.64-56.64c9.92-9.92 15.36-22.72 15.36-36.8s-5.44-26.88-15.36-36.8l-129.28-129.28-315.52 315.52 99.2 99.2zM302.4 501.44c-9.92 7.040-16 17.92-16.96 30.080s3.2 24 11.84 32.32l37.12 37.12 316.16-316.16-37.12-37.12c-8.64-8.64-20.48-12.8-32.32-11.84-12.16 0.96-23.040 7.36-30.72 17.92-21.44 30.080-55.68 47.040-93.44 46.4-37.12-0.96-71.040-20.16-90.88-51.52l-50.88-80c-11.52-18.24-30.4-30.080-51.84-32.32s-42.56 5.12-57.6 20.16c-15.36 15.36-22.72 36.16-20.16 57.6 2.24 21.44 14.080 40.32 32.32 51.84l80 50.88c31.36 19.84 50.56 53.76 51.52 90.88s-16.32 72-46.72 93.44z" />
<glyph unicode="&#xe94a;" glyph-name="bubble-race" data-tags="bubble-race" d="M682.56 288c135.36 0 245.44 110.080 245.44 245.44s-110.080 245.44-245.44 245.44-245.44-110.080-245.44-245.44 110.080-245.44 245.44-245.44zM682.56 714.56c99.84 0 181.44-81.28 181.44-181.44s-81.28-181.44-181.44-181.44-181.44 81.28-181.44 181.44 81.28 181.44 181.44 181.44zM330.56 618.56c0 52.8-43.2 96-96 96s-96-43.2-96-96 43.2-96 96-96 96 43.2 96 96zM202.56 618.56c0 17.6 14.4 32 32 32s32-14.4 32-32-14.4-32-32-32-32 14.4-32 32zM298.56 74.56c88.32 0 160 71.68 160 160s-71.68 160-160 160-160-71.68-160-160 71.68-160 160-160zM298.56 330.56c52.8 0 96-43.2 96-96s-43.2-96-96-96-96 43.2-96 96 43.2 96 96 96z" />
<glyph unicode="&#xe94b;" glyph-name="building" data-tags="building" d="M928 396.48c0 69.44-56.64 126.080-126.080 126.080h-215.36v215.36c0 69.44-56.64 126.080-126.080 126.080h-238.72c-69.44 0-126.080-56.64-126.080-126.080v-579.84c0-69.44 56.64-126.080 126.080-126.080h579.84c69.44 0 126.080 56.64 126.080 126.080v238.72zM160 158.080v579.84c0 34.24 27.84 62.080 62.080 62.080h238.72c34.24 0 62.080-27.84 62.080-62.080v-641.92h-108.8c1.28 3.52 2.24 7.040 2.24 10.56v45.44c0 39.68-32.32 72-72 72h-5.76c-39.68 0-72-32.32-72-72v-45.44c0-3.84 0.96-7.36 2.24-10.56h-46.72c-34.24 0-62.080 27.84-62.080 62.080zM330.56 138.56v13.44c0 4.48 3.52 8 8 8h5.76c4.48 0 8-3.52 8-8v-13.44h-21.44zM864 158.080c0-34.24-27.84-62.080-62.080-62.080h-215.36v362.56h215.36c34.24 0 62.080-27.84 62.080-62.080v-238.72zM298.56 330.56h85.44c17.6 0 32 14.4 32 32s-14.4 32-32 32h-85.44c-17.6 0-32-14.4-32-32s14.4-32 32-32zM298.56 480h85.44c17.6 0 32 14.4 32 32s-14.4 32-32 32h-85.44c-17.6 0-32-14.4-32-32s14.4-32 32-32zM298.56 629.44h85.44c17.6 0 32 14.4 32 32s-14.4 32-32 32h-85.44c-17.6 0-32-14.4-32-32s14.4-32 32-32zM702.72 363.84c-6.080-5.76-9.28-14.080-9.28-22.4s3.2-16.64 9.28-22.72c6.080-6.080 14.080-9.28 22.72-9.28s16.64 3.2 22.4 9.28c6.080 5.76 9.6 14.080 9.6 22.72s-3.52 16.64-9.6 22.4c-11.84 11.84-33.28 11.84-45.12 0zM754.88 225.6c-0.96 1.92-1.92 3.84-2.88 5.44-1.28 1.92-2.56 3.52-4.16 4.8-11.84 12.16-33.28 12.16-45.12 0-1.6-1.28-2.88-2.88-4.16-4.8-0.96-1.6-1.92-3.52-2.88-5.44-0.64-1.92-1.28-4.16-1.6-6.080-0.64-1.92-0.64-4.16-0.64-6.4 0-8.32 3.2-16.64 9.28-22.4 6.080-6.080 14.080-9.28 22.72-9.28s16.64 3.2 22.4 9.28c6.080 5.76 9.6 14.080 9.6 22.4 0 2.24-0.32 4.48-0.64 6.4-0.64 1.92-1.28 4.16-1.92 6.080z" />
<glyph unicode="&#xe94c;" glyph-name="burger" data-tags="burger" d="M149.12 256c-6.4-12.8-10.56-27.2-10.56-42.56 0-52.8 43.2-96 96-96h554.88c52.8 0 96 43.2 96 96 0 15.36-3.84 29.76-10.56 42.56 31.36 15.68 53.12 48 53.12 85.44s-23.040 72-56.32 87.040c8.32 15.040 13.76 32.32 13.76 50.88 0 165.12-134.080 299.2-299.2 299.2h-148.16c-165.12 0-299.2-134.080-299.2-299.2 0-18.56 5.12-35.84 13.76-50.88-32.96-15.040-56.32-48.32-56.32-87.040s21.76-69.76 53.12-85.44zM243.84 373.44s0.64 0 0.96 0h534.4s0.64 0 0.96 0h51.84c17.6 0 32-14.4 32-32s-14.4-32-32-32h-640c-17.6 0-32 14.4-32 32s14.4 32 32 32h51.84zM789.44 181.12h-554.88c-17.6 0-32 14.4-32 32s14.4 32 32 32h554.88c17.6 0 32-14.4 32-32s-14.4-32-32-32zM437.76 714.56h148.16c129.6 0 235.2-105.6 235.2-235.2 0-23.040-18.56-41.92-41.6-42.24h-535.36c-23.040 0-41.6 18.88-41.6 42.24 0 129.6 105.6 235.2 235.2 235.2zM318.72 553.28s2.88-2.56 4.8-3.84c1.6-1.28 3.52-2.24 5.44-2.88 1.92-0.96 3.84-1.6 6.080-1.92 1.92 0 4.16-0.64 6.080-0.64 4.16 0 8.32 0.96 12.48 2.56 3.84 1.6 7.36 3.84 10.24 6.72 2.88 3.2 5.44 6.72 7.040 10.56s2.56 8 2.56 12.16c0 2.24-0.32 4.16-0.64 6.4l-1.92 5.76c-0.96 1.92-1.92 3.84-2.88 5.76-1.28 1.6-2.56 3.2-4.16 4.8-2.88 2.88-6.4 5.12-10.24 6.72-6.080 2.56-12.48 3.2-18.56 1.92-2.24 0-4.16-0.96-6.080-1.92-1.92-0.64-3.84-1.6-5.44-2.88-1.92-0.96-3.52-2.56-4.8-3.84-1.6-1.6-2.88-3.2-4.16-4.8-0.96-1.92-1.92-3.84-2.88-5.76l-1.92-5.76c0-2.24-0.64-4.16-0.64-6.4 0-4.16 0.96-8.32 2.56-12.16s3.84-7.36 7.040-10.56zM664.96 549.44s3.52-2.24 5.44-2.88c1.92-0.96 3.84-1.6 6.080-1.92 1.92 0 4.16-0.64 6.080-0.64 4.16 0 8.32 0.96 12.16 2.56 4.16 1.6 7.68 3.84 10.56 6.72 2.88 3.2 5.12 6.72 7.040 10.56 1.6 3.84 2.24 8 2.24 12.16s-0.64 8.32-2.24 12.16c-1.92 4.16-4.16 7.36-7.040 10.56-7.36 7.36-18.56 10.56-28.8 8.64-2.24 0-4.16-0.96-6.080-1.92-1.92-0.64-3.84-1.6-5.44-2.88-1.92-1.28-3.52-2.56-4.8-3.84-6.080-6.080-9.6-14.4-9.6-22.72s3.52-16.64 9.6-22.72c1.28-1.28 2.88-2.56 4.8-3.84zM489.28 510.72c2.88-2.88 6.4-5.44 10.56-7.040 3.84-1.6 8-2.24 12.16-2.24s8.32 0.64 12.16 2.24c3.84 1.6 7.36 4.16 10.56 7.040 2.88 2.88 5.12 6.4 6.72 10.24 1.6 4.16 2.56 8.32 2.56 12.48 0 8.32-3.52 16.64-9.28 22.72-9.28 8.64-23.36 11.52-34.88 6.72-4.16-1.6-7.68-3.84-10.56-6.72-2.88-3.2-5.12-6.72-7.040-10.56-1.6-3.84-2.24-8-2.24-12.16s0.64-8.32 2.24-12.48c1.92-3.84 4.16-7.36 7.040-10.24z" />
<glyph unicode="&#xe94d;" glyph-name="burger-menu" data-tags="burger-menu" d="M682.56 565.44h-341.44c-17.6 0-32-14.4-32-32s14.4-32 32-32h341.44c17.6 0 32 14.4 32 32s-14.4 32-32 32zM682.56 330.56c17.6 0 32 14.4 32 32s-14.4 32-32 32h-341.44c-17.6 0-32-14.4-32-32s14.4-32 32-32h341.44z" />
<glyph unicode="&#xe94e;" glyph-name="cabinet-files" data-tags="cabinet-files" d="M256.32 32h511.040c88.64 0 160.64 72 160.64 160.64v511.040c0 88.64-72 160.64-160.64 160.64h-511.040c-88.64 0-160.64-72-160.64-160.64v-511.040c0-88.64 72-160.64 160.64-160.64zM767.36 96h-511.040c-53.12 0-96.64 43.2-96.64 96.64v223.36h704v-223.36c0-53.12-43.2-96.64-96.64-96.64zM256.32 800h511.040c53.12 0 96.64-43.2 96.64-96.64v-223.36h-704v223.36c0 53.12 43.2 96.64 96.64 96.64zM384 629.44h256c17.6 0 32 14.4 32 32s-14.4 32-32 32h-256c-17.6 0-32-14.4-32-32s14.4-32 32-32zM640 266.56h-256c-17.6 0-32-14.4-32-32s14.4-32 32-32h256c17.6 0 32 14.4 32 32s-14.4 32-32 32z" />
<glyph unicode="&#xe94f;" glyph-name="calculator" data-tags="calculator" d="M842.56 149.76v596.48c0 64.96-52.8 117.76-117.76 117.76h-425.92c-64.96 0-117.76-52.8-117.76-117.76v-596.8c0-64.96 52.8-117.76 117.76-117.76h425.92c64.96 0 117.76 52.8 117.76 117.76zM245.12 149.76v596.48c0 29.44 24 53.76 53.76 53.76h425.92c29.44 0 53.76-24 53.76-53.76v-596.8c0-29.44-24-53.76-53.76-53.76h-425.92c-29.44 0-53.76 24-53.76 53.76zM682.56 693.44h-341.44c-17.6 0-32-14.4-32-32s14.4-32 32-32h341.44c17.6 0 32 14.4 32 32s-14.4 32-32 32zM363.84 513.28c-2.88 2.88-6.4 5.44-10.24 7.040-11.84 4.8-26.24 1.92-34.88-7.040-6.080-6.080-9.6-14.080-9.6-22.72 0-1.92 0-4.16 0.64-6.080 0.64-2.24 1.28-4.16 1.92-6.080 0.96-1.92 1.92-3.84 2.88-5.44 1.28-1.92 2.56-3.52 4.16-4.8 1.28-1.6 2.88-2.88 4.8-4.16 1.6-0.96 3.52-1.92 5.44-2.88 1.92-0.64 3.84-1.28 6.080-1.92 1.92 0 4.16-0.64 6.080-0.64 8.64 0 16.64 3.52 22.72 9.6 6.080 5.76 9.28 14.080 9.28 22.4 0 4.48-0.64 8.32-2.24 12.48-1.6 3.84-4.16 7.36-7.040 10.24zM489.28 513.28c-6.080-6.080-9.28-14.080-9.28-22.72s3.2-16.64 9.28-22.4c6.080-6.080 14.080-9.6 22.72-9.6s16.64 3.52 22.4 9.6c6.080 5.76 9.6 14.080 9.6 22.4s-3.52 16.64-9.6 22.72c-11.84 12.16-33.28 11.84-45.12 0zM682.56 458.56c2.24 0 4.16 0.32 6.4 0.64 1.92 0.64 3.84 1.28 5.76 1.92l5.76 2.88s3.2 2.56 4.8 4.16c6.080 5.76 9.28 14.080 9.28 22.4s-3.2 16.64-9.28 22.72c-1.6 1.6-3.2 2.88-4.8 3.84-1.92 1.28-3.84 2.24-5.76 3.2-1.92 0.64-3.84 1.28-5.76 1.6-10.56 2.24-21.44-1.28-29.12-8.64-5.76-6.080-9.28-14.080-9.28-22.72s3.52-16.64 9.28-22.4c6.080-6.080 14.4-9.6 22.72-9.6zM335.040 393.92c-2.24 0-4.16-0.96-6.080-1.6-1.92-0.96-3.84-1.92-5.44-2.88-1.92-1.28-3.52-2.56-4.8-4.16-1.6-1.6-2.88-3.2-4.16-4.8-0.96-1.92-1.92-3.52-2.88-5.44-0.64-1.92-1.28-4.16-1.92-6.080 0-2.24-0.64-4.16-0.64-6.4 0-4.16 0.96-8.32 2.56-12.16s3.84-7.36 7.040-10.56c1.28-1.28 2.88-2.56 4.8-3.84 1.6-1.28 3.52-2.24 5.44-2.88 1.92-0.96 3.84-1.6 6.080-1.92 1.92 0 4.16-0.64 6.080-0.64 8.64 0 16.64 3.52 22.72 9.28 2.88 3.2 5.44 6.72 7.040 10.56s2.24 8 2.24 12.16c0 8.64-3.2 16.96-9.28 22.72-7.36 7.36-18.56 10.88-28.8 8.64zM489.28 385.28c-6.080-6.080-9.28-14.080-9.28-22.72 0-4.16 0.64-8.32 2.24-12.16s4.16-7.36 7.040-10.24c6.080-6.080 14.080-9.6 22.72-9.6s16.64 3.52 22.4 9.6c3.2 2.88 5.44 6.4 7.040 10.24s2.56 8 2.56 12.16c0 8.64-3.52 16.64-9.6 22.72-11.84 11.84-33.28 11.84-45.12 0zM363.84 257.28c-7.36 7.36-18.56 10.88-28.8 8.64-2.24 0-4.16-0.96-6.080-1.6-1.92-0.96-3.84-1.92-5.44-3.2-1.92-0.96-3.52-2.24-4.8-3.84-3.2-2.88-5.44-6.4-7.040-10.24-1.6-4.16-2.56-8.32-2.56-12.48 0-8.32 3.52-16.64 9.6-22.4 1.28-1.6 2.88-2.88 4.8-4.16 1.6-0.96 3.52-2.24 5.44-2.88 1.92-0.96 3.84-1.6 6.080-1.92 1.92 0 4.16-0.64 6.080-0.64 8.64 0 16.64 3.52 22.72 9.6 6.080 5.76 9.28 14.080 9.28 22.4 0 4.16-0.64 8.32-2.24 12.48-1.6 3.84-4.16 7.36-7.040 10.24zM541.44 247.040c-0.64 1.92-1.92 3.52-2.88 5.44-1.28 1.6-2.56 3.2-4.16 4.8-11.84 11.84-33.28 11.84-45.12 0-1.6-1.6-2.88-3.2-3.84-4.8-1.28-1.92-2.24-3.52-3.2-5.44-0.64-2.24-1.28-4.16-1.6-6.080-0.64-2.24-0.64-4.16-0.64-6.4 0-8.32 3.2-16.64 9.28-22.4 6.080-6.080 14.4-9.6 22.72-9.6s16.64 3.52 22.4 9.6c6.080 5.76 9.6 14.080 9.6 22.4 0 2.24 0 4.16-0.64 6.4 0 1.92-0.96 3.84-1.92 6.080zM682.56 394.56c-17.6 0-32-14.4-32-32v-128c0-17.6 14.4-32 32-32s32 14.4 32 32v128c0 17.6-14.4 32-32 32z" />
<glyph unicode="&#xe950;" glyph-name="calendar" data-tags="calendar" d="M806.4 749.76c-16.32 1.92-32.64 3.84-49.28 5.44v34.24c0 17.6-14.4 32-32 32s-32-14.4-32-32v-28.48c-120.64 9.28-241.92 9.28-362.56 0v28.48c0 17.6-14.4 32-32 32s-32-14.4-32-32v-34.56c-15.68-1.6-31.36-3.2-46.72-5.12-47.68-6.4-92.48-48-102.080-94.72-27.2-137.28-27.2-276.48 0-414.080 9.6-46.72 54.4-88.32 102.4-94.72 97.28-12.16 195.2-18.56 293.12-18.56s195.84 6.080 293.12 18.56c0 0 0 0 0 0 47.68 6.4 92.48 48 102.080 94.72 27.2 137.28 27.2 276.48 0 414.080-9.6 46.72-54.4 88.32-102.4 94.72zM846.080 253.76c-4.16-19.52-27.52-41.28-47.68-44.16-189.12-24-381.12-23.68-569.92 0-20.16 2.56-43.84 24.64-48 43.84-25.6 128.96-25.6 259.84 0 388.48 4.16 19.52 27.84 41.28 47.68 44.16 12.8 1.6 25.6 2.88 38.4 4.16v-29.12c0-17.6 14.4-32 32-32s32 14.4 32 32v35.2c60.8 4.8 121.6 7.68 182.72 7.68s120-2.56 179.84-7.36v-35.2c0-17.6 14.4-32 32-32s32 14.4 32 32v29.44c13.76-1.6 27.2-2.88 40.96-4.48 20.16-2.56 43.84-24.64 48-43.84 25.6-128.96 25.6-259.84 0-388.48zM586.56 490.56c0 17.6-14.4 32-32 32h-256c-17.6 0-32-14.4-32-32s14.4-32 32-32h256c17.6 0 32 14.4 32 32zM768 352h-298.56c-17.6 0-32-14.4-32-32s14.4-32 32-32h298.56c17.6 0 32 14.4 32 32s-14.4 32-32 32z" />
<glyph unicode="&#xe951;" glyph-name="camera" data-tags="camera" d="M910.4 570.56c-8.96 47.36-53.76 88.96-102.080 95.040-39.68 4.8-80 8.32-120.32 11.2 0 4.16 0 8.32 0 12.48-1.92 50.24-48 94.72-100.8 97.28-48.64 1.92-98.24 1.92-147.52 0-52.48-2.56-98.56-47.040-100.48-97.6 0-4.16 0-8 0-12.16-40.32-2.88-80.96-6.72-120.64-11.2-48-6.080-92.8-47.68-101.76-95.040-25.28-137.6-25.28-277.44 0-415.36 8.96-47.36 53.76-88.96 102.080-95.040 97.92-11.52 196.48-17.28 295.040-17.28s197.12 5.76 295.36 17.28c48 6.080 92.8 47.68 101.76 95.040 25.28 137.6 25.28 277.44 0 415.040 0 0 0 0 0 0zM847.36 166.72c-3.84-19.84-26.56-40.96-46.72-43.52-190.72-22.4-384.32-22.4-574.72 0-20.48 2.56-43.2 23.68-47.040 43.2-23.68 130.24-23.68 262.080 0 392 3.84 19.84 26.56 40.96 46.72 43.52 48.32 5.76 98.24 9.92 147.52 12.8 17.6 0.96 31.040 16 30.080 33.6-0.64 12.8-0.96 25.6-0.64 38.080 0.64 16.96 20.8 34.88 39.36 35.84 23.68 0.96 47.36 1.28 71.040 1.28s47.36-0.32 70.72-1.28c18.88-0.96 39.040-19.2 39.68-35.52 0.32-12.8 0-25.6-0.64-38.4-0.96-17.6 12.48-32.64 30.080-33.6 49.6-2.88 99.2-7.040 147.52-12.8 20.16-2.56 43.2-23.68 46.72-43.2 23.68-129.92 23.68-262.080 0-391.68zM512 522.56c-88.32 0-160-71.68-160-160s71.68-160 160-160 160 71.68 160 160-71.68 160-160 160zM512 266.56c-52.8 0-96 43.2-96 96s43.2 96 96 96 96-43.2 96-96-43.2-96-96-96zM768 522.88c-17.6 0-32-14.4-32-32v-42.88c0-17.6 14.4-32 32-32s32 14.4 32 32v42.88c0 17.6-14.4 32-32 32z" />
<glyph unicode="&#xe952;" glyph-name="candlesticks" data-tags="candlesticks" d="M928 618.88c0 53.44-36.16 98.24-85.44 112.32v58.24c0 17.6-14.4 32-32 32s-32-14.4-32-32v-58.24c-48.96-14.080-85.44-58.88-85.44-112.32v-139.52c0-53.44 36.16-98.24 85.44-112.32v-260.16c0-17.6 14.4-32 32-32s32 14.4 32 32v260.16c48.96 14.080 85.44 58.88 85.44 112.32v139.52zM864 479.36c0-29.44-24-53.44-53.44-53.44s-53.44 24-53.44 53.44v139.52c0 29.44 24 53.44 53.44 53.44s53.44-24 53.44-53.44v-139.52zM181.12 506.56v-399.68c0-17.6 14.4-32 32-32s32 14.4 32 32v399.68c48.96 14.080 85.44 58.88 85.44 112.32s-36.16 98.24-85.44 112.32v58.24c0 17.6-14.4 32-32 32s-32-14.4-32-32v-58.24c-48.96-14.080-85.44-58.88-85.44-112.32s36.16-98.24 85.44-112.32zM213.12 672c29.44 0 53.44-24 53.44-53.44s-24-53.44-53.44-53.44-53.44 24-53.44 53.44 24 53.44 53.44 53.44zM629.44 320c0 53.44-36.16 98.24-85.44 112.32v357.12c0 17.6-14.4 32-32 32s-32-14.4-32-32v-357.12c-48.96-14.080-85.44-58.88-85.44-112.32s36.16-98.24 85.44-112.32v-101.12c0-17.6 14.4-32 32-32s32 14.4 32 32v101.12c48.96 14.080 85.44 58.88 85.44 112.32zM512 266.56c-29.44 0-53.44 24-53.44 53.44s24 53.44 53.44 53.44 53.44-24 53.44-53.44-24-53.44-53.44-53.44z" />
<glyph unicode="&#xe953;" glyph-name="candlesticks-down" data-tags="candlesticks-down" d="M341.12 74.56c17.6 0 32 14.4 32 32v260.16c48.96 14.080 85.44 58.88 85.44 112.32v139.52c0 53.44-36.16 98.24-85.44 112.32v58.24c0 17.6-14.4 32-32 32s-32-14.4-32-32v-58.24c-48.96-14.080-85.44-58.88-85.44-112.32v-139.52c0-53.44 36.16-98.24 85.44-112.32v-260.16c0-17.6 14.4-32 32-32zM288 479.36v139.52c0 29.44 24 53.44 53.44 53.44s53.44-24 53.44-53.44v-139.52c0-29.44-24-53.44-53.44-53.44s-53.44 24-53.44 53.44zM714.56 106.56v101.12c48.96 14.080 85.44 58.88 85.44 112.32s-36.16 98.24-85.44 112.32v357.12c0 17.6-14.4 32-32 32s-32-14.4-32-32v-357.12c-48.96-14.080-85.44-58.88-85.44-112.32s36.16-98.24 85.44-112.32v-101.12c0-17.6 14.4-32 32-32s32 14.4 32 32zM629.44 320c0 29.44 24 53.44 53.44 53.44s53.44-24 53.44-53.44-24-53.44-53.44-53.44-53.44 24-53.44 53.44z" />
<glyph unicode="&#xe954;" glyph-name="candlesticks-up" data-tags="candlesticks-up" d="M800 479.36v139.52c0 53.44-36.16 98.24-85.44 112.32v58.24c0 17.6-14.4 32-32 32s-32-14.4-32-32v-58.24c-48.96-14.080-85.44-58.88-85.44-112.32v-139.52c0-53.44 36.16-98.24 85.44-112.32v-260.16c0-17.6 14.4-32 32-32s32 14.4 32 32v260.16c48.96 14.080 85.44 58.88 85.44 112.32zM736 479.36c0-29.44-24-53.44-53.44-53.44s-53.44 24-53.44 53.44v139.52c0 29.44 24 53.44 53.44 53.44s53.44-24 53.44-53.44v-139.52zM458.56 320c0 53.44-36.16 98.24-85.44 112.32v357.12c0 17.6-14.4 32-32 32s-32-14.4-32-32v-357.12c-48.96-14.080-85.44-58.88-85.44-112.32s36.16-98.24 85.44-112.32v-101.12c0-17.6 14.4-32 32-32s32 14.4 32 32v101.12c48.96 14.080 85.44 58.88 85.44 112.32zM341.12 266.56c-29.44 0-53.44 24-53.44 53.44s24 53.44 53.44 53.44 53.44-24 53.44-53.44-24-53.44-53.44-53.44z" />
</font>
</defs>
</svg>
