<svg width="104" height="60" viewBox="0 0 104 60" fill="none" xmlns="http://www.w3.org/2000/svg">
<g clip-path="url(#clip0_12_113)">
<path d="M37.7736 11.4637L25.769 19.9562L22.2308 15.2953L39.6129 0.895508L50.9727 16.2275L46.2571 20.4765L37.7736 11.4637Z" fill="white"/>
<path d="M78.0774 11.4637L66.0728 19.9562L62.5347 15.2953L79.9167 0.895508L91.2486 16.2275L86.533 20.4765L78.0774 11.4637Z" fill="white"/>
<path d="M5.31973 21.2031C9.75775 25.502 14.5426 29.4527 19.6291 33.0178C24.5448 36.4696 29.7843 39.4688 35.2786 41.9764C40.6083 44.4066 46.1755 46.3166 51.8979 47.6778C57.5625 49.0218 63.3742 49.7006 69.207 49.6993C74.701 49.7436 80.1886 49.3265 85.6078 48.4528C90.45 47.6248 95.1614 46.1967 99.6256 44.2038L103.915 51.5636C99.2376 54.0551 94.2232 55.903 89.017 57.0536C83.1858 58.3858 77.2118 59.0462 71.2199 59.021C58.1315 59.1273 45.1812 56.4307 33.2991 51.1246C21.5803 45.8423 10.6819 38.0201 0.604065 27.6578L5.31973 21.2031Z" fill="white"/>
</g>
<defs>
<clipPath id="clip0_12_113">
<rect width="103.333" height="58.125" fill="white" transform="translate(0.604156 0.895508)"/>
</clipPath>
</defs>
</svg>
