<svg width="105" height="62" viewBox="0 0 105 62" fill="none" xmlns="http://www.w3.org/2000/svg">
<path d="M0.279114 36.6268V27.5098L104.865 52.4989V61.616L0.279114 36.6268Z" fill="white"/>
<path d="M44.2216 7.27234C44.2216 9.03404 43.7468 10.4198 42.7973 11.4241C41.8478 12.434 40.4518 12.9333 38.615 12.9333C36.3317 12.9333 34.574 12.2601 33.3363 10.9023C32.0985 9.5502 31.4825 7.99048 31.4825 6.22878C31.4825 4.46709 31.9742 3.06446 32.9576 2.02652C33.941 0.988574 35.3822 0.466797 37.2812 0.466797C38.3607 0.466797 39.3271 0.674386 40.1806 1.07834C41.034 1.48791 41.7631 2.00969 42.3678 2.63806C42.9725 3.26644 43.4303 3.99019 43.7468 4.80933C44.0633 5.62846 44.2216 6.44759 44.2216 7.26112V7.27234ZM82.1562 16.2379C82.1562 17.9996 81.6815 19.3854 80.732 20.3897C79.7825 21.3996 78.3865 21.8989 76.5497 21.8989C74.2664 21.8989 72.5087 21.2257 71.2709 19.8679C70.0332 18.5158 69.4171 16.9561 69.4171 15.1944C69.4171 13.4327 69.9088 12.03 70.8922 10.9921C71.8757 9.95416 73.3169 9.43238 75.2159 9.43238C76.2953 9.43238 77.2618 9.63997 78.1152 10.0439C78.9686 10.4535 79.6977 10.9753 80.3025 11.6036C80.9072 12.232 81.365 12.9558 81.6814 13.7749C81.9979 14.594 82.1562 15.4132 82.1562 16.2267V16.2379Z" fill="white"/>
</svg>
