<svg width="106" height="58" viewBox="0 0 106 58" fill="none" xmlns="http://www.w3.org/2000/svg">
<path d="M5.69892 18.3301C10.2373 22.8353 15.0469 26.9085 20.1222 30.5554C25.2032 34.2022 30.4593 37.2936 35.8963 39.8351C41.3333 42.3767 46.9173 44.3404 52.6425 45.7318C58.3677 47.1288 64.1834 47.8245 70.0895 47.8245C75.9956 47.8245 81.7208 47.3981 86.6209 46.5397C91.521 45.6813 96.2346 44.2169 100.773 42.1411L105.097 49.7545C100.773 52.1839 95.7655 54.0802 90.0798 55.4379C84.3885 56.7957 78.4089 57.4746 72.1467 57.4746C58.4638 57.4746 45.7134 54.7366 33.9012 49.272C22.089 43.8018 11.102 35.7058 0.945786 24.9785L5.69892 18.3301Z" fill="white"/>
<path d="M52.1395 18.6271C49.8562 18.3129 47.5446 17.7799 45.1991 17.0225C42.8536 16.265 40.559 15.3393 38.3039 14.2396C36.0545 13.14 33.9012 11.8945 31.8383 10.5143C29.7811 9.12848 27.8934 7.68097 26.1809 6.17174L28.6507 0.224609C30.3632 1.48136 32.234 2.63152 34.2573 3.66946C36.2863 4.7074 38.3435 5.60508 40.4347 6.35689C42.5258 7.11431 44.5718 7.74268 46.5668 8.24202C48.5619 8.74696 50.4157 9.0892 52.1282 9.27996V18.6215L52.1395 18.6271ZM78.002 20.9891C78.002 19.2274 78.4767 17.8416 79.4262 16.8373C80.3757 15.8274 81.7717 15.3281 83.6085 15.3281C85.8918 15.3281 87.6495 16.0013 88.8873 17.3591C90.125 18.7112 90.741 20.2709 90.741 22.0326C90.741 23.7943 90.2493 25.197 89.2659 26.2349C88.2825 27.2728 86.8413 27.7946 84.9423 27.7946C83.8629 27.7946 82.8964 27.587 82.043 27.1831C81.1896 26.7735 80.4605 26.2517 79.8557 25.6234C79.251 24.995 78.7932 24.2712 78.4767 23.4521C78.1602 22.633 78.002 21.8138 78.002 21.0003V20.9891Z" fill="white"/>
</svg>
