<svg width="105" height="75" viewBox="0 0 105 75" fill="none" xmlns="http://www.w3.org/2000/svg">
<path d="M99.8433 74.3476C95.3049 69.8424 90.4953 65.7691 85.42 62.1223C80.3447 58.4755 75.0829 55.3841 69.6459 52.8425C64.2089 50.3066 58.6249 48.3373 52.8997 46.9459C47.1745 45.5489 41.3588 44.8532 35.4527 44.8532C29.5466 44.8532 23.8214 45.2796 18.9213 46.138C14.0212 46.9964 9.30766 48.4607 4.76929 50.5366L0.445679 42.9232C4.76928 40.4938 9.77672 38.5975 15.4624 37.2397C21.1537 35.882 27.1334 35.2031 33.3955 35.2031C47.0841 35.2031 59.8288 37.9411 71.641 43.4057C83.4532 48.8759 94.4402 56.9719 104.596 67.6992L99.8433 74.3476Z" fill="white"/>
<path d="M43.953 7.24011C43.953 9.00181 43.4782 10.3876 42.5287 11.3919C41.5792 12.4018 40.1832 12.9011 38.3464 12.9011C36.0631 12.9011 34.3054 12.2278 33.0677 10.8701C31.8299 9.51798 31.2139 7.95826 31.2139 6.19656C31.2139 4.43486 31.7056 3.03223 32.689 1.99429C33.6724 0.956347 35.1136 0.43457 37.0126 0.43457C38.0921 0.43457 39.0585 0.642159 39.9119 1.04612C40.7654 1.45568 41.4944 1.97746 42.0992 2.60584C42.7039 3.23421 43.1617 3.95797 43.4782 4.7771C43.7947 5.59623 43.953 6.41537 43.953 7.22889V7.24011ZM81.8876 16.2057C81.8876 17.9674 81.4129 19.3532 80.4634 20.3575C79.5139 21.3674 78.1179 21.8667 76.2811 21.8667C73.9978 21.8667 72.2401 21.1934 71.0023 19.8357C69.7646 18.4836 69.1485 16.9238 69.1485 15.1621C69.1485 13.4004 69.6403 11.9978 70.6237 10.9599C71.6071 9.92193 73.0483 9.40016 74.9472 9.40016C76.0267 9.40016 76.9932 9.60774 77.8466 10.0117C78.7 10.4213 79.4291 10.943 80.0338 11.5714C80.6386 12.1998 81.0964 12.9236 81.4129 13.7427C81.7294 14.5618 81.8876 15.381 81.8876 16.1945V16.2057Z" fill="white"/>
</svg>
