<svg width="86" height="84" viewBox="0 0 86 84" fill="none" xmlns="http://www.w3.org/2000/svg">
<path d="M73.3763 40.6453C75.0323 40.6453 76.7109 40.505 78.4008 40.2189C80.0963 39.9327 81.9105 39.4334 83.8547 38.7152L85.149 47.5125C83.5665 48.298 81.6562 48.9095 79.4237 49.3359C80.8649 50.9069 82.3061 53.022 83.7473 55.6646C85.1885 58.3127 85.9063 61.5612 85.9063 65.4268C85.9063 68.5743 85.4203 71.2898 84.4482 73.5789C83.4761 75.868 82.0913 77.7643 80.2884 79.2624C78.4912 80.766 76.3435 81.8712 73.8567 82.5894C71.3699 83.3075 68.6514 83.661 65.7012 83.661C60.8746 83.661 56.1554 82.8587 51.5492 81.2485C46.943 79.6383 42.8342 77.2426 39.234 74.0614C35.6338 70.8803 32.7345 66.8912 30.5359 62.0998C28.3431 57.3085 27.2409 51.7316 27.2409 45.3693C27.2409 44.5838 27.2805 43.7984 27.3483 43.0073C27.4218 42.2218 27.5292 41.3971 27.6705 40.5387L2.39014 34.5298L0.660706 24.1279L63.8644 39.2482C65.5204 39.6073 67.1029 39.9271 68.6175 40.2132C70.1322 40.4994 71.7147 40.6396 73.3707 40.6396L73.3763 40.6453ZM77.3721 63.3846C77.3721 60.383 76.7448 57.8246 75.4788 55.7151C74.2185 53.6055 72.7603 51.7653 71.1043 50.1943C69.9513 50.1214 68.7136 49.998 67.3798 49.8184C66.046 49.6389 64.5878 49.3752 63.0053 49.0161L35.9955 42.5809C35.8542 43.2261 35.7638 43.9386 35.7243 44.7241C35.6903 45.5096 35.6734 46.2614 35.6734 46.9739C35.6734 51.0471 36.4646 54.7332 38.0528 58.021C39.6353 61.3087 41.7604 64.1196 44.428 66.4423C47.09 68.7651 50.1702 70.5548 53.663 71.806C57.1558 73.0571 60.8125 73.6855 64.6274 73.6855C66.2834 73.6855 67.8659 73.506 69.3805 73.1469C70.8952 72.7878 72.246 72.2212 73.4328 71.4301C74.6197 70.6446 75.5749 69.5898 76.2983 68.2658C77.0217 66.9417 77.3778 65.3146 77.3778 63.3846H77.3721Z" fill="white"/>
<path d="M33.7179 18.837C31.4346 18.5228 29.123 17.9898 26.7775 17.2324C24.432 16.475 22.1374 15.5493 19.8824 14.4496C17.6329 13.3499 15.4796 12.1044 13.4167 10.7242C11.3595 9.33844 9.47182 7.89093 7.75934 6.3817L10.2292 0.43457C11.9416 1.69132 13.8124 2.84148 15.8357 3.87942C17.8647 4.91736 19.9219 5.81504 22.0131 6.56685C24.1042 7.32427 26.1502 7.95264 28.1453 8.45198C30.1403 8.95693 31.9941 9.29917 33.7066 9.48992V18.8314L33.7179 18.837ZM59.5804 21.199C59.5804 19.4373 60.0551 18.0516 61.0046 17.0473C61.9541 16.0374 63.3501 15.538 65.1869 15.538C67.4703 15.538 69.2279 16.2113 70.4657 17.569C71.7034 18.9212 72.3195 20.4809 72.3195 22.2426C72.3195 24.0043 71.8278 25.4069 70.8444 26.4449C69.861 27.4828 68.4197 28.0046 66.5208 28.0046C65.4413 28.0046 64.4748 27.797 63.6214 27.393C62.768 26.9835 62.0389 26.4617 61.4342 25.8333C60.8294 25.2049 60.3716 24.4812 60.0551 23.6621C59.7386 22.8429 59.5804 22.0238 59.5804 21.2103V21.199Z" fill="white"/>
</svg>
