<svg width="79" height="81" viewBox="0 0 79 81" fill="none" xmlns="http://www.w3.org/2000/svg">
<path d="M23.1537 27.4961C26.686 27.4961 30.518 27.8159 34.6607 28.4611C38.8035 29.1063 42.9462 30.0545 47.0833 31.3056C51.226 32.5568 55.2049 34.1502 59.0198 36.0802C62.8404 38.0102 66.2258 40.2824 69.176 42.8913C72.1319 45.5002 74.4887 48.4513 76.2521 51.7391C78.0154 55.0268 78.897 58.64 78.897 62.573C78.897 68.6491 77.0094 73.1375 73.2227 76.0326C69.4417 78.9276 63.8408 80.3751 56.42 80.3751C52.8933 80.3751 49.0557 80.0553 44.913 79.4101C40.7702 78.7649 36.6331 77.8223 32.4904 76.5656C28.3476 75.3144 24.3688 73.721 20.5539 71.791C16.7389 69.861 13.3535 67.5887 10.3976 64.9799C7.44743 62.371 5.08498 59.4367 3.32162 56.1826C1.55827 52.9285 0.676636 49.3041 0.676636 45.2982C0.676636 39.222 2.56428 34.7336 6.35096 31.8386C10.132 28.9436 15.7329 27.4961 23.1537 27.4961ZM24.4479 37.6848C19.0448 37.6848 15.1904 38.33 12.8844 39.6148C10.5785 40.8996 9.42556 43.1887 9.42556 46.4764C9.42556 48.6926 10.1094 50.8414 11.4772 52.9117C12.8449 54.9876 14.6817 56.9007 16.9876 58.6512C19.2935 60.4017 21.9781 61.9951 25.0357 63.4258C28.099 64.8564 31.3205 66.0739 34.7059 67.0726C38.0913 68.0769 41.5502 68.8399 45.0769 69.3785C48.6092 69.9171 51.9551 70.1808 55.1257 70.1808C60.5288 70.1808 64.3833 69.5356 66.6892 68.2508C68.9952 66.966 70.1481 64.6769 70.1481 61.3891C70.1481 59.1001 69.4642 56.94 68.0965 54.8978C66.7288 52.8612 64.892 50.9648 62.586 49.2144C60.2801 47.4639 57.6012 45.8705 54.5379 44.4398C51.4747 43.0091 48.2532 41.7973 44.8678 40.793C41.4824 39.7943 38.0461 39.0257 34.5476 38.4871C31.0548 37.9485 27.6864 37.6848 24.4479 37.6848Z" fill="white"/>
<path d="M36.6275 7.72449C36.6275 9.48619 36.1528 10.872 35.2033 11.8763C34.2538 12.8861 32.8578 13.3855 31.021 13.3855C28.7376 13.3855 26.98 12.7122 25.7422 11.3545C24.5045 10.0024 23.8884 8.44263 23.8884 6.68093C23.8884 4.91923 24.3801 3.51661 25.3635 2.47867C26.3469 1.44072 27.7882 0.918945 29.6871 0.918945C30.7666 0.918945 31.7331 1.12653 32.5865 1.53049C33.4399 1.94006 34.169 2.46183 34.7737 3.09021C35.3785 3.71859 35.8362 4.44234 36.1527 5.26148C36.4692 6.08061 36.6275 6.89974 36.6275 7.71327V7.72449ZM74.5622 16.6901C74.5622 18.4518 74.0874 19.8376 73.1379 20.8418C72.1884 21.8517 70.7924 22.3511 68.9556 22.3511C66.6723 22.3511 64.9146 21.6778 63.6769 20.3201C62.4391 18.9679 61.8231 17.4082 61.8231 15.6465C61.8231 13.8848 62.3148 12.4822 63.2982 11.4443C64.2816 10.4063 65.7228 9.88453 67.6218 9.88453C68.7013 9.88453 69.6677 10.0921 70.5212 10.4961C71.3746 10.9056 72.1037 11.4274 72.7084 12.0558C73.3131 12.6842 73.7709 13.4079 74.0874 14.2271C74.4039 15.0462 74.5622 15.8653 74.5622 16.6789V16.6901Z" fill="white"/>
</svg>
