<svg xmlns="http://www.w3.org/2000/svg" version="1.1" viewBox="0 0 32 32">
<title>3d</title>
<path d="M4.9,9.9c.7,0,1.3-.6,1.3-1.3v-1.6c0-.4.3-.8.8-.8h1.6c.7,0,1.3-.6,1.3-1.3s-.6-1.3-1.3-1.3h-1.6c-1.9,0-3.4,1.5-3.4,3.4v1.6c0,.7.6,1.3,1.3,1.3Z"/>
<path d="M25,3.6h-1.6c-.7,0-1.3.6-1.3,1.3s.6,1.3,1.3,1.3h1.6c.4,0,.8.3.8.8v1.6c0,.7.6,1.3,1.3,1.3s1.3-.6,1.3-1.3v-1.6c0-1.9-1.5-3.4-3.4-3.4Z"/>
<path d="M27.1,22.1c-.7,0-1.3.6-1.3,1.3v1.6c0,.4-.3.8-.8.8h-1.6c-.7,0-1.3.6-1.3,1.3s.6,1.3,1.3,1.3h1.6c1.9,0,3.4-1.5,3.4-3.4v-1.6c0-.7-.6-1.3-1.3-1.3Z"/>
<path d="M8.6,25.8h-1.6c-.4,0-.8-.3-.8-.8v-1.6c0-.7-.6-1.3-1.3-1.3s-1.3.6-1.3,1.3v1.6c0,1.9,1.5,3.4,3.4,3.4h1.6c.7,0,1.3-.6,1.3-1.3s-.6-1.3-1.3-1.3Z"/>
<path d="M16.7,23.6l5.6-3.2c.4-.2.7-.7.7-1.1v-6.4s0,0,0-.1c0,0,0,0,0-.1,0-.3-.2-.6-.4-.8,0,0,0,0,0,0,0,0,0,0,0,0l-5.6-3.2c-.4-.2-.9-.2-1.3,0l-5.6,3.2s0,0,0,0c0,0,0,0,0,0-.1,0-.2.2-.3.3,0,0,0,0,0,0,0,0,0,0,0,0,0,.1-.1.3-.1.4,0,0,0,0,0,.1,0,0,0,0,0,.1v6.4c0,.5.2.9.7,1.1l5.6,3.2s0,0,0,0c0,0,0,0,.1,0,.1,0,.3,0,.4,0s.3,0,.4,0c0,0,0,0,.1,0,0,0,0,0,0,0ZM17.3,20.2v-3.4l3-1.7v3.4l-3,1.7ZM16,11.1l3,1.7-3,1.7-3-1.7,3-1.7ZM11.7,15l3,1.7v3.4l-3-1.7v-3.4Z"/>
</svg>