<!-- Generator: Adobe Illustrator 28.7.1, SVG Export Plug-In . SVG Version: 1.2.0 Build 142)  -->
<svg xmlns="http://www.w3.org/2000/svg" version="1.1" viewBox="0 0 32 32">
<title>arrow-fullscreen</title>
<path d="M24.5,6.2h-6.6c-.8,0-1.3.6-1.3,1.3,0,.8.6,1.3,1.3,1.3h0s3.4,0,3.4,0l-12.5,12.5v-3.4c0-.8-.6-1.3-1.3-1.3-.8,0-1.3.6-1.3,1.3v6.6c0,.8.6,1.3,1.3,1.3h6.6c.8,0,1.3-.6,1.3-1.3,0-.8-.6-1.3-1.3-1.3h0s-3.4,0-3.4,0l12.5-12.5v3.4c0,.8.6,1.3,1.3,1.3.8,0,1.3-.6,1.3-1.3v-6.6c0-.8-.6-1.3-1.3-1.3Z"/>
</svg>