<svg xmlns="http://www.w3.org/2000/svg" version="1.1" viewBox="0 0 32 32">
<title>arrow-circling</title>
<path d="M24.1,20.8c.4-.7.6-1.3.8-2.1,0,0,0-.1,0-.2,0-.7-.3-1.3-1-1.4-.7-.1-1.5.2-1.6.9-.3,1-.8,2-1.6,2.8-.3.3-.7.6-1,.8-1.4,1-3.2,1.3-4.8,1-.3,0-.5-.1-.8-.2,0,0,0,0-.1,0-.1,0-.3-.1-.4-.2-.6-.3-1.1-.6-1.6-1s-1-1-1.4-1.6c-.9-1.6-1.1-3.8-.5-5.6,0,.2-.2.4-.2.7,0-.2.1-.4.2-.7,0,0,0,0,0,0,0,0,0,0,0,0,.3-.8.8-1.5,1.3-2.1.3-.3.7-.6,1.1-.9,1.8-1.2,4.1-1.4,6.1-.5-.7,0-1.3.6-1.3,1.4,0,.8.7,1.3,1.4,1.3h3s.8,0,.8,0c.7,0,1.3-.7,1.3-1.4h0c0-.1,0-3.8,0-3.8,0-.7-.7-1.3-1.4-1.3s-1.3.7-1.3,1.4v.8c-1-.7-2-1.1-3.2-1.3-.2,0-.4,0-.4,0-2.2-.3-4.6.2-6.5,1.5-.5.3-1,.7-1.4,1.2-.5.6-1,1.1-1.3,1.7-.4.7-.7,1.4-.9,2.2,0,.1,0,.4,0,.4-.5,2.2,0,4.6,1.1,6.6.5.8,1.1,1.6,1.9,2.3s.8.6,1.1.9c1,.7,1.8.9,2.9,1.1,0,0,0,0,.1,0,2.4.4,4.9,0,6.9-1.5.5-.3.9-.7,1.3-1.1.7-.7,1.1-1.3,1.4-1.8Z"/>
</svg>