<!-- Generator: Adobe Illustrator 28.7.1, SVG Export Plug-In . SVG Version: 1.2.0 Build 142)  -->
<svg xmlns="http://www.w3.org/2000/svg" version="1.1" viewBox="0 0 32 32">
<title>arrow-response</title>
<path d="M28.3,19.2v-6.6c0-.8-.6-1.3-1.3-1.3h-6.6c-.8,0-1.3.6-1.3,1.3,0,.8.6,1.3,1.3,1.3h0s3.4,0,3.4,0l-12.2,12.2c-.5.5-.5,1.3,0,1.8.5.5,1.3.5,1.9,0l12.1-12.1v3.4c0,.8.6,1.3,1.3,1.3.8,0,1.3-.6,1.3-1.3Z"/>
<path d="M11.6,20.7h-6.6c-.8,0-1.3-.6-1.3-1.3v-6.6c0-.8.6-1.3,1.3-1.3.8,0,1.3.6,1.3,1.3h0v3.4l12.2-12.2c.5-.5,1.3-.5,1.8,0,.5.5.5,1.3,0,1.9l-12.1,12.1h3.4c.8,0,1.3.6,1.3,1.3,0,.8-.6,1.3-1.3,1.3Z"/>
</svg>