<!-- Generator: Adobe Illustrator 28.7.1, SVG Export Plug-In . SVG Version: 1.2.0 Build 142)  -->
<svg xmlns="http://www.w3.org/2000/svg" version="1.1" viewBox="0 0 32 32">
<title>arrow-sync</title>
<path d="M-54.5,19.2v-6.6c0-.8-.6-1.3-1.3-1.3h-6.6c-.8,0-1.3.6-1.3,1.3,0,.8.6,1.3,1.3,1.3h0s3.4,0,3.4,0l-12.2,12.2c-.5.5-.5,1.3,0,1.8.5.5,1.3.5,1.9,0l12.1-12.1v3.4c0,.8.6,1.3,1.3,1.3.8,0,1.3-.6,1.3-1.3Z"/>
<path d="M-71.2,20.7h-6.6c-.8,0-1.3-.6-1.3-1.3v-6.6c0-.8.6-1.3,1.3-1.3.8,0,1.3.6,1.3,1.3h0v3.4l12.2-12.2c.5-.5,1.3-.5,1.8,0,.5.5.5,1.3,0,1.9l-12.1,12.1h3.4c.8,0,1.3.6,1.3,1.3,0,.8-.6,1.3-1.3,1.3Z"/>
<path d="M29,9.1l-4.6-4.6c-.5-.5-1.4-.5-1.9,0l-4.6,4.6c-.5.5-.5,1.3,0,1.9.5.5,1.4.5,1.9,0l2.4-2.4v12.8c0,1.6-1.3,3-3,3h-1.5c-.7,0-1.3.6-1.3,1.3s.6,1.3,1.3,1.3h1.5c3.1,0,5.6-2.5,5.6-5.6v-12.8l2.4,2.4c.3.3.6.4.9.4s.7-.1.9-.4c.5-.5.5-1.3,0-1.9Z"/>
<path d="M14.4,4.1h-1.5c-3.1,0-5.6,2.5-5.6,5.6v12.8l-2.4-2.4c-.5-.5-1.3-.5-1.9,0-.5.5-.5,1.3,0,1.9l4.6,4.6c.2.2.6.4.9.4s.7-.1.9-.4l4.6-4.6c.5-.5.5-1.3,0-1.9-.5-.5-1.3-.5-1.9,0l-2.4,2.4v-12.8c0-1.6,1.3-3,3-3h1.5c.7,0,1.3-.6,1.3-1.3s-.6-1.3-1.3-1.3Z"/>
</svg>