<svg xmlns="http://www.w3.org/2000/svg" version="1.1" viewBox="0 0 32 32">
<title>book</title>
<path d="M23.8,2.1c-.4-.8-1.3-1.4-2.3-1.4h-4.3c-.9,0-1.8.5-2.2,1.3h-5.7c-2.9,0-5.3,2.4-5.3,5.3v18.7c0,2.9,2.4,5.3,5.3,5.3h13.3c2.9,0,5.3-2.4,5.3-5.3V7.3c0-2.5-1.8-4.7-4.2-5.2ZM17.3,3.3h4.2v4.9l-1.1-.7c-.3-.2-.7-.3-1-.3s-.7.1-1,.3l-1.1.7V3.3ZM22.7,28.7h-13.3c-1.5,0-2.7-1.2-2.7-2.7V7.3c0-1.5,1.2-2.7,2.7-2.7h5.4v6c0,.5.3.9.7,1.1.4.2.9.2,1.3,0l2.7-1.8,2.7,1.8c.2.2.5.2.7.2s.4,0,.6-.1c.4-.2.7-.7.7-1.2v-5.6c.7.5,1.3,1.3,1.3,2.3v16.8s0,0-.1,0h-13.9c-.7,0-1.3.6-1.3,1.3s.6,1.3,1.3,1.3h13.9c-.3,1.1-1.3,1.9-2.5,1.9Z"/>
</svg>