<svg xmlns="http://www.w3.org/2000/svg" version="1.1" viewBox="0 0 32 32">
<title>bookmark plus</title>
<path d="M27.7,6.4c-.1-2.7-2.1-4.7-4.8-4.9-1.7,0-4-.1-6.9-.1s-5.2.1-6.9.1c-2.7.1-4.7,2.3-4.8,4.9-.1,2.1-.3,5.3-.3,9.6,0,6.7.3,11.3.4,13.7.1,1.1,1.2,1.5,2,.9l8.8-6.1c.4-.3,1.1-.3,1.6,0l8.8,6.1c.8.5,2,.1,2-.9.1-2.4.4-7.1.4-13.7s-.1-7.5-.3-9.6ZM25.1,27.1l-6.8-4.8c-1.3-.9-3.2-.9-4.7,0l-6.8,4.8c0-2.5-.1-6.3-.1-11.1s.1-7.3.3-9.5c.1-1.3,1.1-2.3,2.4-2.4,1.6,0,3.9-.1,6.7-.1s5.1.1,6.8.1c1.3.1,2.3,1.1,2.4,2.4,0,2.1.1,5.2.1,9.5s-.1,8.5-.3,11.1Z"/>
<path d="M19.4,11.6h-2.1v-2.1c0-.7-.6-1.3-1.3-1.3s-1.3.6-1.3,1.3v2.1h-2.1c-.7,0-1.3.6-1.3,1.3s.6,1.3,1.3,1.3h2.1v2.1c0,.7.6,1.3,1.3,1.3s1.3-.6,1.3-1.3v-2.1h2.1c.7,0,1.3-.6,1.3-1.3s-.6-1.3-1.3-1.3Z"/>
</svg>