<svg xmlns="http://www.w3.org/2000/svg" version="1.1" viewBox="0 0 32 32">
<title>car</title>
<path d="M27.7,12.2l-3.2-3.2c-.8-.8-1.8-1.2-2.9-1.2h-9c-.3,0-.7.1-.9.4l-4.1,4.1-4,1c-1.2.3-2,1.3-2.1,2.5l-.2,2.2c0,.9.3,1.7.9,2.4.6.6,1.5,1,2.3,1h2.7c.6,1.7,2.1,2.9,4,2.9s3.5-1.2,4-2.9h3.7c.6,1.7,2.1,2.9,4,2.9s3.5-1.2,4-2.9h1.1c1.5,0,2.8-1.2,2.8-2.8v-2.7c0-1.8-1.3-3.4-3.1-3.7ZM23.9,12.1h-1.9v-1.7c.2,0,.4.2.6.4l1.3,1.3ZM13.1,10.4h6.3v1.7h-8l1.7-1.7ZM11.1,21.6c-.9,0-1.6-.7-1.6-1.6s.7-1.6,1.6-1.6,1.6.7,1.6,1.6-.7,1.6-1.6,1.6ZM22.9,21.6c-.9,0-1.6-.7-1.6-1.6s.7-1.6,1.6-1.6,1.6.7,1.6,1.6-.7,1.6-1.6,1.6ZM28.2,18.6c0,0,0,.1-.1.1h-1.1c-.6-1.7-2.1-2.9-4-2.9s-3.5,1.2-4,2.9h-3.7c-.6-1.7-2.1-2.9-4-2.9s-3.5,1.2-4,2.9h-2.7c-.2,0-.3-.1-.4-.2,0,0-.2-.2-.1-.4l.2-2.2s0,0,0,0l4.2-1h18.8c.6,0,1.1.5,1.1,1.1v2.7Z"/>
</svg>