<svg xmlns="http://www.w3.org/2000/svg" version="1.1" viewBox="0 0 32 32">
<title>chip</title>
<rect x="13.5" y="13.5" width="5" height="5"/>
<path d="M27.4,17.3c.7,0,1.3-.6,1.3-1.3s-.6-1.3-1.3-1.3h-3.1v-1.7h1.8c.7,0,1.3-.6,1.3-1.3s-.6-1.3-1.3-1.3h-1.9c-.2-1.3-1.2-2.4-2.6-2.6v-1.9c0-.7-.6-1.3-1.3-1.3s-1.3.6-1.3,1.3v1.8h-1.7v-3.1c0-.7-.6-1.3-1.3-1.3s-1.3.6-1.3,1.3v3.1h-1.7v-1.8c0-.7-.6-1.3-1.3-1.3s-1.3.6-1.3,1.3v1.9c-1.3.2-2.4,1.2-2.6,2.6h-1.9c-.7,0-1.3.6-1.3,1.3s.6,1.3,1.3,1.3h1.8v1.7h-3.1c-.7,0-1.3.6-1.3,1.3s.6,1.3,1.3,1.3h3.1v1.7h-1.8c-.7,0-1.3.6-1.3,1.3s.6,1.3,1.3,1.3h1.9c.2,1.3,1.2,2.4,2.6,2.6v1.9c0,.7.6,1.3,1.3,1.3s1.3-.6,1.3-1.3v-1.8h1.7v3.1c0,.7.6,1.3,1.3,1.3s1.3-.6,1.3-1.3v-3.1h1.7v1.8c0,.7.6,1.3,1.3,1.3s1.3-.6,1.3-1.3v-1.9c1.3-.2,2.4-1.2,2.6-2.6h1.9c.7,0,1.3-.6,1.3-1.3s-.6-1.3-1.3-1.3h-1.8v-1.7h3.1ZM21.7,21.2c0,.2-.2.4-.4.4h-10.5c-.2,0-.4-.2-.4-.4v-10.5c0-.2.2-.4.4-.4h10.5c.2,0,.4.2.4.4v10.5Z"/>
</svg>