<!-- Generated by IcoMoon.io -->
<svg version="1.1" xmlns="http://www.w3.org/2000/svg" width="32" height="32" viewBox="0 0 32 32">
<title>circular-01</title>
<path d="M14.667 4c0-0.736 0.597-1.333 1.333-1.333 7.364 0 13.333 5.97 13.333 13.333s-5.97 13.333-13.333 13.333c-7.364 0-13.333-5.97-13.333-13.333 0-3.705 1.513-7.059 3.952-9.474 0.523-0.518 1.367-0.514 1.886 0.009s0.514 1.367-0.009 1.886c-1.954 1.935-3.161 4.615-3.161 7.579 0 5.891 4.776 10.667 10.667 10.667s10.667-4.776 10.667-10.667c0-5.891-4.776-10.667-10.667-10.667-0.736 0-1.333-0.597-1.333-1.333z"></path>
<path d="M14.667 10.667c0-0.736 0.597-1.333 1.333-1.333 3.682 0 6.667 2.985 6.667 6.667 0 0.736-0.597 1.333-1.333 1.333s-1.333-0.597-1.333-1.333c0-2.209-1.791-4-4-4-0.736 0-1.333-0.597-1.333-1.333z"></path>
</svg>
