<!-- Generated by IcoMoon.io -->
<svg version="1.1" xmlns="http://www.w3.org/2000/svg" width="32" height="32" viewBox="0 0 32 32">
<title>column-02-down</title>
<path d="M1.333 26.667c0-0.736 0.597-1.333 1.333-1.333h26.667c0.736 0 1.333 0.597 1.333 1.333s-0.597 1.333-1.333 1.333h-26.667c-0.736 0-1.333-0.597-1.333-1.333z"></path>
<path d="M5.333 4c-0.736 0-1.333 0.597-1.333 1.333v16c0 0.736 0.597 1.333 1.333 1.333s1.333-0.597 1.333-1.333v-16c0-0.736-0.597-1.333-1.333-1.333z"></path>
<path d="M16 6.667c-0.736 0-1.333 0.597-1.333 1.333v13.333c0 0.736 0.597 1.333 1.333 1.333s1.333-0.597 1.333-1.333v-13.333c0-0.736-0.597-1.333-1.333-1.333z"></path>
<path d="M20 16c0-0.736 0.597-1.333 1.333-1.333s1.333 0.597 1.333 1.333v5.333c0 0.736-0.597 1.333-1.333 1.333s-1.333-0.597-1.333-1.333v-5.333z"></path>
<path d="M25.333 18.667c0-0.736 0.597-1.333 1.333-1.333s1.333 0.597 1.333 1.333v2.667c0 0.736-0.597 1.333-1.333 1.333s-1.333-0.597-1.333-1.333v-2.667z"></path>
<path d="M9.333 10.667c0-0.736 0.597-1.333 1.333-1.333s1.333 0.597 1.333 1.333v10.667c0 0.736-0.597 1.333-1.333 1.333s-1.333-0.597-1.333-1.333v-10.667z"></path>
</svg>
