<!-- Generated by IcoMoon.io -->
<svg version="1.1" xmlns="http://www.w3.org/2000/svg" width="32" height="32" viewBox="0 0 32 32">
<title>column-line-down</title>
<path d="M2.667 9.333c0.736 0 1.333 0.597 1.333 1.333v16c0 0.736-0.597 1.333-1.333 1.333s-1.333-0.597-1.333-1.333v-16c0-0.736 0.597-1.333 1.333-1.333z"></path>
<path d="M10.667 16c0-0.736-0.597-1.333-1.333-1.333s-1.333 0.597-1.333 1.333v10.667c0 0.736 0.597 1.333 1.333 1.333s1.333-0.597 1.333-1.333v-10.667z"></path>
<path d="M24 17.333c0-0.736-0.597-1.333-1.333-1.333s-1.333 0.597-1.333 1.333v9.333c0 0.736 0.597 1.333 1.333 1.333s1.333-0.597 1.333-1.333v-9.333z"></path>
<path d="M30.667 20c0-0.736-0.597-1.333-1.333-1.333s-1.333 0.597-1.333 1.333v6.667c0 0.736 0.597 1.333 1.333 1.333s1.333-0.597 1.333-1.333v-6.667z"></path>
<path d="M16 17.333c0.736 0 1.333 0.597 1.333 1.333v8c0 0.736-0.597 1.333-1.333 1.333s-1.333-0.597-1.333-1.333v-8c0-0.736 0.597-1.333 1.333-1.333z"></path>
<path d="M1.625 4.5c-0.46 0.575-0.367 1.414 0.208 1.874l6.358 5.086c0.307 0.246 0.648 0.444 1.013 0.59l5.564 2.226c0.721 0.288 1.509 0.361 2.27 0.208l5.112-1.022c0.254-0.051 0.517-0.027 0.757 0.069l5.931 2.372c0.684 0.273 1.46-0.059 1.733-0.743s-0.059-1.46-0.743-1.733l-5.931-2.372c-0.72-0.288-1.509-0.361-2.27-0.208l-5.112 1.022c-0.254 0.051-0.517 0.027-0.757-0.069l-5.564-2.226c-0.122-0.049-0.235-0.115-0.338-0.197l-6.358-5.086c-0.575-0.46-1.414-0.367-1.874 0.208z"></path>
</svg>
