<svg xmlns="http://www.w3.org/2000/svg" version="1.1" viewBox="0 0 32 32">
<title>could</title>
<path d="M16,25.6c-3.5,0-7-.3-10.5-.9h-.2c-2.4-.6-4.2-2.8-4.2-5.4s2.5-5.5,5.5-5.5.3,0,.5,0c.9-4.2,4.5-7.3,9-7.3s8.1,3.1,9,7.3h.5c3.1,0,5.5,2.5,5.5,5.5s-1.8,4.8-4.2,5.4h-.2c-3.5.6-7,.9-10.5.9h-.2ZM26.3,23.4h0ZM6.1,22.1c6.6,1.2,13.2,1.2,19.8,0h.1c1.3-.3,2.3-1.5,2.3-2.8s-1.3-2.9-2.9-2.9-.7,0-1.1.2-.9.1-1.2-.1c-.4-.2-.6-.6-.6-1.1-.1-3.5-3-6.3-6.5-6.3s-6.4,2.8-6.5,6.3c0,.4-.2.8-.6,1.1-.4.2-.8.3-1.2.1-.4-.1-.7-.2-1.1-.2-1.6,0-2.9,1.3-2.9,2.9s1,2.6,2.3,2.8h.1Z"/>
</svg>