<svg xmlns="http://www.w3.org/2000/svg" version="1.1" viewBox="0 0 32 32">
<title>current</title>
<path d="M10.1,24c-1.4,0-2.7-.5-3.7-1.5-2.1-2.1-2.1-5.4,0-7.5l4-4c1-1,2.3-1.6,3.7-1.5.7,0,1.3.6,1.3,1.3,0,.7-.6,1.3-1.3,1.3h0c-.7,0-1.4.3-1.9.8l-4,4c-1,1-1,2.7,0,3.7,1,1,2.7,1,3.7,0l4-4c.5-.5,1.4-.5,1.9,0,.5.5.5,1.3,0,1.9l-4,4c-1,1-2.3,1.5-3.7,1.5Z"/>
<path d="M18.6,22.5c-.6,0-1.2-.4-1.3-1.1-.1-.7.3-1.4,1-1.5.5,0,1-.3,1.4-.7l4-4c1-1,1-2.7,0-3.7-1-1-2.7-1-3.7,0l-4,4c-.5.5-1.3.5-1.9,0-.5-.5-.5-1.3,0-1.9l4-4c2.1-2.1,5.4-2.1,7.5,0,1,1,1.5,2.3,1.5,3.7s-.5,2.7-1.5,3.7l-4,4c-.7.7-1.7,1.2-2.7,1.4,0,0-.2,0-.3,0Z"/>
</svg>