<!-- Generated by IcoMoon.io -->
<svg version="1.1" xmlns="http://www.w3.org/2000/svg" width="32" height="32" viewBox="0 0 32 32">
<title>figma</title>
<path d="M24.4 10.667c1.333-1.067 2.267-2.8 2.267-4.667 0-3.333-2.667-6-6-6h-9.333c-3.333 0-6 2.667-6 6 0 1.867 0.933 3.6 2.267 4.667-1.333 1.067-2.267 2.8-2.267 4.667s0.933 3.6 2.267 4.667c-1.333 1.067-2.267 2.8-2.267 4.667 0 3.333 2.667 6 6 6s6-2.667 6-6v-4.4c0.933 0.667 2.133 1.067 3.333 1.067 3.333 0 6-2.667 6-6 0-1.867-0.933-3.6-2.267-4.667zM14.667 24.667c0 1.867-1.467 3.333-3.333 3.333s-3.333-1.467-3.333-3.333 1.467-3.333 3.333-3.333h3.333v3.333zM14.667 18.667h-3.333c-1.867 0-3.333-1.467-3.333-3.333s1.467-3.333 3.333-3.333h3.333v6.667zM14.667 9.333h-3.333c-1.867 0-3.333-1.467-3.333-3.333s1.467-3.333 3.333-3.333h3.333v6.667zM20.667 18.667c-1.867 0-3.333-1.467-3.333-3.333s1.467-3.333 3.333-3.333 3.333 1.467 3.333 3.333-1.467 3.333-3.333 3.333zM20.667 9.333h-3.333v-6.667h3.333c1.867 0 3.333 1.467 3.333 3.333s-1.467 3.333-3.333 3.333z"></path>
</svg>
