<svg xmlns="http://www.w3.org/2000/svg" version="1.1" viewBox="0 0 32 32">
<title>file svg</title>
<path d="M26.4,5.1l-2.3-2.3c-.9-.9-2.3-1.5-3.7-1.5h-11.1c-2.9,0-5.3,2.4-5.3,5.3v18.7c0,2.9,2.4,5.3,5.3,5.3h13.3c2.9,0,5.3-2.4,5.3-5.3V8.9c0-1.5-.5-2.8-1.6-3.9h.1ZM21.3,4.1c.4,0,.7.4,1.1.7l2.3,2.3c.3.3.5.7.7,1.1h-2.7c-.8,0-1.3-.5-1.3-1.3v-2.7h-.1ZM25.3,25.3c0,1.5-1.2,2.7-2.7,2.7h-13.3c-1.5,0-2.7-1.2-2.7-2.7V6.7c0-1.5,1.2-2.7,2.7-2.7h9.3v2.7c0,2.3,1.7,4,4,4h2.7v14.7h0Z"/>
<path d="M24.8,15.2l-1.4-1.4c-.3-.3-.8-.3-1.1,0l-.6.6h-3.9c-.4-.5-1-.9-1.8-.9s-1.4.4-1.8.9h-3.9l-.6-.6c-.3-.3-.8-.3-1.1,0l-1.4,1.4c-.3.3-.3.8,0,1.1l1.4,1.4c.3.3.8.3,1.1,0l.6-.6h.7c-.6.9-1,2-1,3.1-.5.4-.9,1-.9,1.8,0,1.2,1,2.2,2.2,2.2s2.2-1,2.2-2.2-.3-1.3-.9-1.7c0-1.2.9-2.3,1.9-2.8.4.3.9.6,1.5.6s1.1-.2,1.5-.6c1.1.5,1.8,1.6,1.9,2.8-.5.4-.9,1-.9,1.7,0,1.2,1,2.2,2.2,2.2s2.2-1,2.2-2.2-.4-1.4-.9-1.8c0-1.2-.4-2.2-1-3.1h.7l.6.6c.3.3.8.3,1.1,0l1.4-1.4c.3-.3.3-.8,0-1.1Z"/>
</svg>