<svg xmlns="http://www.w3.org/2000/svg" version="1.1" viewBox="0 0 32 32">
<title>file php</title>
<path d="M26.4,5.1l-2.3-2.3c-.9-.9-2.3-1.5-3.7-1.5h-11.1c-2.9,0-5.3,2.4-5.3,5.3v18.7c0,2.9,2.4,5.3,5.3,5.3h13.3c2.9,0,5.3-2.4,5.3-5.3V8.9c0-1.5-.5-2.8-1.6-3.9h0ZM21.3,4.1c.4.1.7.4,1.1.7l2.3,2.3c.3.3.5.7.7,1.1h-2.7c-.8,0-1.3-.5-1.3-1.3v-2.7h0ZM25.3,25.3c0,1.5-1.2,2.7-2.7,2.7h-13.3c-1.5,0-2.7-1.2-2.7-2.7V6.7c0-1.5,1.2-2.7,2.7-2.7h9.3v2.7c0,2.3,1.7,4,4,4h2.7v14.7Z"/>
<path d="M11.7,16.9c-.5-.5-1.3-.5-1.9,0l-1.7,1.7c-.5.5-.5,1.3,0,1.9l1.7,1.7c.5.5,1.3.5,1.9,0s.5-1.3,0-1.9l-.7-.7.7-.7c.5-.5.5-1.3,0-1.9h0Z"/>
<path d="M22.2,16.9c-.5-.5-1.3-.5-1.9,0s-.5,1.3,0,1.9l.7.7-.7.7c-.5.5-.5,1.3,0,1.9s1.3.5,1.9,0l1.7-1.7c.5-.5.5-1.3,0-1.9l-1.7-1.7h0Z"/>
<path d="M15.4,12.2c-1.5,0-2.8.8-3.5,2-.4.7-.1,1.5.5,1.9s1.5.1,1.9-.5c1.3-1.9,3.7.7,1.7,1.9-.4.3-.8.5-1.2,1.1-.4.4-.7.9-.7,1.7h0c0,.9.5,1.5,1.3,1.5,1.7,0,1.1-1.5,2-2,.9-.8,1.9-2,1.9-3.5,0-2.3-1.7-4-4-4h0Z"/>
<path d="M16.8,24.2c0,.7-.6,1.3-1.3,1.3s-1.3-.6-1.3-1.3.6-1.3,1.3-1.3,1.3.6,1.3,1.3Z"/>
</svg>