<svg xmlns="http://www.w3.org/2000/svg" version="1.1" viewBox="0 0 32 32">
<title>floppy disk</title>
<path d="M26,10.6l-4.6-4.6c-.5-.5-1.2-.8-1.9-.8h-10.8c-2,0-3.6,1.6-3.6,3.6v14.6c0,2,1.6,3.6,3.6,3.6h14.6c2,0,3.6-1.6,3.6-3.6v-10.8c0-.7-.3-1.4-.8-1.9ZM18.2,7.8v2h-4.3v-2h4.3ZM11.6,24.2v-4.6h8.7v4.6h-8.7ZM24.2,23.3c0,.5-.4.9-.9.9h-.3v-5.9c0-.7-.6-1.3-1.3-1.3h-11.4c-.7,0-1.3.6-1.3,1.3v5.9h-.3c-.5,0-.9-.4-.9-.9v-14.6c0-.5.4-.9.9-.9h2.5v3.3c0,.7.6,1.3,1.3,1.3h7c.7,0,1.3-.6,1.3-1.3v-2l3.4,3.4v10.8Z"/>
</svg>