<svg xmlns="http://www.w3.org/2000/svg" version="1.1" viewBox="0 0 32 32">
<title>gear</title>
<path d="M25.1,18l-.7-.4c0-.5.2-1,.2-1.6s0-1.1-.2-1.6l.7-.4c.5-.3.7-.9.4-1.4l-1.8-3.1c-.3-.5-.9-.7-1.4-.4l-.7.4c-.8-.7-1.7-1.2-2.7-1.6v-.9c0-.6-.5-1.1-1.1-1.1h-3.6c-.6,0-1.1.5-1.1,1.1v.9c-1,.4-1.9.9-2.7,1.6l-.7-.4c-.5-.3-1.1-.1-1.4.4l-1.8,3.1c-.3.5-.1,1.1.4,1.4l.7.4c0,.5-.2,1-.2,1.6s0,1.1.2,1.6l-.7.4c-.5.3-.7.9-.4,1.4l1.8,3.1c.3.5.9.7,1.4.4l.7-.4c.8.7,1.7,1.2,2.7,1.6v.9c0,.6.5,1.1,1.1,1.1h3.6c.6,0,1.1-.5,1.1-1.1v-.9c1-.4,1.9-.9,2.7-1.6l.7.4c.5.3,1.1.1,1.4-.4l1.8-3.1c.3-.5.1-1.1-.4-1.4ZM16,21.9c-3.3,0-5.9-2.7-5.9-5.9s2.7-5.9,5.9-5.9,5.9,2.7,5.9,5.9-2.7,5.9-5.9,5.9Z"/>
<path d="M16,14.7c-.7,0-1.3.6-1.3,1.3s.6,1.3,1.3,1.3,1.3-.6,1.3-1.3-.6-1.3-1.3-1.3Z"/>
A</svg>