<svg xmlns="http://www.w3.org/2000/svg" version="1.1" viewBox="0 0 32 32">
<title>hand ok</title>
<path d="M24.1,28.4h-11.4c-.2,0-.4,0-.6,0-.9-.1-1.7-.5-2.3-1h-1.3c-.9,0-2.5-.3-3.6-3.4-1.1-3.2-1.6-9.8,1.4-11.5l7-4.2c.7-.4,1.4-1.1,1.8-1.8l1.1-1.9c.2-.4.6-.7,1.1-.8.5-.1,1,0,1.4.2,1.9,1.1,2.6,3.6,1.5,5.5l-1.7,2.9h5.8c1.7,0,3,1.3,3,3s0,.8-.3,1.2c.5.4.8,1,.9,1.7.1.8,0,1.6-.5,2.2.4.6.6,1.4.5,2.2-.1.7-.4,1.2-.9,1.7.2.5.3,1.1.2,1.7-.2,1.4-1.5,2.5-3,2.5ZM10.3,24.7c.3,0,.7.1.9.4.4.4.8.6,1.3.7,0,0,0,0,.1,0h11.5c.2,0,.4-.1.5-.3,0-.2,0-.3,0-.3,0,0-.1-.1-.3-.1-.7,0-1.3-.6-1.3-1.3s.6-1.3,1.3-1.3h.6c.2,0,.4-.1.5-.3,0-.2,0-.3,0-.3,0,0-.1-.1-.3-.1-.7,0-1.3-.6-1.3-1.3s.6-1.3,1.3-1.3.3,0,.3-.1c0,0,.1-.2,0-.3,0-.2-.2-.3-.5-.3h-.6c-.7,0-1.3-.6-1.3-1.3s.6-1.3,1.3-1.3c.2,0,.4-.2.4-.4s-.2-.4-.4-.4h-8.1c-.5,0-.9-.2-1.1-.7-.2-.4-.2-.9,0-1.3l2.8-4.9c.2-.4.2-.9,0-1.4l-.6,1c-.7,1.1-1.6,2.1-2.7,2.7l-7,4.2c-.5.3-1.1,2.1-.9,5.1.3,3.2,1.2,4.8,1.6,5h1.9Z"/>
</svg>