<svg xmlns="http://www.w3.org/2000/svg" version="1.1" viewBox="0 0 32 32">
<title>hand shake</title>
<path d="M26.8,6.2c-2.7-2.7-6.2-5.4-8-3.6l-1.3,1.3c-.5,0-1,.2-1.5.4-.1,0-.3-.2-.4-.2-.8-.4-1.7-.5-2.5-.4l-1.1-.7c-.7-.5-2-.9-4,.5-1.1.7-2.3,1.9-3.4,3.3-1.1,1.4-2,2.9-2.4,4.1-.8,2.3-.2,3.4.5,4l.9.9c0,.4.2.9.3,1.3-.9,1.2-.8,2.9.2,3.9h0c.3.3.6.5,1,.7,0,0,0,0,0,.1,0,.8.3,1.6.9,2.1,0,0,0,0,0,0h0c.4.4,1,.7,1.6.8.1.6.4,1.1.8,1.6,0,0,0,0,0,0h0c.6.6,1.3.9,2.1.9h0s0,0,.1,0c.1.4.4.7.7,1h0c.6.6,1.4.9,2.1.9s1.3-.2,1.8-.6c.1.1.3.3.5.5.6.6,1.4.9,2.1.9s1.5-.3,2.1-.9c.3-.3.5-.6.7-1,.8,0,1.6-.3,2.2-.9.4-.4.7-1,.8-1.6.6-.1,1.1-.4,1.6-.8.6-.6.9-1.3.9-2.1s0,0,0-.1c.4-.1.7-.4,1-.7.6-.6.9-1.3.9-2.1s0-.8-.2-1.1c.1-.1.2-.2.3-.4.5-.7.8-1.5.9-2.4l1.5-1.5c1.8-1.8-1-5.3-3.6-8ZM8.3,21l1.1-1.1s0,0,0,0l.6-.6c0,0,.2-.1.3-.1s.2,0,.3.1c.2.2.2.4,0,.5l-2.2,2.2c0,0-.2.1-.3.1h0c0,0-.2,0-.3-.1,0,0,0,0,0,0,0,0-.1-.2-.1-.3s0-.2.1-.3l.5-.5s0,0,0,0ZM7.6,18l-.6.6-.5.5c-.2.2-.4.2-.5,0h0c-.2-.2-.2-.4,0-.5l1.1-1.1c0,0,.2-.1.3-.1s.2,0,.3.1c0,0,.1.2.1.3s0,.2-.1.3ZM10.2,24.4c0,0-.1-.2-.1-.3s0-.2.1-.3l2.2-2.2c0,0,.2-.1.3-.1s.2,0,.3.1c.2.2.2.4,0,.5l-.6.6s0,0,0,0l-1.1,1.1s0,0,0,0l-.5.5c0,0-.2.1-.3.1,0,0-.2,0-.3-.1,0,0,0,0,0,0ZM13.7,26.3c-.2.2-.4.2-.5,0-.2-.2-.2-.4,0-.5l1.1-1.1c.2-.2.4-.2.5,0,.2.2.2.4,0,.5l-1.1,1.1ZM25.3,19.9c-.2.2-.4.2-.5,0-.5-.5-1.3-.5-1.8,0s-.4.6-.4.9.1.7.4.9l.5.5c0,0,.1.2.1.3s0,.2-.1.3c-.2.2-.4.2-.5,0-.5-.5-1.3-.5-1.8,0s-.4.6-.4.9.1.7.4.9c.2.2.2.4,0,.5-.2.2-.4.2-.5,0l-.5-.5c-.5-.5-1.3-.5-1.8,0-.5.5-.5,1.3,0,1.8.2.2.2.4,0,.5-.2.2-.4.2-.5,0s-.4-.4-.5-.5c.8-1.2.6-2.7-.4-3.8-.3-.3-.6-.5-1-.6,0-.8-.2-1.7-.9-2.3-.4-.4-1-.7-1.6-.8-.1-.6-.4-1.1-.8-1.6-.6-.6-1.5-.9-2.3-.9-.1-.4-.4-.7-.6-1-.9-.9-2.3-1.1-3.4-.6,0-.3-.1-.6-.4-.8l-1.3-1.3s0,0,0,0c0-.5.5-2.2,2.3-4.6,1.8-2.3,3.4-3.3,3.9-3.3,0,0,0,0,0,0l1.6,1c.3.2.6.2,1,.2,0,0,.1,0,.2,0l-2.3,2.3c-1.3,1.3-1.3,3.5,0,4.9,1.3,1.3,3.5,1.3,4.9,0l.8-.8c.9.6,1.9,1,2.9,1.1l5.6,5.6c0,0,.1.2.1.3s0,.2-.1.3ZM26.8,14.2c-.2.2-.4.6-.4.9s-.1.9-.4,1.3l-4.9-4.9s0,0,0,0h0s0,0,0,0c-.1-.1-.3-.2-.4-.3-.2,0-.3-.1-.5-.1-1,0-1.9-.4-2.5-1.2-.2-.3-.6-.4-.9-.5-.4,0-.7.1-1,.4l-1.7,1.7c-.3.3-.9.3-1.2,0-.3-.3-.3-.9,0-1.2l3-3s0,0,.2-.1c0,0,0,0,.1,0,.6-.4,1.3-.7,2-.7s.7-.1.9-.4l1.4-1.4c1.9.4,7.5,6.1,7.9,7.9l-1.6,1.6Z"/>
</svg>