<svg xmlns="http://www.w3.org/2000/svg" version="1.1" viewBox="0 0 32 32">
<title>hastag</title>
<path d="M25.1,11.1h-2.8l.8-2.9c.2-.7-.2-1.4-.9-1.6-.7-.2-1.4.2-1.6.9l-1,3.6h-4.4l.8-2.9c.2-.7-.2-1.4-.9-1.6-.7-.2-1.4.2-1.6.9l-1,3.6h-3.5c-.7,0-1.3.6-1.3,1.3s.6,1.3,1.3,1.3h2.8l-1.3,4.6h-3.5c-.7,0-1.3.6-1.3,1.3s.6,1.3,1.3,1.3h2.8l-.8,2.9c-.2.7.2,1.4.9,1.6.1,0,.2,0,.4,0,.6,0,1.1-.4,1.3-1l1-3.6h4.4l-.8,2.9c-.2.7.2,1.4.9,1.6.1,0,.2,0,.4,0,.6,0,1.1-.4,1.3-1l1-3.6h3.5c.7,0,1.3-.6,1.3-1.3s-.6-1.3-1.3-1.3h-2.8l1.3-4.6h3.5c.7,0,1.3-.6,1.3-1.3s-.6-1.3-1.3-1.3ZM17.6,18.3h-4.4l1.3-4.6h4.4l-1.3,4.6Z"/>
</svg>