<svg xmlns="http://www.w3.org/2000/svg" version="1.1" viewBox="0 0 32 32">
<title>key</title>
<path d="M10.8,26c-.1,0-.3,0-.4,0-2.2-.7-3.7-2.2-4.4-4.4-.1-.5,0-1,.3-1.3l5.3-5.3c-.7-3,.5-6.2,3.2-7.9h0c2.3-1.5,5.5-1.5,7.8,0,1.9,1.2,3.1,3.2,3.3,5.4.2,2.2-.5,4.4-2.1,5.9-1.7,1.7-4.1,2.4-6.4,2-.5,1.1-1.5,2-2.7,2.5-.6,1.6-2,2.8-3.7,3.1h-.1c0,0-.2,0-.2,0ZM8.8,21.5c.4.9,1.1,1.5,2.1,1.8.8-.2,1.5-.9,1.6-1.8,0-.5.5-1,1-1,.9-.2,1.6-.9,1.8-1.8h0c0-.5.3-.8.6-1,.3-.2.7-.2,1.1,0,1.7.6,3.7.2,4.9-1.1s1.5-2.4,1.3-3.8c-.1-1.4-.9-2.7-2.2-3.5-1.5-1-3.5-1-5,0h0c-1.9,1.2-2.7,3.5-1.9,5.6.2.5,0,1-.3,1.4l-5.2,5.2Z"/>
<path d="M19.6,14.1c-.3,0-.7-.1-.9-.4l-.4-.4c-.5-.5-.5-1.3,0-1.8.5-.5,1.3-.5,1.8,0l.4.4c.5.5.5,1.3,0,1.8-.3.3-.6.4-.9.4Z"/>
</svg>