<svg xmlns="http://www.w3.org/2000/svg" version="1.1" viewBox="0 0 32 32">
<title>list bullet</title>
<path d="M15.2,11.4h9.8c.7,0,1.3-.6,1.3-1.3s-.6-1.3-1.3-1.3h-9.8c-.7,0-1.3.6-1.3,1.3s.6,1.3,1.3,1.3Z"/>
<path d="M25,14.7h-9.8c-.7,0-1.3.6-1.3,1.3s.6,1.3,1.3,1.3h9.8c.7,0,1.3-.6,1.3-1.3s-.6-1.3-1.3-1.3Z"/>
<path d="M25,20.6h-9.8c-.7,0-1.3.6-1.3,1.3s.6,1.3,1.3,1.3h9.8c.7,0,1.3-.6,1.3-1.3s-.6-1.3-1.3-1.3Z"/>
<path d="M10.3,7.9c-.9-.3-1.8-.3-2.7,0-.4.1-.8.5-.9.9-.3.9-.3,1.8,0,2.7.1.4.5.8.9.9.5.1.9.2,1.4.2s.9,0,1.4-.2c.4-.1.8-.5.9-.9.3-.9.3-1.8,0-2.7-.1-.4-.5-.8-.9-.9Z"/>
<path d="M10.3,19.7c-.9-.3-1.8-.3-2.7,0-.4.1-.8.5-.9.9-.3.9-.3,1.8,0,2.7.1.4.5.8.9.9.5.1.9.2,1.4.2s.9,0,1.4-.2c.4-.1.8-.5.9-.9.3-.9.3-1.8,0-2.7-.1-.4-.5-.8-.9-.9Z"/>
<path d="M10.3,13.7c-.9-.3-1.8-.3-2.7,0-.4.1-.8.5-.9.9-.3.9-.3,1.8,0,2.7.1.4.5.8.9.9.5.1.9.2,1.4.2s.9,0,1.4-.2c.4-.1.8-.5.9-.9.3-.9.3-1.8,0-2.7-.1-.4-.5-.8-.9-.9Z"/>
</svg>