<svg xmlns="http://www.w3.org/2000/svg" version="1.1" viewBox="0 0 32 32">
<title>list number</title>
<path d="M23.9,11.4h-9.8c-.7,0-1.3-.6-1.3-1.3s.6-1.3,1.3-1.3h9.8c.7,0,1.3.6,1.3,1.3s-.6,1.3-1.3,1.3Z"/>
<path d="M23.9,17.3h-9.8c-.7,0-1.3-.6-1.3-1.3s.6-1.3,1.3-1.3h9.8c.7,0,1.3.6,1.3,1.3s-.6,1.3-1.3,1.3Z"/>
<path d="M23.9,23.3h-9.8c-.7,0-1.3-.6-1.3-1.3s.6-1.3,1.3-1.3h9.8c.7,0,1.3.6,1.3,1.3s-.6,1.3-1.3,1.3Z"/>
<path d="M8.6,12.4c-.4,0-.7-.3-.7-.7v-1.5c-.3.2-.7.2-.9,0-.3-.3-.3-.7,0-1l1.1-1.1c.2-.2.5-.3.8-.2.3.1.4.4.4.7v3.2c0,.4-.3.7-.7.7Z"/>
<path d="M9.5,18.3h-2c-.3,0-.5-.2-.7-.4-.1-.3,0-.6.2-.8l1.6-1.6s0,0,0-.2c0-.3-.5-.3-.5,0,0,.4-.3.7-.7.7s-.7-.3-.7-.7c0-.9.7-1.6,1.6-1.6s1.6.7,1.6,1.6-.2.9-.5,1.2l-.4.4h.3c.4,0,.7.3.7.7s-.3.7-.7.7Z"/>
<path d="M8.3,24.2c-.6,0-1.1-.3-1.4-.7-.2-.3-.1-.8.2-1,.3-.2.8-.1,1,.2,0,0,0,.1.2.1s.3-.1.3-.3-.1-.3-.3-.3c-.3,0-.5-.1-.6-.3s-.1-.5,0-.7h0c0,0-.2,0-.2,0-.4,0-.7-.3-.7-.7s.3-.7.7-.7h1.4c.3,0,.5.1.6.3s.1.5,0,.7l-.2.4c.4.3.7.8.7,1.4,0,.9-.8,1.7-1.7,1.7Z"/>
</svg>