<svg xmlns="http://www.w3.org/2000/svg" version="1.1" viewBox="0 0 32 32">
<title>offcanvas left arrow left</title>
<path d="M20.1,12.4c-.5-.5-1.4-.5-1.9,0l-2.3,2.7c-.5.5-.5,1.3,0,1.8l2.3,2.7c.5.5,1.3.6,1.9,0s.6-1.3,0-1.9l-.2-.4h4.3c.7,0,1.3-.6,1.3-1.3s-.6-1.3-1.3-1.3h-4.3l.2-.4c.5-.5.5-1.4,0-1.9h0Z"/>
<path d="M7.3,1.5h17.6c3.3,0,6.1,2.8,6.1,6.1v16.9c0,3.3-2.8,6.1-6.1,6.1H7.2c-3.3,0-6.1-2.8-6.1-6.1V7.7C1.1,4.4,4,1.5,7.3,1.5ZM28.4,24.5V7.6c0-2-1.5-3.5-3.5-3.5h-12.3v23.9h12.3c2,0,3.5-1.5,3.5-3.5ZM3.7,24.5c0,2,1.5,3.5,3.5,3.5h2.8V4.1h-2.6c-1.9,0-3.6,1.7-3.6,3.6v16.8Z"/>
</svg>