<svg xmlns="http://www.w3.org/2000/svg" version="1.1" viewBox="0 0 32 32">
<title>ray</title>
<path d="M11.2,27.6c-.1,0-.2,0-.4,0-1-.2-1.7-.9-1.9-1.8l-2.1-9.7c-.2-.9,0-1.9.6-2.6.6-.7,1.5-1.2,2.4-1.2h1.8v-5c0-1.1.7-2,1.7-2.3,3.2-.8,6.5-.9,10.1,0h0c.6.1,1.2.5,1.5,1.1.3.6.4,1.2.2,1.9l-2.9,10.2c-.4,1.3-1.6,2.3-3,2.3h-2.6l-3.5,6.1c-.4.7-1.2,1.2-2,1.2ZM9.8,14.9c-.2,0-.3.1-.4.2,0,0-.1.2,0,.4l1.9,9,3.5-6.1c.2-.4.7-.7,1.1-.7h3.4c.2,0,.4-.1.4-.3l2.8-9.9c-3-.6-5.7-.6-8.3,0v6.1c0,.7-.6,1.3-1.3,1.3h-3.1ZM22.9,7.6s0,0,0,0c0,0,0,0,0,0Z"/>
</svg>