<!-- Generated by IcoMoon.io -->
<svg version="1.1" xmlns="http://www.w3.org/2000/svg" width="32" height="32" viewBox="0 0 32 32">
<title>sketch</title>
<path d="M28.667 9.6l-3.733-4.4c-0.667-0.8-1.467-1.2-2.4-1.333l-5.867-0.933c-0.4-0.133-0.933-0.133-1.333 0l-5.867 0.8c-0.933 0.133-1.867 0.667-2.4 1.333l-3.733 4.533c-1.2 1.467-1.2 3.467-0.133 4.933l9.6 13.067c1.6 2.133 4.8 2.133 6.4 0l9.6-13.067c1.067-1.467 1.067-3.467-0.133-4.933zM23.867 8l2.133 2.667h-2.933l0.8-2.667zM21.6 6.267l-0.8 2.533-2-3.067 2.8 0.533zM16 6.4l2.8 4.267h-5.6l2.8-4.267zM13.2 5.867l-2.133 3.067-0.667-2.667 2.8-0.4zM8.133 8l0.8 2.667h-3.067l2.267-2.667zM5.6 13.333h4.133l3.467 10.267-7.6-10.267zM16 23.733l-3.467-10.4h6.933l-3.467 10.4zM18.933 23.6l3.467-10.267h4.133l-7.6 10.267z"></path>
</svg>
