<svg xmlns="http://www.w3.org/2000/svg" version="1.1" viewBox="0 0 32 32">
<title>speak less</title>
<path d="M30.5,7.6c-.1-2.7-2.3-4.7-4.9-4.8-2.1-.1-3.3-.3-7.6-.3s-1.3,0-2,0c-.6,0-1.3,0-2,0-4.3,0-5.5.1-7.6.3-2.7.1-4.7,2.1-4.9,4.8,0,1.7-.1,4-.1,6.9s.1,5.2.1,6.9c.1,2.7,2.3,4.7,4.9,4.8,2.1.1,3.3.3,7.6.3s1.3,0,2,0c.3,0,.6,0,.9,0l7.7,3.9c.2,0,.4.1.6.1s.5,0,.7-.2c.4-.2.6-.7.6-1.1v-3.1c2.2-.5,3.8-2.3,4-4.7,0-1.7.1-4,.1-6.9s-.1-5.2-.1-6.9ZM27.8,21.4c-.1,1-.7,1.8-1.6,2.2-.3.1-.5.2-.8.2,0,0-.2,0-.3,0h0c-.7,0-1.3.6-1.3,1.3v2.1l-6.2-3.1c-.2,0-.3-.1-.5-.1h0c-.1,0-3,0-3.1,0-4.3,0-5.3-.1-7.5-.3-.3,0-.5,0-.8-.2-.9-.4-1.5-1.2-1.6-2.2,0-1.6-.1-3.9-.1-6.7s.1-5.1.1-6.8c.1-1,.7-1.8,1.6-2.2.3-.1.5-.2.8-.2,2.1,0,3.2-.1,7.5-.1s1.3,0,2,0c.6,0,1.3,0,1.9,0,4.3,0,5.3.1,7.5.3.3,0,.5,0,.8.2.9.4,1.5,1.2,1.6,2.2,0,1.6.1,3.9.1,6.7s-.1,5.1-.1,6.8Z"/>
<path d="M19.4,13.3h-6.8c-.7,0-1.3.6-1.3,1.3s.6,1.3,1.3,1.3h6.8c.7,0,1.3-.6,1.3-1.3s-.6-1.3-1.3-1.3Z"/>
</svg>