<svg xmlns="http://www.w3.org/2000/svg" version="1.1" viewBox="0 0 32 32">
<title>sun</title>
<path d="M16,22c-3.3,0-6-2.7-6-6s2.7-6,6-6,6,2.7,6,6-2.7,6-6,6ZM16,12.6c-1.9,0-3.4,1.5-3.4,3.4s1.5,3.4,3.4,3.4,3.4-1.5,3.4-3.4-1.5-3.4-3.4-3.4Z"/>
<path d="M16,7.4c-.7,0-1.3-.6-1.3-1.3v-2.8c0-.7.6-1.3,1.3-1.3s1.3.6,1.3,1.3v2.8c0,.7-.6,1.3-1.3,1.3Z"/>
<path d="M16,30c-.7,0-1.3-.6-1.3-1.3v-2.8c0-.7.6-1.3,1.3-1.3s1.3.6,1.3,1.3v2.8c0,.7-.6,1.3-1.3,1.3Z"/>
<path d="M28.7,17.3h-2.8c-.7,0-1.3-.6-1.3-1.3s.6-1.3,1.3-1.3h2.8c.7,0,1.3.6,1.3,1.3s-.6,1.3-1.3,1.3Z"/>
<path d="M6.1,17.3h-2.8c-.7,0-1.3-.6-1.3-1.3s.6-1.3,1.3-1.3h2.8c.7,0,1.3.6,1.3,1.3s-.6,1.3-1.3,1.3Z"/>
<path d="M23,10.3c-.3,0-.7-.1-.9-.4-.5-.5-.5-1.3,0-1.9l2-2c.5-.5,1.3-.5,1.9,0,.5.5.5,1.3,0,1.9l-2,2c-.3.3-.6.4-.9.4Z"/>
<path d="M7,26.3c-.3,0-.7-.1-.9-.4-.5-.5-.5-1.3,0-1.9l2-2c.5-.5,1.3-.5,1.9,0,.5.5.5,1.3,0,1.9l-2,2c-.3.3-.6.4-.9.4Z"/>
<path d="M25,26.3c-.3,0-.7-.1-.9-.4l-2-2c-.5-.5-.5-1.3,0-1.9.5-.5,1.3-.5,1.9,0l2,2c.5.5.5,1.3,0,1.9-.3.3-.6.4-.9.4Z"/>
<path d="M9,10.3c-.3,0-.7-.1-.9-.4l-2-2c-.5-.5-.5-1.3,0-1.9.5-.5,1.3-.5,1.9,0l2,2c.5.5.5,1.3,0,1.9-.3.3-.6.4-.9.4Z"/>
</svg>