<svg xmlns="http://www.w3.org/2000/svg" version="1.1" viewBox="0 0 32 32">
<title>table</title>
<path d="M28.1,8.5c-.2-1.6-1.6-2.9-3.2-3.1,0,0,0,0,0,0-5.9-.5-12-.5-17.9,0-1.6.1-3,1.5-3.2,3.1-.5,5-.5,10.1,0,15.1.2,1.6,1.6,2.9,3.2,3.1,3,.2,6,.4,8.9.4s6-.1,9-.4c1.6-.1,3-1.5,3.2-3.1.5-5,.5-10.1,0-15.1ZM6.2,13.8h3v4.4h-3c0-1.5,0-2.9,0-4.4ZM11.8,13.8h2.9v4.4h-2.9v-4.4ZM17.3,7.7c1,0,1.9,0,2.9,0v3.4h-2.9v-3.5ZM14.7,11.2h-2.9v-3.4c1,0,1.9,0,2.9,0v3.5ZM14.7,20.8v3.5c-1,0-1.9,0-2.9,0v-3.4h2.9ZM17.3,20.8h2.9v3.4c-1,0-1.9,0-2.9,0v-3.5ZM17.3,18.2v-4.4h2.9v4.4h-2.9ZM22.8,13.8h3c0,1.5,0,2.9,0,4.4h-3v-4.4ZM25.5,8.7c0,.8.1,1.6.2,2.4h-2.8v-3.2c.6,0,1.3,0,1.9.1.3,0,.7.4.7.7ZM7.3,8c.6,0,1.3,0,1.9-.1v3.2h-2.8c0-.8.1-1.6.2-2.4,0-.3.4-.7.7-.7ZM6.5,23.3c0-.8-.1-1.6-.2-2.4h2.8v3.2c-.6,0-1.3,0-1.9-.1-.3,0-.7-.4-.8-.7ZM24.7,24c-.6,0-1.3,0-1.9.1v-3.2h2.8c0,.8-.1,1.6-.2,2.4,0,.3-.4.7-.7.7Z"/>
</svg>