<svg xmlns="http://www.w3.org/2000/svg" version="1.1" viewBox="0 0 32 32">
<title>text aling right</title>
<path d="M7.5,10h17c.7,0,1.3-.6,1.3-1.3s-.6-1.3-1.3-1.3H7.5c-.7,0-1.3.6-1.3,1.3s.6,1.3,1.3,1.3Z"/>
<path d="M14,14.9h10.5c.7,0,1.3-.6,1.3-1.3s-.6-1.3-1.3-1.3h-10.5c-.7,0-1.3.6-1.3,1.3s.6,1.3,1.3,1.3Z"/>
<path d="M7.5,19.8h17c.7,0,1.3-.6,1.3-1.3s-.6-1.3-1.3-1.3H7.5c-.7,0-1.3.6-1.3,1.3s.6,1.3,1.3,1.3Z"/>
<path d="M14,24.7h10.5c.7,0,1.3-.6,1.3-1.3s-.6-1.3-1.3-1.3h-10.5c-.7,0-1.3.6-1.3,1.3s.6,1.3,1.3,1.3Z"/>
</svg>