<svg xmlns="http://www.w3.org/2000/svg" version="1.1" viewBox="0 0 32 32">
<title>text aling left</title>
<path d="M24.5,10H7.5c-.7,0-1.3-.6-1.3-1.3s.6-1.3,1.3-1.3h17c.7,0,1.3.6,1.3,1.3s-.6,1.3-1.3,1.3Z"/>
<path d="M18,14.9H7.5c-.7,0-1.3-.6-1.3-1.3s.6-1.3,1.3-1.3h10.5c.7,0,1.3.6,1.3,1.3s-.6,1.3-1.3,1.3Z"/>
<path d="M24.5,19.8H7.5c-.7,0-1.3-.6-1.3-1.3s.6-1.3,1.3-1.3h17c.7,0,1.3.6,1.3,1.3s-.6,1.3-1.3,1.3Z"/>
<path d="M18,24.7H7.5c-.7,0-1.3-.6-1.3-1.3s.6-1.3,1.3-1.3h10.5c.7,0,1.3.6,1.3,1.3s-.6,1.3-1.3,1.3Z"/>
</svg>