<svg xmlns="http://www.w3.org/2000/svg" version="1.1" viewBox="0 0 32 32">
<title>tree leaf</title>
<path d="M26.3,24.4l-2.5-2.5c1.4-4.5.1-9.5-3.2-12.9s-8.9-4.7-13.7-2.9c-.4.1-.6.4-.8.8-1.8,4.7-.6,10.1,2.9,13.7,2.5,2.5,5.8,3.8,9.1,3.8s2.5-.2,3.7-.6l2.5,2.5c.3.3.6.4.9.4s.7-.1.9-.4c.5-.5.5-1.3,0-1.8ZM11,18.7c-2.7-2.7-3.7-6.7-2.5-10.3,3.6-1.1,7.6-.2,10.3,2.5,2.3,2.3,3.4,5.6,2.9,8.8l-1.9-1.9v-3.2c0-.7-.6-1.3-1.3-1.3s-1.3.6-1.3,1.3v.6l-1.5-1.5v-3.2c0-.7-.6-1.3-1.3-1.3s-1.3.6-1.3,1.3v2.4h-2.4c-.7,0-1.3.6-1.3,1.3s.6,1.3,1.3,1.3h3.2l1.5,1.5h-.6c-.7,0-1.3.6-1.3,1.3s.6,1.3,1.3,1.3h3.2l1.9,1.9c-3.2.5-6.5-.5-8.8-2.9Z"/>
</svg>