<svg xmlns="http://www.w3.org/2000/svg" version="1.1" viewBox="0 0 32 32">
<title>underlined</title>
<path d="M14.2,13.8l.7.4,1.4.8c.4.2.7.6.8,1,.1.4,0,.9-.2,1.3-.5.8-1.5,1.1-2.3.6-.6-.4-1.4-.2-1.8.5-.4.6-.2,1.4.5,1.8.7.4,1.5.6,2.2.6,1.5,0,2.9-.8,3.7-2.1.6-1,.8-2.2.5-3.3s-1-2.1-2-2.7l-1.5-.9s0,0,0,0l-.6-.3c-.6-.3-.8-1.1-.4-1.7.3-.6,1.1-.8,1.7-.4.6.4,1.4.2,1.8-.5.4-.6.2-1.4-.5-1.8-1.8-1.1-4.2-.5-5.3,1.3-1.1,1.8-.5,4.2,1.3,5.3Z"/>
<path d="M23.7,22.7h-15.3c-.7,0-1.3.6-1.3,1.3s.6,1.3,1.3,1.3h15.3c.7,0,1.3-.6,1.3-1.3s-.6-1.3-1.3-1.3Z"/>
</svg>